<svg xmlns="http://www.w3.org/2000/svg" width="164" height="36" fill="none" viewBox="0 0 164 36"><path fill="#131B2D" d="M0 4a4 4 0 0 1 4-4h50.667v36H4a4 4 0 0 1-4-4V4Z"/><rect width="22.667" height="4" x="16" y="16" fill="#FFFBD5" rx="2"/><path fill="#FFFBD5" d="M55.167.5h53.667v35H55.167z"/><path stroke="#131B2D" d="M55.167.5h53.667v35H55.167z"/><rect width="22.667" height="4" x="70.667" y="16" fill="#131B2D" rx="2"/><mask id="a" fill="#fff"><path d="M109.333 0H160a4 4 0 0 1 4 4v28a4 4 0 0 1-4 4h-50.667V0Z"/></mask><path fill="#FFFBD5" d="M109.333 0H160a4 4 0 0 1 4 4v28a4 4 0 0 1-4 4h-50.667V0Z"/><path fill="#131B2D" d="M109.333-1H160a5 5 0 0 1 5 5h-2a3 3 0 0 0-3-3h-50.667v-2ZM165 32a5 5 0 0 1-5 5h-50.667v-2H160a3 3 0 0 0 3-3h2Zm-55.667 4V0v36ZM160-1a5 5 0 0 1 5 5v28a5 5 0 0 1-5 5v-2a3 3 0 0 0 3-3V4a3 3 0 0 0-3-3v-2Z" mask="url(#a)"/><rect width="22.667" height="4" x="125.333" y="16" fill="#131B2D" rx="2"/></svg>