<svg xmlns="http://www.w3.org/2000/svg" width="32" height="32" fill="none" viewBox="0 0 32 32"><circle cx="16" cy="16" r="16" fill="var(--vp-c-svg3, #9EACC9 )"/><path fill="var(--vp-c-svg1, #FFFBD5 )" fill-rule="evenodd" stroke="var(--vp-c-svg2, #131B2D )" stroke-width="1.5" d="M15.98 22c.386 0 .604-.317 1.226-.939.776-.777 1.525-1.5 2.069-2.044 1.605-1.606 2.237-2.215 2.684-2.69 1.191-1.264 1.345-3.02.538-4.352C21.48 10.295 19.961 10 19.145 10c-.816 0-1.4.295-2.43 1.054l-.716.631-.695-.63C14.186 10.152 13.376 10 12.856 10c-.433 0-2.243 0-3.41 1.975-.851 1.44-.406 3.216.678 4.351.194.203.994.994 2.383 2.417.559.573 1.35 1.362 1.933 1.96.33.34 1.155 1.297 1.54 1.297Z" clip-rule="evenodd"/></svg>