<svg xmlns="http://www.w3.org/2000/svg" width="124" height="104" fill="none" viewBox="0 0 124 104"><rect width="124" height="104" fill="var(--vp-c-svg2, #131B2D )" rx="4"/><rect width="92" height="44" x="16" y="16" fill="var(--vp-c-svg3, #9EACC9 )" rx="2"/><path stroke="var(--vp-c-svg2, #131B2D )" stroke-linecap="round" stroke-linejoin="round" d="M68.984 44a1 1 0 0 1-1 1H56.015a1 1 0 0 1-1-1V31a1 1 0 0 1 1-1h10a1 1 0 0 1 .698.284l1.97 1.922a1 1 0 0 1 .301.716V44Z"/><path stroke="var(--vp-c-svg2, #131B2D )" stroke-linecap="round" stroke-linejoin="round" d="M59.515 36a1.5 1.5 0 1 0 0-3 1.5 1.5 0 0 0 0 3ZM66.666 42.166l-2.741-4.458a.673.673 0 0 0-1.114-.013l-1.794 2.564-1.112-.892a.674.674 0 0 0-.983.152l-1.589 2.648"/><rect width="92" height="4" x="16" y="72" fill="var(--vp-c-svg1, #FFFBD5 )" rx="2"/><rect width="92" height="4" x="16" y="84" fill="var(--vp-c-svg1, #FFFBD5 )" rx="2"/></svg>