<svg xmlns="http://www.w3.org/2000/svg" width="124" height="90" fill="none" viewBox="0 0 124 90"><rect width="124" height="89" y=".5" fill="var(--vp-c-svg2, #131B2D )" rx="4"/><path stroke="var(--vp-c-svg3, #9EACC9 )" stroke-linecap="round" stroke-linejoin="round" stroke-width=".844" d="m21.906 24.234-3.093-3.093 3.093-3.094"/><rect width="58" height="4" x="33" y="19" fill="var(--vp-c-svg1, #FFFBD5 )" rx="2"/><path stroke="var(--vp-c-svg3, #9EACC9 )" stroke-linecap="round" stroke-linejoin="round" stroke-width=".844" d="m102.094 24.234 3.094-3.093-3.094-3.094"/><rect width="8.667" height="4" x="16" y="33.5" fill="var(--vp-c-svg3, #9EACC9 )" rx="2"/><rect width="8.667" height="4" x="32.666" y="33.5" fill="var(--vp-c-svg3, #9EACC9 )" rx="2"/><rect width="8.667" height="4" x="49.334" y="33.5" fill="var(--vp-c-svg3, #9EACC9 )" rx="2"/><rect width="8.667" height="4" x="66" y="33.5" fill="var(--vp-c-svg3, #9EACC9 )" rx="2"/><rect width="8.667" height="4" x="82.666" y="33.5" fill="var(--vp-c-svg3, #9EACC9 )" rx="2"/><rect width="8.667" height="4" x="99.334" y="33.5" fill="var(--vp-c-svg3, #9EACC9 )" rx="2"/><rect width="8.667" height="4" x="16" y="45.5" fill="var(--vp-c-svg3, #9EACC9 )" rx="2"/><rect width="8.667" height="4" x="32.666" y="45.5" fill="var(--vp-c-svg3, #9EACC9 )" rx="2"/><rect width="8.667" height="4" x="49.334" y="45.5" fill="var(--vp-c-svg3, #9EACC9 )" rx="2"/><rect width="8.667" height="4" x="66" y="45.5" fill="var(--vp-c-svg3, #9EACC9 )" rx="2"/><rect width="8.667" height="4" x="82.666" y="45.5" fill="var(--vp-c-svg3, #9EACC9 )" rx="2"/><rect width="8.667" height="4" x="99.334" y="45.5" fill="var(--vp-c-svg3, #9EACC9 )" rx="2"/><rect width="8.667" height="4" x="16" y="57.5" fill="var(--vp-c-svg3, #9EACC9 )" rx="2"/><rect width="8.667" height="4" x="32.666" y="57.5" fill="var(--vp-c-svg3, #9EACC9 )" rx="2"/><rect width="8.667" height="4" x="49.334" y="57.5" fill="var(--vp-c-svg3, #9EACC9 )" rx="2"/><rect width="8.667" height="4" x="66" y="57.5" fill="var(--vp-c-svg3, #9EACC9 )" rx="2"/><rect width="8.667" height="4" x="82.666" y="57.5" fill="var(--vp-c-svg3, #9EACC9 )" rx="2"/><rect width="8.667" height="4" x="99.334" y="57.5" fill="var(--vp-c-svg3, #9EACC9 )" rx="2"/><rect width="8.667" height="4" x="16" y="69.5" fill="var(--vp-c-svg3, #9EACC9 )" rx="2"/><rect width="8.667" height="4" x="32.666" y="69.5" fill="var(--vp-c-svg3, #9EACC9 )" rx="2"/><rect width="8.667" height="4" x="49.334" y="69.5" fill="var(--vp-c-svg3, #9EACC9 )" rx="2"/><rect width="8.667" height="4" x="66" y="69.5" fill="var(--vp-c-svg3, #9EACC9 )" rx="2"/><rect width="8.667" height="4" x="82.666" y="69.5" fill="var(--vp-c-svg3, #9EACC9 )" rx="2"/><rect width="8.667" height="4" x="99.334" y="69.5" fill="var(--vp-c-svg3, #9EACC9 )" rx="2"/><path fill="var(--vp-c-svg3, #9EACC9 )" d="M37 53.5h33v12H37z"/><circle cx="37" cy="59.5" r="6" fill="var(--vp-c-svg1, #FFFBD5 )"/><circle cx="70" cy="59.5" r="6" fill="var(--vp-c-svg1, #FFFBD5 )"/></svg>