<svg width="48" height="48" viewBox="0 0 48 48" fill="none" xmlns="http://www.w3.org/2000/svg">
<rect width="48" height="48" rx="24" fill="#BE3830"/>
<g clip-path="url(#clip0_491_29570)">
<path d="M28.5938 34.5C25.337 34.5 22.6875 31.8505 22.6875 28.5938C22.6875 25.337 25.337 22.6875 28.5938 22.6875C31.8505 22.6875 34.5 25.337 34.5 28.5938C34.5 31.8505 31.8505 34.5 28.5938 34.5ZM28.5938 24C26.0606 24 24 26.0606 24 28.5938C24 31.1269 26.0606 33.1875 28.5938 33.1875C31.1269 33.1875 33.1875 31.1269 33.1875 28.5938C33.1875 26.0606 31.1269 24 28.5938 24Z" fill="#FFFBD5"/>
<path d="M28.5938 31.875C28.2315 31.875 27.9375 31.581 27.9375 31.2188V29.25H25.9688C25.6065 29.25 25.3125 28.956 25.3125 28.5938C25.3125 28.2315 25.6065 27.9375 25.9688 27.9375H27.9375V25.9688C27.9375 25.6065 28.2315 25.3125 28.5938 25.3125C28.956 25.3125 29.25 25.6065 29.25 25.9688V27.9375H31.2188C31.581 27.9375 31.875 28.2315 31.875 28.5938C31.875 28.956 31.581 29.25 31.2188 29.25H29.25V31.2188C29.25 31.581 28.956 31.875 28.5938 31.875Z" fill="#FFFBD5"/>
<path d="M16.7812 20.0625C16.419 20.0625 16.125 19.7685 16.125 19.4062C16.125 19.044 16.419 18.75 16.7812 18.75H25.9688C26.331 18.75 26.625 19.044 26.625 19.4062C26.625 19.7685 26.331 20.0625 25.9688 20.0625H16.7812Z" fill="#FFFBD5"/>
<path d="M16.7812 24C16.419 24 16.125 23.706 16.125 23.3438C16.125 22.9815 16.419 22.6875 16.7812 22.6875H22.0312C22.3935 22.6875 22.6875 22.9815 22.6875 23.3438C22.6875 23.706 22.3935 24 22.0312 24H16.7812Z" fill="#FFFBD5"/>
<path d="M16.7812 27.9375C16.419 27.9375 16.125 27.6435 16.125 27.2812C16.125 26.919 16.419 26.625 16.7812 26.625H20.0625C20.4247 26.625 20.7188 26.919 20.7188 27.2812C20.7188 27.6435 20.4247 27.9375 20.0625 27.9375H16.7812Z" fill="#FFFBD5"/>
<path d="M15.4688 31.875C14.3829 31.875 13.5 30.9921 13.5 29.9062V15.4688C13.5 14.3829 14.3829 13.5 15.4688 13.5H24.7691C25.295 13.5 25.7885 13.7048 26.1604 14.0757L28.6734 16.5887C29.0452 16.9606 29.25 17.455 29.25 17.9809V20.0625C29.25 20.4247 28.956 20.7188 28.5938 20.7188C28.2315 20.7188 27.9375 20.4247 27.9375 20.0625V17.9809C27.9375 17.8085 27.8675 17.6396 27.7459 17.5171L25.2329 15.0041C25.1086 14.8807 24.9441 14.8125 24.7691 14.8125H15.4688C15.1065 14.8125 14.8125 15.1065 14.8125 15.4688V29.9062C14.8125 30.2685 15.1065 30.5625 15.4688 30.5625H20.0625C20.4247 30.5625 20.7188 30.8565 20.7188 31.2188C20.7188 31.581 20.4247 31.875 20.0625 31.875H15.4688Z" fill="#FFFBD5"/>
</g>
<defs>
<clipPath id="clip0_491_29570">
<rect width="21" height="21" fill="white" transform="translate(13.5 13.5)"/>
</clipPath>
</defs>
</svg>
