<svg width="271" height="150" viewBox="0 0 271 150" fill="none" xmlns="http://www.w3.org/2000/svg">
<rect width="270.5" height="150" fill="#F9F9FA"/>
<path fill-rule="evenodd" clip-rule="evenodd" d="M178.952 75.6341C179.878 75.6341 180.631 76.3881 180.631 77.317C180.631 78.246 179.878 79 178.952 79C178.025 79 177.273 78.246 177.273 77.317C177.269 76.3881 178.022 75.6341 178.952 75.6341ZM170.763 50.8476C170.515 49.1328 170.382 47.4944 170.442 45.9832C170.499 44.5452 170.772 42.875 171.47 41.6724C172.934 39.1464 176.489 39.6395 176.955 42.0955C177.111 42.9132 176.901 43.8517 176.168 44.6152C175.679 45.1243 174.933 45.5887 174.264 46.1805C172.683 47.5803 171.578 48.8942 170.763 50.8476ZM180.796 60.71C181.961 60.2074 183.091 59.8033 184.17 59.5584C185.198 59.3261 186.426 59.2052 187.41 59.4693C189.473 60.026 189.8 62.6443 188.153 63.4429C187.604 63.7069 186.903 63.7387 186.223 63.3633C185.769 63.112 185.3 62.673 184.757 62.3103C183.468 61.4513 182.332 60.9168 180.796 60.71ZM160.431 56.7682C159.457 55.957 158.486 55.2475 157.521 54.7067C156.6 54.1913 155.454 53.7268 154.439 53.7014C152.303 53.6505 151.252 56.0683 152.604 57.2995C153.055 57.71 153.721 57.939 154.477 57.7704C154.981 57.659 155.556 57.3695 156.181 57.1755C157.66 56.7237 158.901 56.5328 160.431 56.7682ZM159.346 44.8952C160.974 42.6746 164.922 42.4137 166.44 46.8359C166.703 47.6249 166.97 48.4075 167.239 49.1837C167.411 49.6737 167.614 50.3386 167.852 51.0322C169.537 55.8997 172.296 55.7884 175.368 52.0947C176.819 50.3513 177.4 48.487 179.72 47.6121C182.545 46.5464 185.436 48.3852 185.884 51.1212C186.468 54.6844 184.214 55.467 181.849 56.8351C181.11 57.2646 180.285 57.7831 179.548 58.3558C178.437 59.2211 177.536 60.2105 177.46 61.1936C177.263 63.7801 185.588 65.4185 188.601 67.1079C192.797 69.0899 190.94 74.3838 187.239 74.4156C186.223 74.4251 185.192 73.9893 184.147 73.1462L176.866 66.6879C176.397 66.2616 175.759 66.2871 175.368 66.6275C174.654 67.2447 176.609 71.8323 176.762 72.5163C177.355 75.2109 173.749 76.9989 172.724 72.8885C171.966 69.8439 169.433 66.163 167.909 69.7866L167.63 70.6742C167.16 72.1631 166.852 74.616 165.03 74.9278C163.472 75.195 161.974 73.5216 162.564 71.9913C163.228 70.5724 164.767 68.425 164.151 66.8724C164.018 66.532 163.707 66.2043 163.418 65.988C162.183 65.0622 160.857 65.5267 159.498 65.6158C158.581 65.6762 157.87 65.6062 157.311 65.3899C155.55 64.7027 155.137 62.8448 155.816 61.4767C157.022 59.0398 159.355 60.3855 161.434 59.5615C166.157 57.6972 162.523 53.3737 160.739 51.1976C159.225 49.3587 157.581 47.2972 159.346 44.8952ZM157.244 69.2744C157.813 69.2744 158.273 69.7357 158.273 70.3052C158.273 70.8747 157.813 71.336 157.244 71.336C156.676 71.336 156.216 70.8747 156.216 70.3052C156.216 69.7357 156.68 69.2744 157.244 69.2744ZM170.525 75.5927C170.915 75.5927 171.229 75.9108 171.229 76.299C171.229 76.6871 170.912 77.0053 170.525 77.0053C170.134 77.0053 169.82 76.6871 169.82 76.299C169.82 75.9108 170.134 75.5927 170.525 75.5927Z" fill="#131B2D"/>
<path d="M79 62.4846C79 60.209 80.988 59.4808 83.6084 59.4808C86.5904 59.4808 90.4759 62.0295 90.4759 64.0321C90.4759 65.3064 88.759 66.3077 85.4157 66.3077C81.3494 66.3077 79 64.6692 79 62.4846ZM85.7771 83.8756C85.7771 78.3231 101.861 83.7846 101.861 74.6821C101.861 70.859 95.0843 69.6756 95.0843 66.9449C95.0843 63.4859 107.916 67.309 107.916 61.2103C107.916 57.3872 101.681 56.75 101.681 51.6526C101.681 50.3782 102.404 49.1949 103.759 49.1949C109.813 49.1949 106.47 61.3013 115.596 61.3013C119.03 61.3013 120.837 58.7526 120.837 54.8385C120.837 50.1962 119.03 48.6487 119.03 43.3692C119.03 41.2756 120.295 39 122.916 39C125.355 39 126.982 41.2756 126.982 43.6423C126.982 49.741 124.271 49.9231 124.271 55.3846C124.271 63.5769 127.886 65.5795 134.572 65.5795C138.367 65.5795 140.265 58.2974 144.241 58.2974C147.404 58.2974 148.669 60.3 148.669 62.3936C148.669 67.4 135.205 63.941 135.205 75.4103C135.205 89.0641 154 81.1449 154 89.8833C154 91.7949 153.006 93.4333 150.837 93.4333C144.241 93.4333 145.054 86.4244 131.41 86.4244C126.44 86.4244 125.536 90.8846 125.536 94.6167C125.536 99.6231 128.97 100.442 128.97 103.173C128.97 105.449 127.163 106.541 125.084 106.541C119.211 106.541 125.627 88.9731 114.06 88.9731C102.223 88.9731 106.831 110 96.0783 110C93.8193 110 92.2831 108.635 92.2831 106.177C92.2831 96.8923 105.114 97.1654 105.114 87.5167C105.114 83.9667 102.313 82.8744 99.9639 82.8744C95.3554 82.8744 92.012 85.9692 89.0301 85.9692C87.1325 85.9692 85.7771 85.3321 85.7771 83.8756ZM135.024 105.904C135.024 103.628 136.831 101.808 139.09 101.808C141.349 101.808 143.157 103.628 143.157 105.904C143.157 108.179 141.349 110 139.09 110C136.831 110 135.024 108.179 135.024 105.904Z" fill="#C0C0D1"/>
</svg>
