<svg width="48" height="48" viewBox="0 0 48 48" fill="none" xmlns="http://www.w3.org/2000/svg">
<rect width="48" height="48" rx="24" fill="#BE3830"/>
<g clip-path="url(#clip0_491_29587)">
<path d="M24 34.5C22.9141 34.5 22.0312 33.6171 22.0312 32.5312C22.0312 31.4454 22.9141 30.5625 24 30.5625H25.3125C26.1525 30.5625 26.8945 31.1006 27.1684 31.875H28.5938C29.6796 31.875 30.5625 30.9921 30.5625 29.9062C29.8389 29.9062 29.25 29.3174 29.25 28.5938V22.0312C29.25 21.319 29.8214 20.7371 30.5292 20.7188C30.1994 17.3806 27.395 14.8125 24 14.8125C20.605 14.8125 17.8006 17.3806 17.4708 20.7188C18.1786 20.7371 18.75 21.319 18.75 22.0312V28.5938C18.75 29.3174 18.1611 29.9062 17.4375 29.9062H16.7812C14.9717 29.9062 13.5 28.4345 13.5 26.625V24C13.5 22.4163 14.6209 21.0784 16.1486 20.7809C16.454 16.6762 19.8516 13.5 24 13.5C28.1484 13.5 31.5469 16.6762 31.8514 20.7809C33.3791 21.0784 34.5 22.4163 34.5 24V26.625C34.5 28.1991 33.3905 29.5326 31.875 29.8389V29.9062C31.875 31.7157 30.4032 33.1875 28.5938 33.1875H27.1684C26.8945 33.9619 26.1525 34.5 25.3125 34.5H24ZM24 31.875C23.6377 31.875 23.3438 32.169 23.3438 32.5312C23.3438 32.8935 23.6377 33.1875 24 33.1875H25.3125C25.6748 33.1875 25.9688 32.8935 25.9688 32.5312C25.9688 32.169 25.6748 31.875 25.3125 31.875H24ZM30.5625 28.5938H31.2188C32.3046 28.5938 33.1875 27.7109 33.1875 26.625V24C33.1875 22.9141 32.3046 22.0312 31.2188 22.0312H30.5625V28.5938ZM16.7812 22.0312C15.6954 22.0312 14.8125 22.9141 14.8125 24V26.625C14.8125 27.7109 15.6954 28.5938 16.7812 28.5938H17.4375V22.0312H16.7812Z" fill="#FFFBD5"/>
<path d="M24.0001 28.6917C22.8678 28.6917 21.7784 28.2673 20.9332 27.4973C20.8037 27.3792 20.7276 27.2182 20.7197 27.0423C20.7118 26.8665 20.7722 26.6993 20.8903 26.5698C21.0146 26.4333 21.1913 26.3555 21.3751 26.3555C21.5387 26.3555 21.6962 26.4167 21.8169 26.527C22.4189 27.0756 23.1951 27.3775 24.0001 27.3775C24.8051 27.3775 25.5812 27.0756 26.1832 26.527C26.3039 26.4167 26.4614 26.3555 26.6251 26.3555C26.8088 26.3555 26.9864 26.4333 27.1098 26.5698C27.2279 26.6993 27.2883 26.8673 27.2804 27.0423C27.2726 27.2173 27.1964 27.3792 27.0669 27.4973C26.2217 28.2673 25.1323 28.6917 24.0001 28.6917Z" fill="#FFFBD5"/>
<path d="M21.375 24.0411C21.0127 24.0411 20.7188 23.7471 20.7188 23.3848V22.2368C20.7188 21.8746 21.0127 21.5806 21.375 21.5806C21.7372 21.5806 22.0312 21.8746 22.0312 22.2368V23.3848C22.0312 23.7471 21.7372 24.0411 21.375 24.0411Z" fill="#FFFBD5"/>
<path d="M26.625 24.0411C26.2627 24.0411 25.9688 23.7471 25.9688 23.3848V22.2368C25.9688 21.8746 26.2627 21.5806 26.625 21.5806C26.9872 21.5806 27.2812 21.8746 27.2812 22.2368V23.3848C27.2812 23.7471 26.9872 24.0411 26.625 24.0411Z" fill="#FFFBD5"/>
</g>
<defs>
<clipPath id="clip0_491_29587">
<rect width="21" height="21" fill="white" transform="translate(13.5 13.5)"/>
</clipPath>
</defs>
</svg>
