<svg width="1440" height="8" viewBox="0 0 1440 8" fill="none" xmlns="http://www.w3.org/2000/svg">
<path d="M1200 0L1181.25 4C1168.89 6.637 1156.11 6.637 1143.75 4C1131.39 1.363 1118.61 1.363 1106.25 4C1093.89 6.637 1081.11 6.637 1068.75 4C1056.39 1.363 1043.61 1.363 1031.25 4C1018.89 6.637 1006.11 6.637 993.75 4C981.389 1.363 968.611 1.363 956.25 4C943.889 6.637 931.111 6.637 918.75 4C906.389 1.363 893.611 1.36301 881.25 4C868.889 6.637 856.111 6.63698 843.75 4C831.389 1.36302 818.611 1.363 806.25 4C793.889 6.63699 781.111 6.637 768.75 4C756.389 1.363 743.611 1.363 731.25 4C718.889 6.637 706.111 6.637 693.75 4C681.389 1.363 668.611 1.363 656.25 4C643.889 6.637 631.111 6.637 618.75 4C606.389 1.363 593.611 1.363 581.25 4C568.889 6.637 556.111 6.637 543.75 4C531.389 1.363 518.611 1.363 506.25 4C493.889 6.637 481.111 6.637 468.75 4C456.389 1.363 443.611 1.363 431.25 4C418.889 6.637 406.111 6.637 393.75 4C381.389 1.363 368.611 1.363 356.25 4C343.889 6.637 331.111 6.637 318.75 4C306.389 1.363 293.611 1.363 281.25 4C268.889 6.637 256.111 6.637 243.75 4C231.389 1.363 218.611 1.363 206.25 4C193.889 6.637 181.111 6.637 168.75 4C156.389 1.363 143.611 1.363 131.25 4C118.889 6.637 106.111 6.637 93.75 4C81.3891 1.363 68.6109 1.363 56.25 4C43.8891 6.637 31.1109 6.637 18.75 4L0 0" fill="#131B2D"/>
<path d="M2325 0L2306.25 4C2293.89 6.637 2281.11 6.637 2268.75 4C2256.39 1.363 2243.61 1.363 2231.25 4C2218.89 6.637 2206.11 6.637 2193.75 4C2181.39 1.363 2168.61 1.363 2156.25 4C2143.89 6.637 2131.11 6.637 2118.75 4C2106.39 1.363 2093.61 1.363 2081.25 4C2068.89 6.637 2056.11 6.637 2043.75 4C2031.39 1.363 2018.61 1.36301 2006.25 4C1993.89 6.637 1981.11 6.63698 1968.75 4C1956.39 1.36302 1943.61 1.363 1931.25 4C1918.89 6.63699 1906.11 6.637 1893.75 4C1881.39 1.363 1868.61 1.363 1856.25 4C1843.89 6.637 1831.11 6.637 1818.75 4C1806.39 1.363 1793.61 1.363 1781.25 4C1768.89 6.637 1756.11 6.637 1743.75 4C1731.39 1.363 1718.61 1.363 1706.25 4C1693.89 6.637 1681.11 6.637 1668.75 4C1656.39 1.363 1643.61 1.363 1631.25 4C1618.89 6.637 1606.11 6.637 1593.75 4C1581.39 1.363 1568.61 1.363 1556.25 4C1543.89 6.637 1531.11 6.637 1518.75 4C1506.39 1.363 1493.61 1.363 1481.25 4C1468.89 6.637 1456.11 6.637 1443.75 4C1431.39 1.363 1418.61 1.363 1406.25 4C1393.89 6.637 1381.11 6.637 1368.75 4C1356.39 1.363 1343.61 1.363 1331.25 4C1318.89 6.637 1306.11 6.637 1293.75 4C1281.39 1.363 1268.61 1.363 1256.25 4C1243.89 6.637 1231.11 6.637 1218.75 4C1206.39 1.363 1193.61 1.363 1181.25 4C1168.89 6.637 1156.11 6.637 1143.75 4L1125 0" fill="#131B2D"/>
</svg>
