<svg width="25" height="24" viewBox="0 0 25 24" fill="none" xmlns="http://www.w3.org/2000/svg">
<path d="M5.06366 15.1717C5.06366 16.5666 3.93626 17.694 2.54135 17.694C1.14644 17.694 0.019043 16.5666 0.019043 15.1717C0.019043 13.7768 1.14644 12.6494 2.54135 12.6494H5.06366V15.1717ZM6.32481 15.1717C6.32481 13.7768 7.4522 12.6494 8.84711 12.6494C10.242 12.6494 11.3694 13.7768 11.3694 15.1717V21.4775C11.3694 22.8724 10.242 23.9998 8.84711 23.9998C7.4522 23.9998 6.32481 22.8724 6.32481 21.4775V15.1717Z" fill="#E01E5A"/>
<path d="M8.84718 5.0451C7.45227 5.0451 6.32487 3.91771 6.32487 2.52279C6.32487 1.12788 7.45227 0.000488281 8.84718 0.000488281C10.2421 0.000488281 11.3695 1.12788 11.3695 2.52279V5.0451H8.84718ZM8.84718 6.32536C10.2421 6.32536 11.3695 7.45276 11.3695 8.84767C11.3695 10.2426 10.2421 11.37 8.84718 11.37H2.52231C1.12739 11.37 0 10.2426 0 8.84767C0 7.45276 1.12739 6.32536 2.52231 6.32536H8.84718Z" fill="#36C5F0"/>
<path d="M18.9547 8.84767C18.9547 7.45276 20.0821 6.32536 21.477 6.32536C22.8719 6.32536 23.9993 7.45276 23.9993 8.84767C23.9993 10.2426 22.8719 11.37 21.477 11.37H18.9547V8.84767ZM17.6935 8.84767C17.6935 10.2426 16.5661 11.37 15.1712 11.37C13.7763 11.37 12.6489 10.2426 12.6489 8.84767V2.52279C12.6489 1.12788 13.7763 0.000488281 15.1712 0.000488281C16.5661 0.000488281 17.6935 1.12788 17.6935 2.52279V8.84767Z" fill="#2EB67D"/>
<path d="M15.1712 18.9552C16.5661 18.9552 17.6935 20.0826 17.6935 21.4775C17.6935 22.8724 16.5661 23.9998 15.1712 23.9998C13.7763 23.9998 12.6489 22.8724 12.6489 21.4775V18.9552H15.1712ZM15.1712 17.694C13.7763 17.694 12.6489 16.5666 12.6489 15.1717C12.6489 13.7768 13.7763 12.6494 15.1712 12.6494H21.4961C22.891 12.6494 24.0184 13.7768 24.0184 15.1717C24.0184 16.5666 22.891 17.694 21.4961 17.694H15.1712Z" fill="#ECB22E"/>
</svg>
