<svg width="271" height="150" viewBox="0 0 271 150" fill="none" xmlns="http://www.w3.org/2000/svg">
<rect x="97.638" y="21.0199" width="76.2242" height="24.747" rx="1.84499" fill="white"/>
<rect x="97.638" y="21.0199" width="76.2242" height="24.747" rx="1.84499" stroke="#D4D9E3" stroke-width="0.527141"/>
<rect x="105.809" y="27.0747" width="12.6657" height="12.6371" rx="1.05428" fill="#0063FB"/>
<path d="M129.112 32.5288L128.751 34.2368H130.061V34.9958H128.59L128.182 36.8936H127.356L127.764 34.9958H125.772L125.364 36.8936H124.538L124.946 34.9958H123.457V34.2368H125.108L125.468 32.5288H123.997V31.7697H125.629L126.037 29.872H126.863L126.455 31.7697H128.448L128.856 29.872H129.681L129.273 31.7697H130.592V32.5288H129.112ZM128.286 32.5288H126.294L125.933 34.2368H127.926L128.286 32.5288ZM131.701 33.3923C131.701 32.3043 131.878 31.4566 132.232 30.8494C132.586 30.2358 133.206 29.929 134.092 29.929C134.971 29.929 135.588 30.2358 135.942 30.8494C136.296 31.4566 136.473 32.3043 136.473 33.3923C136.473 34.4993 136.296 35.3596 135.942 35.9732C135.588 36.5868 134.971 36.8936 134.092 36.8936C133.206 36.8936 132.586 36.5868 132.232 35.9732C131.878 35.3596 131.701 34.4993 131.701 33.3923ZM135.619 33.3923C135.619 32.842 135.581 32.377 135.506 31.9975C135.436 31.6116 135.287 31.3016 135.06 31.0676C134.838 30.8335 134.516 30.7165 134.092 30.7165C133.662 30.7165 133.333 30.8335 133.105 31.0676C132.884 31.3016 132.735 31.6116 132.659 31.9975C132.589 32.377 132.555 32.842 132.555 33.3923C132.555 33.9616 132.589 34.4392 132.659 34.8251C132.735 35.2109 132.884 35.5209 133.105 35.7549C133.333 35.989 133.662 36.106 134.092 36.106C134.516 36.106 134.838 35.989 135.06 35.7549C135.287 35.5209 135.436 35.2109 135.506 34.8251C135.581 34.4392 135.619 33.9616 135.619 33.3923ZM137.659 33.3923C137.659 32.3043 137.836 31.4566 138.19 30.8494C138.544 30.2358 139.164 29.929 140.05 29.929C140.929 29.929 141.546 30.2358 141.9 30.8494C142.254 31.4566 142.432 32.3043 142.432 33.3923C142.432 34.4993 142.254 35.3596 141.9 35.9732C141.546 36.5868 140.929 36.8936 140.05 36.8936C139.164 36.8936 138.544 36.5868 138.19 35.9732C137.836 35.3596 137.659 34.4993 137.659 33.3923ZM141.578 33.3923C141.578 32.842 141.54 32.377 141.464 31.9975C141.394 31.6116 141.245 31.3016 141.018 31.0676C140.796 30.8335 140.474 30.7165 140.05 30.7165C139.62 30.7165 139.291 30.8335 139.063 31.0676C138.842 31.3016 138.693 31.6116 138.617 31.9975C138.548 32.377 138.513 32.842 138.513 33.3923C138.513 33.9616 138.548 34.4392 138.617 34.8251C138.693 35.2109 138.842 35.5209 139.063 35.7549C139.291 35.989 139.62 36.106 140.05 36.106C140.474 36.106 140.796 35.989 141.018 35.7549C141.245 35.5209 141.394 35.2109 141.464 34.8251C141.54 34.4392 141.578 33.9616 141.578 33.3923ZM147.441 31.6654C147.302 30.9632 146.868 30.6121 146.141 30.6121C145.578 30.6121 145.157 30.8304 144.879 31.2669C144.601 31.697 144.465 32.4086 144.471 33.4018C144.616 33.0728 144.857 32.8166 145.192 32.6332C145.534 32.4434 145.913 32.3485 146.331 32.3485C146.982 32.3485 147.501 32.551 147.887 32.9558C148.279 33.3607 148.475 33.9205 148.475 34.6353C148.475 35.0654 148.39 35.4513 148.219 35.7929C148.054 36.1345 147.801 36.4065 147.46 36.6089C147.125 36.8113 146.717 36.9125 146.236 36.9125C145.584 36.9125 145.075 36.767 144.708 36.4761C144.341 36.1851 144.085 35.7834 143.94 35.271C143.794 34.7586 143.721 34.1261 143.721 33.3733C143.721 31.0518 144.531 29.891 146.15 29.891C146.77 29.891 147.257 30.0586 147.612 30.3939C147.966 30.7292 148.175 31.153 148.238 31.6654H147.441ZM146.15 33.0792C145.878 33.0792 145.622 33.1361 145.382 33.25C145.141 33.3575 144.945 33.5251 144.793 33.7528C144.648 33.9742 144.575 34.2463 144.575 34.5689C144.575 35.0496 144.714 35.4418 144.993 35.7454C145.271 36.0427 145.67 36.1914 146.188 36.1914C146.631 36.1914 146.982 36.0554 147.242 35.7834C147.507 35.5051 147.64 35.1319 147.64 34.6637C147.64 34.1703 147.514 33.7845 147.261 33.5061C147.007 33.2215 146.637 33.0792 146.15 33.0792ZM149.621 31.7603C149.665 31.1783 149.89 30.7228 150.295 30.3939C150.699 30.065 151.224 29.9005 151.87 29.9005C152.3 29.9005 152.67 29.9796 152.98 30.1377C153.296 30.2895 153.533 30.4983 153.692 30.764C153.856 31.0296 153.938 31.3301 153.938 31.6654C153.938 32.0576 153.824 32.396 153.597 32.6806C153.375 32.9653 153.084 33.1487 152.724 33.231V33.2784C153.135 33.3796 153.461 33.5789 153.701 33.8762C153.941 34.1735 154.062 34.5625 154.062 35.0433C154.062 35.4039 153.979 35.7296 153.815 36.0206C153.65 36.3053 153.404 36.5298 153.075 36.6943C152.746 36.8588 152.35 36.941 151.889 36.941C151.218 36.941 150.668 36.767 150.238 36.4191C149.808 36.0649 149.567 35.5652 149.517 34.9199H150.352C150.396 35.2995 150.551 35.6094 150.816 35.8498C151.082 36.0902 151.436 36.2104 151.879 36.2104C152.322 36.2104 152.657 36.0965 152.885 35.8688C153.119 35.6347 153.236 35.3343 153.236 34.9674C153.236 34.493 153.078 34.1514 152.762 33.9426C152.445 33.7339 151.968 33.6295 151.329 33.6295H151.111V32.9084H151.338C151.92 32.902 152.36 32.8072 152.657 32.6237C152.955 32.4339 153.103 32.143 153.103 31.7508C153.103 31.4155 152.993 31.1467 152.771 30.9442C152.556 30.7418 152.246 30.6406 151.841 30.6406C151.449 30.6406 151.133 30.7418 150.892 30.9442C150.652 31.1467 150.51 31.4187 150.465 31.7603H149.621ZM159.108 30.28V30.9822H156.233V33.212H158.567V33.9142H156.233V36.8936H155.37V30.28H159.108ZM163.463 33.4872C163.703 33.5251 163.921 33.6232 164.117 33.7813C164.32 33.9395 164.478 34.1356 164.592 34.3696C164.712 34.6037 164.772 34.8535 164.772 35.1192C164.772 35.4545 164.687 35.7581 164.516 36.0301C164.345 36.2958 164.095 36.5077 163.766 36.6658C163.444 36.8176 163.061 36.8936 162.618 36.8936H160.151V30.28H162.523C162.972 30.28 163.355 30.356 163.671 30.5078C163.988 30.6533 164.225 30.8525 164.383 31.1055C164.541 31.3586 164.62 31.6432 164.62 31.9595C164.62 32.3517 164.513 32.6775 164.298 32.9368C164.089 33.1899 163.81 33.3733 163.463 33.4872ZM161.015 33.1361H162.466C162.871 33.1361 163.184 33.0412 163.406 32.8514C163.627 32.6617 163.738 32.3992 163.738 32.0639C163.738 31.7286 163.627 31.4661 163.406 31.2763C163.184 31.0866 162.865 30.9917 162.447 30.9917H161.015V33.1361ZM162.542 36.1819C162.972 36.1819 163.308 36.0807 163.548 35.8783C163.788 35.6759 163.909 35.3944 163.909 35.0338C163.909 34.6669 163.782 34.3791 163.529 34.1703C163.276 33.9553 162.938 33.8477 162.514 33.8477H161.015V36.1819H162.542Z" fill="#131B2D"/>
<path d="M135.377 58.5185C135.583 58.7243 135.917 58.7243 136.123 58.5185L139.477 55.1638C139.683 54.9579 139.683 54.6241 139.477 54.4183C139.272 54.2124 138.938 54.2124 138.732 54.4183L135.75 57.4002L132.768 54.4183C132.562 54.2124 132.228 54.2124 132.023 54.4183C131.817 54.6241 131.817 54.9579 132.023 55.1638L135.377 58.5185ZM135.223 50.2476L135.223 58.1457L136.277 58.1457L136.277 50.2476L135.223 50.2476Z" fill="#67738D"/>
<rect x="97.138" y="62.6264" width="77.2242" height="24.747" rx="1.84499" fill="white"/>
<rect x="97.138" y="62.6264" width="77.2242" height="24.747" rx="1.84499" stroke="#D4D9E3" stroke-width="0.527141"/>
<rect x="105.309" y="68.6812" width="12.6657" height="12.6371" rx="1.05428" fill="#0063FB"/>
<path d="M123.853 74.2681C124.03 73.9582 124.289 73.7051 124.631 73.509C124.972 73.3129 125.361 73.2149 125.798 73.2149C126.266 73.2149 126.687 73.3256 127.06 73.547C127.433 73.7684 127.727 74.0815 127.942 74.4864C128.157 74.8849 128.265 75.3498 128.265 75.8812C128.265 76.4062 128.157 76.8743 127.942 77.2855C127.727 77.6966 127.43 78.0161 127.05 78.2438C126.677 78.4715 126.26 78.5854 125.798 78.5854C125.349 78.5854 124.953 78.4873 124.612 78.2913C124.276 78.0952 124.023 77.8453 123.853 77.5417V78.5H122.989V71.4785H123.853V74.2681ZM127.382 75.8812C127.382 75.489 127.303 75.1474 127.145 74.8564C126.987 74.5654 126.772 74.344 126.5 74.1922C126.234 74.0404 125.94 73.9645 125.618 73.9645C125.301 73.9645 125.007 74.0436 124.735 74.2017C124.469 74.3535 124.254 74.5781 124.09 74.8754C123.932 75.1664 123.853 75.5048 123.853 75.8907C123.853 76.2828 123.932 76.6276 124.09 76.9249C124.254 77.2159 124.469 77.4404 124.735 77.5986C125.007 77.7504 125.301 77.8263 125.618 77.8263C125.94 77.8263 126.234 77.7504 126.5 77.5986C126.772 77.4404 126.987 77.2159 127.145 76.9249C127.303 76.6276 127.382 76.2797 127.382 75.8812ZM130.265 71.4785V78.5H129.401V71.4785H130.265ZM136.348 73.3003V78.5H135.484V77.7314C135.32 77.9971 135.089 78.2059 134.792 78.3577C134.501 78.5032 134.178 78.5759 133.824 78.5759C133.419 78.5759 133.055 78.4937 132.733 78.3292C132.41 78.1584 132.154 77.9054 131.964 77.5701C131.781 77.2349 131.689 76.8269 131.689 76.3461V73.3003H132.543V76.2322C132.543 76.7446 132.673 77.14 132.932 77.4183C133.191 77.6903 133.546 77.8263 133.995 77.8263C134.456 77.8263 134.82 77.684 135.086 77.3993C135.352 77.1147 135.484 76.7003 135.484 76.1563V73.3003H136.348ZM142.55 75.7009C142.55 75.8654 142.541 76.0393 142.522 76.2228H138.366C138.397 76.7351 138.571 77.1368 138.887 77.4278C139.21 77.7125 139.599 77.8548 140.055 77.8548C140.428 77.8548 140.738 77.7694 140.984 77.5986C141.237 77.4215 141.415 77.1874 141.516 76.8964H142.446C142.306 77.3962 142.028 77.8042 141.611 78.1205C141.193 78.4304 140.674 78.5854 140.055 78.5854C139.561 78.5854 139.118 78.4747 138.726 78.2533C138.34 78.0319 138.037 77.7188 137.815 77.3139C137.594 76.9028 137.483 76.4283 137.483 75.8907C137.483 75.353 137.591 74.8817 137.806 74.4769C138.021 74.072 138.321 73.7621 138.707 73.547C139.099 73.3256 139.548 73.2149 140.055 73.2149C140.548 73.2149 140.984 73.3224 141.364 73.5375C141.743 73.7526 142.034 74.0499 142.237 74.4294C142.446 74.8026 142.55 75.2265 142.55 75.7009ZM141.658 75.5206C141.658 75.1917 141.585 74.9102 141.44 74.6761C141.294 74.4357 141.095 74.2555 140.842 74.1353C140.595 74.0088 140.32 73.9455 140.017 73.9455C139.58 73.9455 139.207 74.0847 138.897 74.363C138.593 74.6413 138.419 75.0272 138.375 75.5206H141.658ZM147.295 74.6571V75.3878H143.509V74.6571H147.295ZM152.597 73.2718C152.458 72.5697 152.025 72.2186 151.297 72.2186C150.734 72.2186 150.314 72.4368 150.036 72.8733C149.757 73.3034 149.621 74.0151 149.627 75.0082C149.773 74.6793 150.013 74.4231 150.349 74.2396C150.69 74.0499 151.07 73.955 151.487 73.955C152.139 73.955 152.658 74.1574 153.043 74.5623C153.436 74.9671 153.632 75.5269 153.632 76.2417C153.632 76.6719 153.546 77.0577 153.375 77.3993C153.211 77.7409 152.958 78.0129 152.616 78.2153C152.281 78.4178 151.873 78.519 151.392 78.519C150.741 78.519 150.232 78.3735 149.865 78.0825C149.498 77.7915 149.242 77.3898 149.096 76.8775C148.951 76.3651 148.878 75.7325 148.878 74.9798C148.878 72.6582 149.688 71.4975 151.307 71.4975C151.927 71.4975 152.414 71.6651 152.768 72.0004C153.122 72.3356 153.331 72.7594 153.394 73.2718H152.597ZM151.307 74.6856C151.035 74.6856 150.779 74.7425 150.538 74.8564C150.298 74.9639 150.102 75.1316 149.95 75.3593C149.805 75.5807 149.732 75.8527 149.732 76.1753C149.732 76.6561 149.871 77.0483 150.149 77.3519C150.428 77.6492 150.826 77.7978 151.345 77.7978C151.788 77.7978 152.139 77.6618 152.398 77.3898C152.664 77.1115 152.797 76.7383 152.797 76.2702C152.797 75.7768 152.67 75.3909 152.417 75.1126C152.164 74.8279 151.794 74.6856 151.307 74.6856ZM154.797 74.9987C154.797 73.9107 154.974 73.0631 155.328 72.4558C155.682 71.8422 156.302 71.5354 157.188 71.5354C158.067 71.5354 158.684 71.8422 159.038 72.4558C159.392 73.0631 159.569 73.9107 159.569 74.9987C159.569 76.1057 159.392 76.966 159.038 77.5796C158.684 78.1932 158.067 78.5 157.188 78.5C156.302 78.5 155.682 78.1932 155.328 77.5796C154.974 76.966 154.797 76.1057 154.797 74.9987ZM158.715 74.9987C158.715 74.4484 158.677 73.9835 158.601 73.6039C158.532 73.218 158.383 72.9081 158.155 72.674C157.934 72.44 157.611 72.323 157.188 72.323C156.757 72.323 156.429 72.44 156.201 72.674C155.979 72.9081 155.831 73.218 155.755 73.6039C155.685 73.9835 155.65 74.4484 155.65 74.9987C155.65 75.568 155.685 76.0456 155.755 76.4315C155.831 76.8174 155.979 77.1273 156.201 77.3614C156.429 77.5954 156.757 77.7125 157.188 77.7125C157.611 77.7125 157.934 77.5954 158.155 77.3614C158.383 77.1273 158.532 76.8174 158.601 76.4315C158.677 76.0456 158.715 75.568 158.715 74.9987ZM160.755 74.9987C160.755 73.9107 160.932 73.0631 161.286 72.4558C161.64 71.8422 162.26 71.5354 163.146 71.5354C164.025 71.5354 164.642 71.8422 164.996 72.4558C165.35 73.0631 165.527 73.9107 165.527 74.9987C165.527 76.1057 165.35 76.966 164.996 77.5796C164.642 78.1932 164.025 78.5 163.146 78.5C162.26 78.5 161.64 78.1932 161.286 77.5796C160.932 76.966 160.755 76.1057 160.755 74.9987ZM164.673 74.9987C164.673 74.4484 164.635 73.9835 164.56 73.6039C164.49 73.218 164.341 72.9081 164.114 72.674C163.892 72.44 163.57 72.323 163.146 72.323C162.716 72.323 162.387 72.44 162.159 72.674C161.938 72.9081 161.789 73.218 161.713 73.6039C161.643 73.9835 161.609 74.4484 161.609 74.9987C161.609 75.568 161.643 76.0456 161.713 76.4315C161.789 76.8174 161.938 77.1273 162.159 77.3614C162.387 77.5954 162.716 77.7125 163.146 77.7125C163.57 77.7125 163.892 77.5954 164.114 77.3614C164.341 77.1273 164.49 76.8174 164.56 76.4315C164.635 76.0456 164.673 75.568 164.673 74.9987Z" fill="#131B2D"/>
<path d="M135.377 100.125C135.583 100.331 135.917 100.331 136.123 100.125L139.477 96.7702C139.683 96.5644 139.683 96.2306 139.477 96.0247C139.272 95.8189 138.938 95.8189 138.732 96.0247L135.75 99.0067L132.768 96.0247C132.562 95.8189 132.228 95.8189 132.023 96.0247C131.817 96.2306 131.817 96.5644 132.023 96.7702L135.377 100.125ZM135.223 91.854L135.223 99.7522L136.277 99.7522L136.277 91.854L135.223 91.854Z" fill="#67738D"/>
<rect x="35.6378" y="104.233" width="200.224" height="24.747" rx="1.84499" fill="white"/>
<rect x="35.6378" y="104.233" width="200.224" height="24.747" rx="1.84499" stroke="#D4D9E3" stroke-width="0.527141"/>
<rect x="43.8085" y="110.288" width="12.6657" height="12.6371" rx="1.05428" fill="#0063FB"/>
<path d="M61.4033 117.497C61.4033 116.959 61.5109 116.491 61.7259 116.093C61.941 115.688 62.2383 115.375 62.6178 115.153C63.0037 114.932 63.4433 114.821 63.9368 114.821C64.5756 114.821 65.1007 114.976 65.5119 115.286C65.9293 115.596 66.2045 116.026 66.3374 116.577H65.4075C65.3189 116.26 65.145 116.011 64.8856 115.827C64.6326 115.644 64.3163 115.552 63.9368 115.552C63.4433 115.552 63.0448 115.723 62.7412 116.064C62.4376 116.4 62.2857 116.877 62.2857 117.497C62.2857 118.123 62.4376 118.607 62.7412 118.949C63.0448 119.29 63.4433 119.461 63.9368 119.461C64.3163 119.461 64.6326 119.373 64.8856 119.196C65.1386 119.018 65.3126 118.765 65.4075 118.436H66.3374C66.1982 118.968 65.9199 119.395 65.5024 119.717C65.0849 120.034 64.563 120.192 63.9368 120.192C63.4433 120.192 63.0037 120.081 62.6178 119.86C62.2383 119.638 61.941 119.325 61.7259 118.92C61.5109 118.516 61.4033 118.041 61.4033 117.497ZM69.7572 120.192C69.2701 120.192 68.8274 120.081 68.4288 119.86C68.0366 119.638 67.7267 119.325 67.499 118.92C67.2776 118.509 67.1669 118.035 67.1669 117.497C67.1669 116.966 67.2807 116.498 67.5084 116.093C67.7425 115.682 68.0588 115.369 68.4573 115.153C68.8558 114.932 69.3018 114.821 69.7952 114.821C70.2886 114.821 70.7345 114.932 71.1331 115.153C71.5316 115.369 71.8447 115.678 72.0724 116.083C72.3065 116.488 72.4235 116.959 72.4235 117.497C72.4235 118.035 72.3033 118.509 72.0629 118.92C71.8289 119.325 71.5094 119.638 71.1046 119.86C70.6998 120.081 70.2506 120.192 69.7572 120.192ZM69.7572 119.433C70.0672 119.433 70.3582 119.36 70.6302 119.215C70.9022 119.069 71.1204 118.851 71.2849 118.56C71.4557 118.269 71.5411 117.915 71.5411 117.497C71.5411 117.08 71.4588 116.725 71.2944 116.434C71.1299 116.143 70.9148 115.928 70.6492 115.789C70.3835 115.644 70.0957 115.571 69.7857 115.571C69.4694 115.571 69.1784 115.644 68.9127 115.789C68.6534 115.928 68.4446 116.143 68.2865 116.434C68.1284 116.725 68.0493 117.08 68.0493 117.497C68.0493 117.921 68.1252 118.278 68.277 118.569C68.4352 118.86 68.6439 119.079 68.9033 119.224C69.1626 119.363 69.4473 119.433 69.7572 119.433ZM74.4223 113.085V120.106H73.5588V113.085H74.4223ZM78.1616 120.192C77.6745 120.192 77.2317 120.081 76.8332 119.86C76.441 119.638 76.1311 119.325 75.9034 118.92C75.682 118.509 75.5713 118.035 75.5713 117.497C75.5713 116.966 75.6851 116.498 75.9128 116.093C76.1469 115.682 76.4632 115.369 76.8617 115.153C77.2602 114.932 77.7062 114.821 78.1996 114.821C78.693 114.821 79.1389 114.932 79.5375 115.153C79.936 115.369 80.2491 115.678 80.4768 116.083C80.7109 116.488 80.8279 116.959 80.8279 117.497C80.8279 118.035 80.7077 118.509 80.4673 118.92C80.2333 119.325 79.9138 119.638 79.509 119.86C79.1042 120.081 78.655 120.192 78.1616 120.192ZM78.1616 119.433C78.4716 119.433 78.7626 119.36 79.0346 119.215C79.3066 119.069 79.5248 118.851 79.6893 118.56C79.8601 118.269 79.9455 117.915 79.9455 117.497C79.9455 117.08 79.8632 116.725 79.6988 116.434C79.5343 116.143 79.3192 115.928 79.0535 115.789C78.7879 115.644 78.5 115.571 78.1901 115.571C77.8738 115.571 77.5828 115.644 77.3171 115.789C77.0578 115.928 76.849 116.143 76.6909 116.434C76.5328 116.725 76.4537 117.08 76.4537 117.497C76.4537 117.921 76.5296 118.278 76.6814 118.569C76.8396 118.86 77.0483 119.079 77.3077 119.224C77.567 119.363 77.8517 119.433 78.1616 119.433ZM82.8266 115.751C82.9785 115.454 83.1935 115.223 83.4719 115.059C83.7565 114.894 84.1013 114.812 84.5061 114.812V115.704H84.2784C83.3106 115.704 82.8266 116.229 82.8266 117.279V120.106H81.9632V114.907H82.8266V115.751ZM89.1085 116.264V116.994H85.3226V116.264H89.1085ZM91.5924 115.875C91.7695 115.565 92.0289 115.312 92.3705 115.115C92.7121 114.919 93.1011 114.821 93.5376 114.821C94.0057 114.821 94.4263 114.932 94.7995 115.153C95.1728 115.375 95.4669 115.688 95.682 116.093C95.8971 116.491 96.0046 116.956 96.0046 117.488C96.0046 118.013 95.8971 118.481 95.682 118.892C95.4669 119.303 95.1696 119.623 94.7901 119.85C94.4168 120.078 93.9993 120.192 93.5376 120.192C93.0884 120.192 92.6931 120.094 92.3515 119.898C92.0162 119.702 91.7632 119.452 91.5924 119.148V120.106H90.729V113.085H91.5924V115.875ZM95.1222 117.488C95.1222 117.095 95.0431 116.754 94.8849 116.463C94.7268 116.172 94.5117 115.95 94.2397 115.799C93.974 115.647 93.6799 115.571 93.3573 115.571C93.041 115.571 92.7469 115.65 92.4749 115.808C92.2092 115.96 91.9941 116.185 91.8296 116.482C91.6715 116.773 91.5924 117.111 91.5924 117.497C91.5924 117.889 91.6715 118.234 91.8296 118.531C91.9941 118.822 92.2092 119.047 92.4749 119.205C92.7469 119.357 93.041 119.433 93.3573 119.433C93.6799 119.433 93.974 119.357 94.2397 119.205C94.5117 119.047 94.7268 118.822 94.8849 118.531C95.0431 118.234 95.1222 117.886 95.1222 117.488ZM101.753 114.907V120.106H100.889V119.338C100.725 119.604 100.494 119.812 100.196 119.964C99.9055 120.11 99.5829 120.182 99.2286 120.182C98.8238 120.182 98.46 120.1 98.1374 119.936C97.8148 119.765 97.5586 119.512 97.3689 119.177C97.1854 118.841 97.0937 118.433 97.0937 117.953V114.907H97.9477V117.839C97.9477 118.351 98.0773 118.746 98.3367 119.025C98.596 119.297 98.9503 119.433 99.3994 119.433C99.8612 119.433 100.225 119.29 100.491 119.006C100.756 118.721 100.889 118.307 100.889 117.763V114.907H101.753ZM104.264 115.618V118.683C104.264 118.936 104.317 119.116 104.425 119.224C104.533 119.325 104.719 119.376 104.985 119.376H105.621V120.106H104.842C104.362 120.106 104.001 119.996 103.761 119.774C103.52 119.553 103.4 119.189 103.4 118.683V115.618H102.727V114.907H103.4V113.597H104.264V114.907H105.621V115.618H104.264ZM107.72 115.618V118.683C107.72 118.936 107.774 119.116 107.881 119.224C107.989 119.325 108.175 119.376 108.441 119.376H109.077V120.106H108.299C107.818 120.106 107.457 119.996 107.217 119.774C106.977 119.553 106.857 119.189 106.857 118.683V115.618H106.183V114.907H106.857V113.597H107.72V114.907H109.077V115.618H107.72ZM112.391 120.192C111.904 120.192 111.461 120.081 111.062 119.86C110.67 119.638 110.36 119.325 110.132 118.92C109.911 118.509 109.8 118.035 109.8 117.497C109.8 116.966 109.914 116.498 110.142 116.093C110.376 115.682 110.692 115.369 111.091 115.153C111.489 114.932 111.935 114.821 112.429 114.821C112.922 114.821 113.368 114.932 113.767 115.153C114.165 115.369 114.478 115.678 114.706 116.083C114.94 116.488 115.057 116.959 115.057 117.497C115.057 118.035 114.937 118.509 114.696 118.92C114.462 119.325 114.143 119.638 113.738 119.86C113.333 120.081 112.884 120.192 112.391 120.192ZM112.391 119.433C112.701 119.433 112.992 119.36 113.264 119.215C113.536 119.069 113.754 118.851 113.918 118.56C114.089 118.269 114.175 117.915 114.175 117.497C114.175 117.08 114.092 116.725 113.928 116.434C113.763 116.143 113.548 115.928 113.283 115.789C113.017 115.644 112.729 115.571 112.419 115.571C112.103 115.571 111.812 115.644 111.546 115.789C111.287 115.928 111.078 116.143 110.92 116.434C110.762 116.725 110.683 117.08 110.683 117.497C110.683 117.921 110.759 118.278 110.911 118.569C111.069 118.86 111.277 119.079 111.537 119.224C111.796 119.363 112.081 119.433 112.391 119.433ZM118.726 114.812C119.358 114.812 119.871 115.005 120.263 115.391C120.655 115.77 120.851 116.321 120.851 117.042V120.106H119.997V117.165C119.997 116.646 119.868 116.251 119.608 115.979C119.349 115.701 118.995 115.561 118.545 115.561C118.09 115.561 117.726 115.704 117.454 115.988C117.189 116.273 117.056 116.687 117.056 117.231V120.106H116.192V114.907H117.056V115.647C117.227 115.381 117.457 115.176 117.748 115.03C118.046 114.885 118.372 114.812 118.726 114.812ZM125.867 116.264V116.994H122.081V116.264H125.867ZM128.351 115.865C128.522 115.568 128.775 115.321 129.11 115.125C129.452 114.923 129.847 114.821 130.296 114.821C130.758 114.821 131.176 114.932 131.549 115.153C131.928 115.375 132.226 115.688 132.441 116.093C132.656 116.491 132.763 116.956 132.763 117.488C132.763 118.013 132.656 118.481 132.441 118.892C132.226 119.303 131.928 119.623 131.549 119.85C131.176 120.078 130.758 120.192 130.296 120.192C129.854 120.192 129.461 120.094 129.12 119.898C128.785 119.695 128.528 119.445 128.351 119.148V122.573H127.488V114.907H128.351V115.865ZM131.881 117.488C131.881 117.095 131.802 116.754 131.644 116.463C131.486 116.172 131.271 115.95 130.999 115.799C130.733 115.647 130.439 115.571 130.116 115.571C129.8 115.571 129.506 115.65 129.234 115.808C128.968 115.96 128.753 116.185 128.588 116.482C128.43 116.773 128.351 117.111 128.351 117.497C128.351 117.889 128.43 118.234 128.588 118.531C128.753 118.822 128.968 119.047 129.234 119.205C129.506 119.357 129.8 119.433 130.116 119.433C130.439 119.433 130.733 119.357 130.999 119.205C131.271 119.047 131.486 118.822 131.644 118.531C131.802 118.234 131.881 117.886 131.881 117.488ZM134.763 115.751C134.915 115.454 135.13 115.223 135.409 115.059C135.693 114.894 136.038 114.812 136.443 114.812V115.704H136.215C135.247 115.704 134.763 116.229 134.763 117.279V120.106H133.9V114.907H134.763V115.751ZM137.886 114.062C137.721 114.062 137.582 114.005 137.468 113.891C137.354 113.778 137.297 113.638 137.297 113.474C137.297 113.309 137.354 113.17 137.468 113.056C137.582 112.943 137.721 112.886 137.886 112.886C138.044 112.886 138.177 112.943 138.284 113.056C138.398 113.17 138.455 113.309 138.455 113.474C138.455 113.638 138.398 113.778 138.284 113.891C138.177 114.005 138.044 114.062 137.886 114.062ZM138.303 114.907V120.106H137.44V114.907H138.303ZM146.028 114.812C146.432 114.812 146.793 114.897 147.109 115.068C147.426 115.233 147.675 115.482 147.859 115.818C148.042 116.153 148.134 116.561 148.134 117.042V120.106H147.28V117.165C147.28 116.646 147.15 116.251 146.891 115.979C146.638 115.701 146.293 115.561 145.857 115.561C145.408 115.561 145.05 115.707 144.785 115.998C144.519 116.283 144.386 116.697 144.386 117.241V120.106H143.532V117.165C143.532 116.646 143.402 116.251 143.143 115.979C142.89 115.701 142.545 115.561 142.109 115.561C141.66 115.561 141.302 115.707 141.037 115.998C140.771 116.283 140.638 116.697 140.638 117.241V120.106H139.775V114.907H140.638V115.656C140.809 115.384 141.037 115.176 141.321 115.03C141.612 114.885 141.932 114.812 142.28 114.812C142.716 114.812 143.102 114.91 143.437 115.106C143.773 115.302 144.022 115.59 144.187 115.969C144.332 115.603 144.573 115.318 144.908 115.115C145.243 114.913 145.616 114.812 146.028 114.812ZM149.228 117.488C149.228 116.956 149.335 116.491 149.55 116.093C149.766 115.688 150.06 115.375 150.433 115.153C150.812 114.932 151.233 114.821 151.695 114.821C152.15 114.821 152.546 114.919 152.881 115.115C153.216 115.312 153.466 115.558 153.631 115.856V114.907H154.503V120.106H153.631V119.139C153.46 119.442 153.204 119.695 152.862 119.898C152.527 120.094 152.135 120.192 151.685 120.192C151.224 120.192 150.806 120.078 150.433 119.85C150.06 119.623 149.766 119.303 149.55 118.892C149.335 118.481 149.228 118.013 149.228 117.488ZM153.631 117.497C153.631 117.105 153.551 116.763 153.393 116.472C153.235 116.181 153.02 115.96 152.748 115.808C152.482 115.65 152.188 115.571 151.866 115.571C151.543 115.571 151.249 115.647 150.983 115.799C150.718 115.95 150.506 116.172 150.348 116.463C150.189 116.754 150.11 117.095 150.11 117.488C150.11 117.886 150.189 118.234 150.348 118.531C150.506 118.822 150.718 119.047 150.983 119.205C151.249 119.357 151.543 119.433 151.866 119.433C152.188 119.433 152.482 119.357 152.748 119.205C153.02 119.047 153.235 118.822 153.393 118.531C153.551 118.234 153.631 117.889 153.631 117.497ZM156.826 115.751C156.978 115.454 157.193 115.223 157.471 115.059C157.756 114.894 158.101 114.812 158.506 114.812V115.704H158.278C157.31 115.704 156.826 116.229 156.826 117.279V120.106H155.963V114.907H156.826V115.751ZM163.981 114.907L160.85 122.554H159.958L160.983 120.05L158.886 114.907H159.844L161.476 119.12L163.089 114.907H163.981ZM168.455 116.264V116.994H164.669V116.264H168.455ZM170.938 115.875C171.116 115.565 171.375 115.312 171.716 115.115C172.058 114.919 172.447 114.821 172.884 114.821C173.352 114.821 173.772 114.932 174.146 115.153C174.519 115.375 174.813 115.688 175.028 116.093C175.243 116.491 175.351 116.956 175.351 117.488C175.351 118.013 175.243 118.481 175.028 118.892C174.813 119.303 174.516 119.623 174.136 119.85C173.763 120.078 173.345 120.192 172.884 120.192C172.434 120.192 172.039 120.094 171.698 119.898C171.362 119.702 171.109 119.452 170.938 119.148V120.106H170.075V113.085H170.938V115.875ZM174.468 117.488C174.468 117.095 174.389 116.754 174.231 116.463C174.073 116.172 173.858 115.95 173.586 115.799C173.32 115.647 173.026 115.571 172.703 115.571C172.387 115.571 172.093 115.65 171.821 115.808C171.555 115.96 171.34 116.185 171.176 116.482C171.018 116.773 170.938 117.111 170.938 117.497C170.938 117.889 171.018 118.234 171.176 118.531C171.34 118.822 171.555 119.047 171.821 119.205C172.093 119.357 172.387 119.433 172.703 119.433C173.026 119.433 173.32 119.357 173.586 119.205C173.858 119.047 174.073 118.822 174.231 118.531C174.389 118.234 174.468 117.886 174.468 117.488ZM176.165 117.488C176.165 116.956 176.272 116.491 176.487 116.093C176.702 115.688 176.996 115.375 177.37 115.153C177.749 114.932 178.17 114.821 178.632 114.821C179.087 114.821 179.482 114.919 179.818 115.115C180.153 115.312 180.403 115.558 180.567 115.856V114.907H181.44V120.106H180.567V119.139C180.396 119.442 180.14 119.695 179.799 119.898C179.463 120.094 179.071 120.192 178.622 120.192C178.16 120.192 177.743 120.078 177.37 119.85C176.996 119.623 176.702 119.303 176.487 118.892C176.272 118.481 176.165 118.013 176.165 117.488ZM180.567 117.497C180.567 117.105 180.488 116.763 180.33 116.472C180.172 116.181 179.957 115.96 179.685 115.808C179.419 115.65 179.125 115.571 178.802 115.571C178.48 115.571 178.186 115.647 177.92 115.799C177.654 115.95 177.442 116.172 177.284 116.463C177.126 116.754 177.047 117.095 177.047 117.488C177.047 117.886 177.126 118.234 177.284 118.531C177.442 118.822 177.654 119.047 177.92 119.205C178.186 119.357 178.48 119.433 178.802 119.433C179.125 119.433 179.419 119.357 179.685 119.205C179.957 119.047 180.172 118.822 180.33 118.531C180.488 118.234 180.567 117.889 180.567 117.497ZM182.577 117.497C182.577 116.959 182.684 116.491 182.899 116.093C183.114 115.688 183.412 115.375 183.791 115.153C184.177 114.932 184.617 114.821 185.11 114.821C185.749 114.821 186.274 114.976 186.685 115.286C187.103 115.596 187.378 116.026 187.511 116.577H186.581C186.492 116.26 186.318 116.011 186.059 115.827C185.806 115.644 185.49 115.552 185.11 115.552C184.617 115.552 184.218 115.723 183.915 116.064C183.611 116.4 183.459 116.877 183.459 117.497C183.459 118.123 183.611 118.607 183.915 118.949C184.218 119.29 184.617 119.461 185.11 119.461C185.49 119.461 185.806 119.373 186.059 119.196C186.312 119.018 186.486 118.765 186.581 118.436H187.511C187.372 118.968 187.093 119.395 186.676 119.717C186.258 120.034 185.736 120.192 185.11 120.192C184.617 120.192 184.177 120.081 183.791 119.86C183.412 119.638 183.114 119.325 182.899 118.92C182.684 118.516 182.577 118.041 182.577 117.497ZM191.566 120.106L189.526 117.81V120.106H188.663V113.085H189.526V117.212L191.528 114.907H192.733L190.285 117.497L192.743 120.106H191.566ZM195.691 114.821C196.14 114.821 196.532 114.919 196.867 115.115C197.209 115.312 197.462 115.558 197.626 115.856V114.907H198.499V120.22C198.499 120.695 198.398 121.115 198.196 121.482C197.993 121.855 197.702 122.146 197.323 122.355C196.949 122.564 196.513 122.668 196.013 122.668C195.33 122.668 194.761 122.507 194.305 122.184C193.85 121.862 193.581 121.422 193.499 120.866H194.353C194.448 121.182 194.644 121.435 194.941 121.625C195.238 121.821 195.596 121.919 196.013 121.919C196.488 121.919 196.873 121.77 197.171 121.473C197.474 121.175 197.626 120.758 197.626 120.22V119.129C197.455 119.433 197.202 119.686 196.867 119.888C196.532 120.091 196.14 120.192 195.691 120.192C195.229 120.192 194.808 120.078 194.429 119.85C194.055 119.623 193.761 119.303 193.546 118.892C193.331 118.481 193.224 118.013 193.224 117.488C193.224 116.956 193.331 116.491 193.546 116.093C193.761 115.688 194.055 115.375 194.429 115.153C194.808 114.932 195.229 114.821 195.691 114.821ZM197.626 117.497C197.626 117.105 197.547 116.763 197.389 116.472C197.231 116.181 197.016 115.96 196.744 115.808C196.478 115.65 196.184 115.571 195.861 115.571C195.539 115.571 195.245 115.647 194.979 115.799C194.713 115.95 194.501 116.172 194.343 116.463C194.185 116.754 194.106 117.095 194.106 117.488C194.106 117.886 194.185 118.234 194.343 118.531C194.501 118.822 194.713 119.047 194.979 119.205C195.245 119.357 195.539 119.433 195.861 119.433C196.184 119.433 196.478 119.357 196.744 119.205C197.016 119.047 197.231 118.822 197.389 118.531C197.547 118.234 197.626 117.889 197.626 117.497ZM200.822 115.751C200.974 115.454 201.189 115.223 201.467 115.059C201.752 114.894 202.096 114.812 202.501 114.812V115.704H202.274C201.306 115.704 200.822 116.229 200.822 117.279V120.106H199.958V114.907H200.822V115.751ZM205.766 120.192C205.279 120.192 204.836 120.081 204.437 119.86C204.045 119.638 203.735 119.325 203.507 118.92C203.286 118.509 203.175 118.035 203.175 117.497C203.175 116.966 203.289 116.498 203.517 116.093C203.751 115.682 204.067 115.369 204.466 115.153C204.864 114.932 205.31 114.821 205.804 114.821C206.297 114.821 206.743 114.932 207.142 115.153C207.54 115.369 207.853 115.678 208.081 116.083C208.315 116.488 208.432 116.959 208.432 117.497C208.432 118.035 208.312 118.509 208.071 118.92C207.837 119.325 207.518 119.638 207.113 119.86C206.708 120.081 206.259 120.192 205.766 120.192ZM205.766 119.433C206.076 119.433 206.367 119.36 206.639 119.215C206.911 119.069 207.129 118.851 207.293 118.56C207.464 118.269 207.55 117.915 207.55 117.497C207.55 117.08 207.467 116.725 207.303 116.434C207.138 116.143 206.923 115.928 206.658 115.789C206.392 115.644 206.104 115.571 205.794 115.571C205.478 115.571 205.187 115.644 204.921 115.789C204.662 115.928 204.453 116.143 204.295 116.434C204.137 116.725 204.058 117.08 204.058 117.497C204.058 117.921 204.134 118.278 204.285 118.569C204.444 118.86 204.652 119.079 204.912 119.224C205.171 119.363 205.456 119.433 205.766 119.433ZM214.179 114.907V120.106H213.315V119.338C213.151 119.604 212.92 119.812 212.623 119.964C212.332 120.11 212.009 120.182 211.655 120.182C211.25 120.182 210.886 120.1 210.564 119.936C210.241 119.765 209.985 119.512 209.795 119.177C209.612 118.841 209.52 118.433 209.52 117.953V114.907H210.374V117.839C210.374 118.351 210.503 118.746 210.763 119.025C211.022 119.297 211.376 119.433 211.826 119.433C212.287 119.433 212.651 119.29 212.917 119.006C213.182 118.721 213.315 118.307 213.315 117.763V114.907H214.179ZM218.17 114.812C218.803 114.812 219.315 115.005 219.707 115.391C220.099 115.77 220.295 116.321 220.295 117.042V120.106H219.442V117.165C219.442 116.646 219.312 116.251 219.052 115.979C218.793 115.701 218.439 115.561 217.99 115.561C217.534 115.561 217.171 115.704 216.899 115.988C216.633 116.273 216.5 116.687 216.5 117.231V120.106H215.637V114.907H216.5V115.647C216.671 115.381 216.902 115.176 217.193 115.03C217.49 114.885 217.816 114.812 218.17 114.812ZM221.383 117.488C221.383 116.956 221.491 116.491 221.706 116.093C221.921 115.688 222.215 115.375 222.588 115.153C222.968 114.932 223.392 114.821 223.86 114.821C224.265 114.821 224.641 114.916 224.989 115.106C225.337 115.289 225.603 115.533 225.786 115.837V113.085H226.659V120.106H225.786V119.129C225.615 119.439 225.362 119.695 225.027 119.898C224.692 120.094 224.299 120.192 223.85 120.192C223.389 120.192 222.968 120.078 222.588 119.85C222.215 119.623 221.921 119.303 221.706 118.892C221.491 118.481 221.383 118.013 221.383 117.488ZM225.786 117.497C225.786 117.105 225.707 116.763 225.549 116.472C225.391 116.181 225.176 115.96 224.904 115.808C224.638 115.65 224.344 115.571 224.021 115.571C223.699 115.571 223.404 115.647 223.139 115.799C222.873 115.95 222.661 116.172 222.503 116.463C222.345 116.754 222.266 117.095 222.266 117.488C222.266 117.886 222.345 118.234 222.503 118.531C222.661 118.822 222.873 119.047 223.139 119.205C223.404 119.357 223.699 119.433 224.021 119.433C224.344 119.433 224.638 119.357 224.904 119.205C225.176 119.047 225.391 118.822 225.549 118.531C225.707 118.234 225.786 117.889 225.786 117.497Z" fill="#131B2D"/>
</svg>
