<svg width="578" height="238" viewBox="0 0 578 238" fill="none" xmlns="http://www.w3.org/2000/svg">
<ellipse cx="122.329" cy="36.5913" rx="122.329" ry="36.5913" transform="matrix(0.9975 -0.070662 0.064329 0.997929 156.225 83.0547)" stroke="#1B263E" stroke-width="2"/>
<ellipse cx="151.498" cy="48.6195" rx="151.498" ry="48.6195" transform="matrix(0.9975 -0.070662 0.064329 0.997929 126.358 73.5293)" stroke="#1B263E" stroke-width="2"/>
<ellipse cx="181.772" cy="61.3539" rx="181.772" ry="61.3539" transform="matrix(0.9975 -0.070662 0.064329 0.997929 98.0233 65.7659)" stroke="#1B263E" stroke-width="2"/>
<ellipse cx="230.258" cy="77.7197" rx="230.258" ry="77.7197" transform="matrix(0.9975 -0.070662 0.064329 0.997929 54.3723 57.365)" stroke="#1B263E" stroke-width="2"/>
<ellipse cx="283.376" cy="98.4395" rx="283.376" ry="98.4395" transform="matrix(0.9975 -0.070662 0.064329 0.997929 0 40.7883)" stroke="#1B263E" stroke-width="2"/>
<g filter="url(#filter0_i_309_7208)">
<path d="M285.152 173.456C322.694 173.456 353.127 143.023 353.127 105.481C353.127 67.94 322.694 37.5066 285.152 37.5066C247.611 37.5066 217.177 67.94 217.177 105.481C217.177 143.023 247.611 173.456 285.152 173.456Z" fill="url(#paint0_linear_309_7208)"/>
</g>
<path d="M253.501 72.0183C256.397 72.0183 258.744 69.6707 258.744 66.7748C258.744 63.8788 256.397 61.5312 253.501 61.5312C250.605 61.5312 248.257 63.8788 248.257 66.7748C248.257 69.6707 250.605 72.0183 253.501 72.0183Z" fill="url(#paint1_linear_309_7208)"/>
<path d="M294.495 66.6798C298.971 66.6798 302.599 63.0517 302.599 58.5763C302.599 54.1008 298.971 50.4727 294.495 50.4727C290.02 50.4727 286.392 54.1008 286.392 58.5763C286.392 63.0517 290.02 66.6798 294.495 66.6798Z" fill="url(#paint2_linear_309_7208)"/>
<path d="M246.16 113.776C253.11 113.776 258.744 108.142 258.744 101.192C258.744 94.2414 253.11 88.6072 246.16 88.6072C239.21 88.6072 233.575 94.2414 233.575 101.192C233.575 108.142 239.21 113.776 246.16 113.776Z" fill="url(#paint3_linear_309_7208)"/>
<path d="M335.171 153.363C315.933 156.784 282.587 164.096 243.683 161.059" stroke="#1B263E" stroke-width="2"/>
<path d="M347.997 137.545C328.759 140.965 267.624 150.415 228.72 147.378" stroke="#1B263E" stroke-width="2"/>
<path d="M257.484 81.6087C257.894 81.3815 258.395 81.7015 258.355 82.168C257.019 97.7436 255.285 112.513 254.076 127.552C254.06 127.754 253.939 127.933 253.76 128.026C250.34 129.796 249.503 130.669 242.737 130.705C242.479 130.706 242.246 130.532 242.175 130.284C239.122 119.729 239.054 113.601 236.189 107.389C236.135 107.273 236.024 107.193 235.896 107.18C235.702 107.159 235.525 107.295 235.495 107.488C234.421 114.553 233.486 121.636 232.537 128.719C232.488 129.081 232.121 129.309 231.775 129.192C227.34 127.692 222.928 126.124 218.507 124.584C218.291 124.509 218.139 124.314 218.119 124.087C216.716 108.543 215.171 93.0128 213.76 77.4698C213.718 77.0123 214.198 76.6907 214.604 76.9066C218.079 78.7573 221.057 80.5937 224.686 82.0652C224.891 82.1483 225.033 82.3389 225.051 82.5591C225.68 89.9849 226.216 96.9367 226.763 104.374C226.773 104.511 226.927 104.633 227.062 104.655C227.313 104.698 227.497 104.514 227.529 104.261C228.336 97.8184 229.166 91.3784 230.244 84.9748C230.308 84.597 230.715 84.3848 231.062 84.5475C233.921 85.8897 235.049 86.4622 240.553 87.4177C240.79 87.4587 240.98 87.6399 241.029 87.875C242.117 93.2018 243.447 99.7476 245.004 106.158C245.046 106.331 245.2 106.453 245.378 106.453C245.385 106.453 245.391 106.454 245.398 106.454C245.604 106.454 245.775 106.293 245.784 106.087C246.082 99.6489 245.325 93.4451 245.74 87.0154C245.755 86.7812 245.912 86.5795 246.135 86.5045C250.846 84.914 253.57 83.7817 257.484 81.6087Z" fill="#BE3830"/>
<path d="M290.67 128.18C290.735 128.605 290.333 128.951 289.923 128.822C286.483 127.746 283.054 126.632 279.615 125.553C279.411 125.489 279.259 125.319 279.218 125.109C278.838 123.165 278.447 121.224 278.051 119.284C278.003 119.046 277.81 118.862 277.569 118.827C275.151 118.471 272.73 118.244 270.285 118.235C270.016 118.234 269.783 118.421 269.722 118.683C269.364 120.214 268.986 121.74 268.598 123.264C268.545 123.471 268.383 123.632 268.177 123.686C264.882 124.537 261.67 125.697 258.46 126.823C258.044 126.969 257.624 126.616 257.696 126.18C260.284 110.534 263.212 95.8923 265.329 80.1495C265.364 79.8946 265.566 79.6907 265.82 79.6516C274.466 78.3197 276.86 79.2995 282.667 82.1134C282.838 82.1962 282.96 82.3586 282.99 82.546C285.436 97.7767 288.33 112.932 290.67 128.18ZM275.936 110.998C276.308 111.019 276.605 110.693 276.549 110.325C275.738 105.049 274.973 98.9338 274.267 93.7063C274.256 93.6285 274.188 93.5655 274.11 93.5726C274.022 93.5806 273.949 93.6406 273.937 93.7278C273.224 98.9065 272.283 104.942 271.449 110.159C271.393 110.507 271.658 110.824 272.011 110.834C273.321 110.869 274.628 110.923 275.936 110.998Z" fill="#BE3830"/>
<path d="M318.386 108.204C318.222 108.362 318.157 108.596 318.224 108.813C319.784 113.843 321.383 118.882 323.546 123.689C323.697 124.026 323.505 124.419 323.146 124.505C319.265 125.438 315.453 126.665 311.635 127.825C311.325 127.919 310.997 127.74 310.91 127.428C309.514 122.451 308.423 117.376 307.118 112.375C307.049 112.108 306.801 111.928 306.526 111.941C306.335 111.951 306.134 111.961 305.955 111.969C305.649 111.984 305.407 112.232 305.402 112.538C305.363 114.86 305.213 124.069 305.205 129.299C305.204 129.56 305.031 129.786 304.78 129.854C300.891 130.903 297.925 130.97 294.027 129.904C293.777 129.836 293.605 129.607 293.605 129.348C293.592 115.442 291.407 101.028 291.387 87.118C291.386 86.7596 293.263 86.6821 293.619 86.7228C304.538 87.9716 310.503 76.0326 319.701 81.8466C325.687 87.7182 324.54 102.298 318.386 108.204ZM307.386 105.021C311.989 104.761 312.176 93.6292 307.456 94.4053C306.963 94.4807 305.816 94.5354 305.052 94.5979C304.763 94.6216 304.548 94.8646 304.554 95.1548C304.613 97.9869 305.127 101.648 305.196 104.5C305.204 104.831 305.481 105.096 305.813 105.084C306.349 105.064 306.964 105.043 307.386 105.021Z" fill="#BE3830"/>
<path d="M339.4 113.907C339.079 113.911 338.81 114.17 338.813 114.492C338.839 118.372 339.112 123.35 339.146 127.266C339.15 127.654 338.777 127.932 338.414 127.796C335.072 126.545 332.618 123.855 327.212 124.245C327.212 116.793 326.803 111.549 326.722 103.896C326.676 99.6138 326.721 94.1229 326.722 89.8942C326.722 86.1794 326.079 80.097 326.722 80.097C344.355 74.8106 356.547 84.554 356.547 97.1605C356.547 106.628 353.45 113.715 339.4 113.907ZM339.498 92.3008C339.142 92.2535 338.852 92.5667 338.888 92.9249C339.307 97.0889 338.853 101.857 338.813 105.73C338.81 106.022 339.037 106.272 339.329 106.294C348.585 106.997 347.541 93.3675 339.498 92.3008Z" fill="#BE3830"/>
<g clip-path="url(#clip0_309_7208)">
<path fill-rule="evenodd" clip-rule="evenodd" d="M428.498 125.593H432.27C432.528 125.591 432.74 125.785 432.744 126.028V149.138C432.742 149.253 432.69 149.363 432.601 149.442C432.512 149.522 432.392 149.564 432.27 149.56H429.052C428.777 149.553 428.531 149.399 428.419 149.163L428.023 148.182C426.499 149.433 424.546 150.126 422.524 150.131C417.763 150.131 413.885 146.306 413.885 141.6C413.885 136.894 417.763 133.069 422.524 133.069C424.548 133.077 426.501 133.774 428.023 135.031V126.015C428.026 125.9 428.078 125.79 428.167 125.711C428.256 125.632 428.375 125.589 428.498 125.593ZM418.62 141.612C418.62 143.972 420.73 145.884 423.328 145.884C425.926 145.884 428.036 143.972 428.036 141.612C428.036 139.253 425.926 137.341 423.328 137.341C420.73 137.341 418.62 139.253 418.62 141.612Z" fill="white"/>
<path fill-rule="evenodd" clip-rule="evenodd" d="M442.369 135.026C443.889 133.766 445.843 133.069 447.869 133.065C452.629 133.065 456.507 136.9 456.507 141.604C456.507 146.308 452.629 150.131 447.869 150.131C445.844 150.123 443.891 149.427 442.369 148.17L441.974 149.151C441.857 149.383 441.613 149.536 441.34 149.548H438.123C438 149.552 437.881 149.51 437.792 149.43C437.702 149.351 437.651 149.241 437.648 149.126V126.015C437.651 125.9 437.702 125.79 437.792 125.711C437.881 125.632 438 125.589 438.123 125.593H441.894C442.017 125.589 442.136 125.632 442.225 125.711C442.315 125.79 442.366 125.9 442.369 126.015V135.026ZM442.369 141.592C442.369 143.95 444.479 145.862 447.077 145.862C449.675 145.862 451.785 143.95 451.785 141.592C451.785 139.234 449.675 137.322 447.077 137.322C444.479 137.322 442.369 139.234 442.369 141.592Z" fill="white"/>
<path fill-rule="evenodd" clip-rule="evenodd" d="M474.162 133.679H477.657C477.779 133.675 477.899 133.718 477.988 133.797C478.077 133.877 478.129 133.986 478.132 134.102V149.197C478.129 149.312 478.077 149.422 477.988 149.501C477.899 149.581 477.779 149.623 477.657 149.619H474.439C474.164 149.612 473.918 149.457 473.806 149.221L473.41 148.24C471.886 149.492 469.933 150.185 467.911 150.19C463.15 150.19 459.273 146.364 459.273 141.655C459.273 136.947 463.15 133.12 467.911 133.12C469.934 133.122 471.888 133.815 473.41 135.071L473.608 134.089C473.674 133.851 473.9 133.683 474.162 133.679ZM468.715 145.917C471.3 145.917 473.41 144.016 473.423 141.668V141.618C473.41 139.27 471.313 137.369 468.715 137.369C466.117 137.369 464.007 139.282 464.007 141.643C464.007 144.003 466.13 145.917 468.715 145.917Z" fill="white"/>
</g>
<g clip-path="url(#clip1_309_7208)">
<path d="M416.887 57.4554H420.718V43.2068H416.887V57.4554Z" fill="white"/>
<mask id="mask0_309_7208" style="mask-type:luminance" maskUnits="userSpaceOnUse" x="416" y="35" width="6" height="7">
<path fill-rule="evenodd" clip-rule="evenodd" d="M416.185 35.9197H421.493V41.3133H416.185V35.9197Z" fill="white"/>
</mask>
<g mask="url(#mask0_309_7208)">
<path d="M418.824 35.9192C418.101 35.9192 417.474 36.1839 416.959 36.7064C416.445 37.2295 416.185 37.8768 416.185 38.6307C416.185 39.3656 416.445 40.0034 416.959 40.5253C417.474 41.0478 418.101 41.3131 418.824 41.3131C419.567 41.3131 420.204 41.0478 420.718 40.5253C421.232 40.0028 421.493 39.3656 421.493 38.6307C421.493 37.8768 421.232 37.2302 420.718 36.7064C420.204 36.1839 419.566 35.9192 418.824 35.9192Z" fill="white"/>
</g>
<mask id="mask1_309_7208" style="mask-type:luminance" maskUnits="userSpaceOnUse" x="400" y="35" width="106" height="23">
<path fill-rule="evenodd" clip-rule="evenodd" d="M400.179 57.7867H505.295V35.9197H400.179V57.7867Z" fill="white"/>
</mask>
<g mask="url(#mask1_309_7208)">
<path d="M423.8 57.4388H427.623V36.4126H423.8V57.4388Z" fill="white"/>
</g>
<mask id="mask2_309_7208" style="mask-type:luminance" maskUnits="userSpaceOnUse" x="400" y="35" width="106" height="23">
<path fill-rule="evenodd" clip-rule="evenodd" d="M400.179 57.7867H505.295V35.9197H400.179V57.7867Z" fill="white"/>
</mask>
<g mask="url(#mask2_309_7208)">
<path d="M473.808 50.4472C473.441 50.1358 473.019 49.8737 472.552 49.6682C472.108 49.4722 471.656 49.2862 471.193 49.1091C470.582 48.8759 470.047 48.6774 469.588 48.5129C469.147 48.354 468.773 48.2021 468.479 48.0622C468.223 47.9406 468.033 47.807 467.916 47.6639C467.818 47.5466 467.771 47.3903 467.771 47.1868C467.771 46.8237 467.898 46.5697 468.17 46.3857C468.479 46.1758 468.868 46.0699 469.327 46.0699C469.979 46.0699 470.442 46.2193 470.703 46.5149C470.977 46.8256 471.111 47.2447 471.111 47.795V48.158H474.85V47.795C474.85 47.0865 474.704 46.4191 474.415 45.8109C474.128 45.2089 473.734 44.6826 473.244 44.2459C472.757 43.8122 472.177 43.4675 471.521 43.2217C470.235 42.7395 468.677 42.7578 467.394 43.1107C466.755 43.2853 466.183 43.5576 465.691 43.9213C465.195 44.2894 464.796 44.7438 464.507 45.2694C464.211 45.8039 464.061 46.4298 464.061 47.1288C464.061 47.7521 464.146 48.2929 464.312 48.7366C464.484 49.1923 464.735 49.5799 465.059 49.8875C465.367 50.18 465.734 50.4378 466.153 50.6558C466.554 50.8645 466.993 51.0605 467.459 51.2376C468.168 51.5111 468.782 51.7342 469.3 51.9095C469.795 52.0771 470.214 52.2429 470.545 52.4017C470.843 52.5442 471.064 52.6954 471.203 52.8517C471.314 52.9784 471.369 53.1454 471.369 53.3642C471.369 53.9509 471.115 54.1589 470.926 54.2642C470.563 54.4659 470.101 54.5686 469.556 54.5686C468.893 54.5686 468.345 54.4111 467.924 54.101C467.533 53.8123 467.343 53.2961 467.343 52.5227V52.1603H463.604V52.5227C463.604 53.3686 463.766 54.1299 464.083 54.7854C464.4 55.4397 464.836 55.9981 465.378 56.4437C465.913 56.8868 466.534 57.2259 467.219 57.4496C467.898 57.6734 468.626 57.7868 469.385 57.7868C470.129 57.7868 470.851 57.7005 471.526 57.5297C472.21 57.3557 472.821 57.0841 473.339 56.7223C473.869 56.353 474.291 55.8758 474.594 55.3048C474.896 54.7319 475.05 54.0587 475.05 53.3062C475.05 52.6337 474.937 52.0614 474.713 51.6069C474.492 51.1588 474.187 50.768 473.808 50.4472Z" fill="white"/>
</g>
<mask id="mask3_309_7208" style="mask-type:luminance" maskUnits="userSpaceOnUse" x="400" y="35" width="106" height="23">
<path fill-rule="evenodd" clip-rule="evenodd" d="M400.179 57.7867H505.295V35.9197H400.179V57.7867Z" fill="white"/>
</mask>
<g mask="url(#mask3_309_7208)">
<path d="M502.684 43.3813C503.393 43.7355 503.961 44.2246 504.376 44.8347C504.728 45.3805 504.971 45.9888 505.103 46.6506C505.231 47.2903 505.295 48.0952 505.295 49.0425V57.4385H501.471V50.0869C501.471 49.5347 501.425 49.011 501.334 48.5301C501.248 48.075 501.106 47.6817 500.911 47.3634C500.723 47.0558 500.475 46.8157 500.154 46.6316C499.839 46.4508 499.432 46.3594 498.944 46.3594C497.977 46.3594 497.284 46.6922 496.827 47.376C496.348 48.0939 496.104 49.0053 496.104 50.0869V57.4385H492.28V43.1985H496.104V44.6166C496.104 44.6166 497.077 42.8506 500.087 42.8506C501.761 42.8506 502.684 43.3813 502.684 43.3813Z" fill="white"/>
</g>
<mask id="mask4_309_7208" style="mask-type:luminance" maskUnits="userSpaceOnUse" x="400" y="35" width="106" height="23">
<path fill-rule="evenodd" clip-rule="evenodd" d="M400.179 57.7867H505.295V35.9197H400.179V57.7867Z" fill="white"/>
</mask>
<g mask="url(#mask4_309_7208)">
<path fill-rule="evenodd" clip-rule="evenodd" d="M412.813 47.6493C413.221 48.0533 413.57 48.5651 413.855 49.1708C414.142 49.7872 414.288 50.5158 414.288 51.3377C414.288 51.8879 414.198 52.5182 414.02 53.2102C413.837 53.9237 413.487 54.6032 412.982 55.229C412.474 55.8587 411.76 56.3894 410.86 56.806C409.962 57.2213 408.79 57.4319 407.376 57.4319H400.179V36.4246H407.348C408.759 36.4246 409.921 36.6256 410.799 37.0208C411.68 37.4173 412.379 37.9164 412.877 38.5051C413.376 39.0957 413.714 39.7449 413.878 40.435C414.036 41.0981 414.117 41.7114 414.117 42.2585C414.117 42.9392 414.002 43.5657 413.776 44.1184C413.552 44.6649 413.258 45.1477 412.901 45.5523C412.544 45.9563 412.135 46.2923 411.687 46.5513C411.603 46.5998 411.519 46.6458 411.435 46.6887C411.448 46.6947 411.462 46.7008 411.475 46.707C411.489 46.7131 411.502 46.7193 411.515 46.7253C411.97 46.9351 412.406 47.2459 412.813 47.6493ZM410.038 43.3211C409.975 43.5871 409.845 43.8424 409.651 44.0793C409.457 44.3182 409.175 44.5256 408.815 44.6958C408.453 44.8666 407.96 44.9535 407.348 44.9535H404.152V40.1142H407.348C407.959 40.1142 408.453 40.2006 408.815 40.3714C409.174 40.5409 409.454 40.7521 409.648 40.9973C409.843 41.2456 409.974 41.5072 410.038 41.775C410.108 42.0662 410.143 42.3265 410.143 42.5484C410.143 42.7696 410.108 43.0299 410.038 43.3211ZM409.819 52.8882C409.626 53.1327 409.348 53.3376 408.992 53.4976C408.63 53.6609 408.133 53.7428 407.519 53.7428H404.152V48.6426H407.547C408.116 48.6426 408.581 48.7365 408.929 48.9212C409.285 49.1115 409.57 49.3397 409.777 49.6C409.983 49.859 410.124 50.137 410.197 50.4238C410.275 50.7332 410.314 51.0011 410.314 51.2217C410.314 51.4833 410.278 51.7738 410.209 52.0864C410.144 52.3713 410.014 52.6411 409.819 52.8882Z" fill="white"/>
</g>
<mask id="mask5_309_7208" style="mask-type:luminance" maskUnits="userSpaceOnUse" x="400" y="35" width="106" height="23">
<path fill-rule="evenodd" clip-rule="evenodd" d="M400.179 57.7867H505.295V35.9197H400.179V57.7867Z" fill="white"/>
</mask>
<g mask="url(#mask5_309_7208)">
<path fill-rule="evenodd" clip-rule="evenodd" d="M457.638 44.6171V43.199H461.463V50.3187V57.4383H457.638V56.0202C457.263 56.6082 456.571 57.1194 455.737 57.4383C455.167 57.6564 454.532 57.7862 453.885 57.7862C453.082 57.7862 452.322 57.669 451.617 57.4383C451.397 57.3665 451.181 57.2833 450.972 57.19C450.094 56.7948 449.33 56.2439 448.699 55.5525C448.073 54.8655 447.578 54.0613 447.23 53.1625C446.882 52.265 446.706 51.3082 446.706 50.3187C446.706 49.3291 446.882 48.3723 447.23 47.4742C447.578 46.576 448.073 45.7718 448.699 45.0842C449.33 44.3934 450.094 43.8425 450.972 43.4473C451.181 43.3534 451.397 43.2708 451.617 43.199C452.322 42.9683 453.082 42.8511 453.885 42.8511C454.532 42.8511 455.167 42.9803 455.737 43.199C456.571 43.5179 457.263 44.0291 457.638 44.6171ZM456.646 53.0925C456.957 52.7421 457.202 52.3223 457.375 51.8458C457.551 51.3668 457.638 50.8525 457.638 50.3187C457.638 49.7848 457.551 49.2705 457.375 48.7909C457.202 48.3144 456.957 47.8952 456.646 47.5448C456.336 47.1956 455.957 46.912 455.517 46.7021C455.082 46.4935 454.591 46.3882 454.057 46.3882C453.522 46.3882 453.036 46.4935 452.612 46.7015C452.181 46.9107 451.805 47.195 451.495 47.5448C451.186 47.894 450.946 48.3118 450.781 48.7858C450.615 49.2655 450.531 49.781 450.531 50.3187C450.531 50.8563 450.615 51.3719 450.781 51.8515C450.946 52.3255 451.186 52.7427 451.495 53.0925C451.805 53.4423 452.181 53.7266 452.612 53.9358C453.036 54.1432 453.522 54.2491 454.057 54.2491C454.591 54.2491 455.082 54.1432 455.517 53.9352C455.957 53.7247 456.336 53.4417 456.646 53.0925Z" fill="white"/>
</g>
<mask id="mask6_309_7208" style="mask-type:luminance" maskUnits="userSpaceOnUse" x="400" y="35" width="106" height="23">
<path fill-rule="evenodd" clip-rule="evenodd" d="M400.179 57.7867H505.295V35.9197H400.179V57.7867Z" fill="white"/>
</mask>
<g mask="url(#mask6_309_7208)">
<path fill-rule="evenodd" clip-rule="evenodd" d="M434.474 57.4386H430.65V36.4124H434.474V44.6174C434.849 44.0287 435.542 43.5182 436.375 43.1986C436.945 42.9805 437.581 42.8507 438.228 42.8507C439.03 42.8507 439.79 42.9685 440.496 43.1986C440.716 43.2705 440.932 43.3537 441.141 43.4476C442.018 43.8421 442.783 44.393 443.413 45.0844C444.04 45.7714 444.534 46.5763 444.882 47.4744C445.23 48.372 445.407 49.3294 445.407 50.3183C445.407 51.3084 445.23 52.2652 444.882 53.1634C444.534 54.0615 444.04 54.8658 443.413 55.5528C442.783 56.2436 442.018 56.7944 441.141 57.1896C440.932 57.2842 440.716 57.3661 440.496 57.4386C439.79 57.6693 439.03 57.7865 438.228 57.7865C437.581 57.7865 436.945 57.6566 436.375 57.4386C435.542 57.119 434.849 56.6085 434.474 56.0204V57.4386ZM435.467 47.545C435.156 47.8955 434.91 48.3146 434.737 48.7911C434.562 49.2701 434.474 49.785 434.474 50.3183C434.474 50.8527 434.562 51.3664 434.737 51.8461C434.91 52.3226 435.156 52.7423 435.467 53.0921C435.777 53.4413 436.156 53.7249 436.596 53.9355C437.03 54.1435 437.522 54.2487 438.056 54.2487C438.591 54.2487 439.076 54.1434 439.501 53.9361C439.932 53.7268 440.308 53.4426 440.618 53.0921C440.927 52.743 441.167 52.3257 441.331 51.8511C441.497 51.3721 441.582 50.8565 441.582 50.3183C441.582 49.7813 441.497 49.2657 441.331 48.7861C441.167 48.3121 440.927 47.8942 440.618 47.545C440.308 47.1952 439.932 46.911 439.501 46.7017C439.076 46.4937 438.591 46.3885 438.056 46.3885C437.522 46.3885 437.03 46.4937 436.596 46.7023C436.156 46.9122 435.777 47.1959 435.467 47.545Z" fill="white"/>
</g>
<mask id="mask7_309_7208" style="mask-type:luminance" maskUnits="userSpaceOnUse" x="400" y="35" width="106" height="23">
<path fill-rule="evenodd" clip-rule="evenodd" d="M400.179 57.7867H505.295V35.9197H400.179V57.7867Z" fill="white"/>
</mask>
<g mask="url(#mask7_309_7208)">
<path fill-rule="evenodd" clip-rule="evenodd" d="M488.127 44.7079C488.719 45.2896 489.162 45.9892 489.519 46.7525C490.174 48.1492 490.133 50.1283 489.875 51.4973H480.413C480.457 51.9492 480.523 52.248 480.611 52.5297C480.729 52.9053 480.91 53.2369 481.153 53.5173C481.391 53.7921 481.707 54.0134 482.091 54.1754C482.484 54.3399 482.986 54.4237 483.583 54.4237C484.386 54.4237 484.961 54.2768 485.292 53.9888C485.618 53.7052 485.858 53.3604 486.026 52.9759H489.917L489.901 53.0761C489.798 53.6982 489.576 54.3027 489.241 54.8699C488.906 55.4378 488.458 55.9446 487.912 56.3763C487.37 56.8049 486.73 57.1509 486.012 57.4043C485.292 57.6583 484.475 57.7869 483.583 57.7869C482.416 57.7869 481.384 57.5915 480.514 57.2058C479.642 56.8181 478.904 56.2805 478.32 55.6048C477.738 54.933 477.296 54.1281 477.007 53.2142C476.72 52.3129 476.575 51.3391 476.575 50.3187C476.575 49.2768 476.732 48.2904 477.038 47.3872C477.347 46.4765 477.796 45.6754 478.376 45.0047C478.961 44.3291 479.695 43.7952 480.559 43.4177C481.418 43.0414 482.406 42.8511 483.498 42.8511C484.395 42.8511 485.252 43.0162 486.043 43.3414C486.835 43.6679 487.535 44.1268 488.127 44.7079ZM483.411 45.954C482.521 45.954 481.802 46.201 481.217 46.7078C480.719 47.1395 480.445 47.749 480.385 48.6913H486.267C486.208 47.7925 485.952 47.1918 485.489 46.7361C484.955 46.2098 484.274 45.954 483.411 45.954Z" fill="white"/>
</g>
</g>
<path fill-rule="evenodd" clip-rule="evenodd" d="M244.605 6.74023H180.432V26.4059H244.605H244.606L254.306 16.5743V16.5729L244.606 6.74111V6.74023H244.605Z" fill="white"/>
<path fill-rule="evenodd" clip-rule="evenodd" d="M198.384 20.9534H200.264V12.1938H198.384V20.9534Z" fill="black"/>
<path fill-rule="evenodd" clip-rule="evenodd" d="M207.097 20.9686L204.064 17.8947L204.043 17.9162L204.023 17.8957V20.9566H202.144V12.1971H204.023V15.2421L207.046 12.1785H209.704L205.393 16.5471L209.756 20.9686H207.097Z" fill="black"/>
<path fill-rule="evenodd" clip-rule="evenodd" d="M225.755 14.0987H223.263V20.9529H221.383V14.0987H218.853V12.1934H225.755V14.0987Z" fill="black"/>
<path fill-rule="evenodd" clip-rule="evenodd" d="M227.635 20.9534H229.514V12.1938H227.635V20.9534Z" fill="black"/>
<path fill-rule="evenodd" clip-rule="evenodd" d="M237.335 14.0987H233.294V15.5541H237.335V17.4595H233.294V19.0484H237.335V20.9529H231.394V12.1934H237.335V14.0987Z" fill="black"/>
<path fill-rule="evenodd" clip-rule="evenodd" d="M192.242 14.1604C190.927 14.1604 189.862 15.2406 189.862 16.5735C189.862 17.9062 190.927 18.9865 192.242 18.9865C193.557 18.9865 194.623 17.9062 194.623 16.5735C194.623 15.2406 193.557 14.1604 192.242 14.1604ZM192.242 20.9742C189.844 20.9742 187.9 19.0038 187.9 16.5732C187.9 14.1425 189.844 12.1721 192.242 12.1721C194.641 12.1721 196.585 14.1425 196.585 16.5732C196.585 19.0038 194.641 20.9742 192.242 20.9742Z" fill="black"/>
<path fill-rule="evenodd" clip-rule="evenodd" d="M213.861 14.1604C212.546 14.1604 211.48 15.2406 211.48 16.5735C211.48 17.9062 212.546 18.9865 213.861 18.9865C215.176 18.9865 216.242 17.9062 216.242 16.5735C216.242 15.2406 215.176 14.1604 213.861 14.1604ZM213.861 20.9742C211.463 20.9742 209.518 19.0038 209.518 16.5732C209.518 14.1425 211.463 12.1721 213.861 12.1721C216.259 12.1721 218.203 14.1425 218.203 16.5732C218.203 19.0038 216.259 20.9742 213.861 20.9742Z" fill="black"/>
<path fill-rule="evenodd" clip-rule="evenodd" d="M61.4091 107.165H67.3535V85.1588H61.4091V107.165Z" fill="white"/>
<path fill-rule="evenodd" clip-rule="evenodd" d="M77.5437 95.511C75.7846 95.511 75.0568 96.9059 75.0568 98.7033C75.0568 100.501 75.7846 101.958 77.5437 101.958C79.3028 101.958 80.0306 100.501 80.0306 98.7033C80.0306 96.9059 79.3028 95.511 77.5437 95.511ZM77.5437 107.475C71.9026 107.475 68.9304 104.468 68.9304 98.7033C68.9304 92.9385 71.9026 89.9941 77.5437 89.9941C83.1848 89.9941 86.157 92.9385 86.157 98.7033C86.157 104.468 83.1848 107.475 77.5437 107.475Z" fill="white"/>
<path fill-rule="evenodd" clip-rule="evenodd" d="M100.411 101.09V106.607C99.1374 107.165 97.4999 107.475 96.2262 107.475C90.7061 107.475 87.4915 104.344 87.4915 98.7035C87.4915 93.0623 90.7061 89.994 96.2262 89.994C97.4999 89.994 99.1374 90.3037 100.411 90.8618V96.379C99.3498 95.883 98.0154 95.511 96.9539 95.511C94.831 95.511 93.6179 96.6889 93.6179 98.7035C93.6179 100.718 94.831 101.958 96.9539 101.958C98.0154 101.958 99.3498 101.586 100.411 101.09Z" fill="white"/>
<path fill-rule="evenodd" clip-rule="evenodd" d="M113.574 97.6804L119.427 107.165H112.361L108.054 99.6333V107.165H102.11V85.1588H108.054V95.821L112.179 90.3037H119.427L113.574 97.6804Z" fill="white"/>
<path fill-rule="evenodd" clip-rule="evenodd" d="M128.253 96.6579C128.253 95.3559 127.616 94.3951 126.221 94.3951C124.826 94.3951 124.189 95.3559 124.189 96.6579H128.253ZM133.954 100.067H124.189C124.371 101.803 126.008 102.516 128.223 102.516C129.951 102.516 132.226 102.051 133.954 101.307V106.173C131.892 107.103 129.496 107.475 127.191 107.475C121.004 107.475 118.123 104.468 118.123 98.7033C118.123 93.0003 121.186 89.9941 126.403 89.9941C131.316 89.9941 133.954 93.3102 133.954 98.3317V100.067Z" fill="white"/>
<path fill-rule="evenodd" clip-rule="evenodd" d="M141.355 95.6969V98.5175C141.355 100.997 142.932 101.834 145.297 101.834H145.6V107.227C145.054 107.32 144.448 107.382 143.902 107.382C138.322 107.382 135.41 104.344 135.41 98.6416V85.9648H141.355V90.3038H145.6V95.6969H141.355Z" fill="white"/>
<path fill-rule="evenodd" clip-rule="evenodd" d="M50.582 95.3871C50.2485 95.3871 49.824 95.4488 49.5508 95.5108V101.896H50.6427C52.6444 101.896 53.706 100.625 53.706 98.5794C53.706 96.5337 52.5837 95.3871 50.582 95.3871ZM50.9157 107.165H43.6064V85.1587H49.5508V90.2108C50.127 90.087 50.8549 89.9939 51.4918 89.9939C56.7083 89.9939 59.832 92.9384 59.832 98.5794C59.832 104.282 56.496 107.165 50.9157 107.165Z" fill="white"/>
<path fill-rule="evenodd" clip-rule="evenodd" d="M170.046 176.014H121.661C120.22 176.014 119.048 177.208 119.048 178.674V186.332C116.126 180.229 109.971 176.014 102.866 176.014H95.7537C94.3129 176.014 93.1409 177.208 93.1409 178.674V201.571C93.1409 203.037 94.3129 204.23 95.7537 204.23H170.046C171.487 204.23 172.659 203.037 172.659 201.571V178.674C172.659 177.208 171.487 176.014 170.046 176.014ZM94.9493 201.571V178.674C94.9493 178.223 95.3102 177.855 95.7538 177.855H102.866C111.789 177.855 119.048 185.246 119.048 194.329V202.389H95.7538C95.3102 202.389 94.9493 202.022 94.9493 201.571ZM170.046 202.389C170.489 202.389 170.85 202.022 170.85 201.571V178.674C170.85 178.223 170.489 177.855 170.046 177.855H121.661C121.217 177.855 120.856 178.223 120.856 178.674V202.389H170.046Z" fill="white"/>
<path fill-rule="evenodd" clip-rule="evenodd" d="M129.017 185.339H135.532C135.815 185.339 136.045 185.573 136.045 185.861V187.497C136.045 187.786 135.815 188.019 135.532 188.019H131.354V190.179H134.681C134.964 190.179 135.193 190.412 135.193 190.701V192.094C135.193 192.382 134.964 192.616 134.681 192.616H131.354V194.384C131.354 194.672 131.124 194.906 130.841 194.906H129.017C128.733 194.906 128.504 194.672 128.504 194.384V185.861C128.504 185.573 128.733 185.339 129.017 185.339ZM138.883 185.339H140.708C140.991 185.339 141.22 185.573 141.22 185.861V194.384C141.22 194.672 140.991 194.906 140.708 194.906H138.883C138.6 194.906 138.37 194.672 138.37 194.384V185.861C138.37 185.573 138.6 185.339 138.883 185.339ZM162.69 185.339H160.865C160.582 185.339 160.353 185.573 160.353 185.861V190.04L157.499 185.651C157.372 185.456 157.158 185.339 156.929 185.339H155.527C155.244 185.339 155.014 185.573 155.014 185.861V194.384C155.014 194.672 155.244 194.906 155.527 194.906H157.352C157.635 194.906 157.865 194.672 157.865 194.384V190.253L160.656 194.591C160.782 194.788 160.997 194.906 161.227 194.906H162.69C162.973 194.906 163.203 194.672 163.203 194.384V185.861C163.203 185.573 162.973 185.339 162.69 185.339ZM149.874 185.339H151.699C151.982 185.339 152.211 185.573 152.211 185.861V194.384C152.211 194.672 151.982 194.906 151.699 194.906H150.236C150.006 194.906 149.791 194.788 149.665 194.591L146.873 190.253V194.384C146.873 194.672 146.644 194.906 146.361 194.906H144.536C144.253 194.906 144.023 194.672 144.023 194.384V185.861C144.023 185.573 144.253 185.339 144.536 185.339H145.938C146.167 185.339 146.381 185.456 146.508 185.651L149.361 190.04V185.861C149.361 185.573 149.591 185.339 149.874 185.339Z" fill="white"/>
<path fill-rule="evenodd" clip-rule="evenodd" d="M346 201.674C345.981 203.527 344.468 205.016 342.617 205.005C340.765 204.994 339.27 203.487 339.273 201.634C339.276 199.781 340.775 198.279 342.627 198.273C343.528 198.266 344.394 198.623 345.028 199.263C345.663 199.903 346.013 200.772 346 201.674ZM314.173 207.377C308.546 207.377 304.396 211.462 304.396 216.933C304.396 222.404 308.546 226.489 314.173 226.489C319.819 226.489 323.989 222.404 323.989 216.933C323.989 211.462 319.819 207.377 314.173 207.377V207.377ZM314.173 211.93C316.921 211.93 318.997 213.991 318.997 216.933C318.997 219.874 316.921 221.935 314.173 221.935C311.425 221.935 309.369 219.874 309.369 216.933C309.369 213.991 311.425 211.93 314.173 211.93V211.93ZM335.576 207.377C333.351 207.377 331.613 208.145 330.472 209.85V207.864H325.742V226.02H330.622V216.127C330.622 213.429 332.725 212.211 335.236 212.211C337.334 212.211 338.119 212.623 338.119 212.623V207.864C337.312 207.532 336.448 207.366 335.576 207.377V207.377ZM345.095 207.864H340.215V226.02H345.095V207.864ZM303.089 207.864H296.527V202.973H291.647V207.864H288.151V212.21H291.647V219.237C291.647 223.94 293.947 226.488 298.434 226.488C300.631 226.5 302.775 225.803 304.546 224.501L302.499 220.839C301.508 221.439 300.397 221.935 299.238 221.935C297.723 221.935 296.527 221.11 296.527 218.843V212.21H303.089L303.089 207.864Z" fill="white"/>
<defs>
<filter id="filter0_i_309_7208" x="217.177" y="37.5066" width="151.95" height="152.95" filterUnits="userSpaceOnUse" color-interpolation-filters="sRGB">
<feFlood flood-opacity="0" result="BackgroundImageFix"/>
<feBlend mode="normal" in="SourceGraphic" in2="BackgroundImageFix" result="shape"/>
<feColorMatrix in="SourceAlpha" type="matrix" values="0 0 0 0 0 0 0 0 0 0 0 0 0 0 0 0 0 0 127 0" result="hardAlpha"/>
<feOffset dx="16" dy="17"/>
<feGaussianBlur stdDeviation="22"/>
<feComposite in2="hardAlpha" operator="arithmetic" k2="-1" k3="1"/>
<feColorMatrix type="matrix" values="0 0 0 0 1 0 0 0 0 1 0 0 0 0 1 0 0 0 0.07 0"/>
<feBlend mode="normal" in2="shape" result="effect1_innerShadow_309_7208"/>
</filter>
<linearGradient id="paint0_linear_309_7208" x1="311.942" y1="168.499" x2="252.071" y2="47.6123" gradientUnits="userSpaceOnUse">
<stop stop-color="#0F1625"/>
<stop offset="0.355064" stop-color="#131B2D"/>
<stop offset="1" stop-color="#24314D"/>
</linearGradient>
<linearGradient id="paint1_linear_309_7208" x1="250.575" y1="62.9663" x2="257.53" y2="71.4663" gradientUnits="userSpaceOnUse">
<stop stop-color="#1A2334"/>
<stop offset="1" stop-color="#24314D"/>
</linearGradient>
<linearGradient id="paint2_linear_309_7208" x1="289.974" y1="52.6905" x2="300.722" y2="65.8268" gradientUnits="userSpaceOnUse">
<stop stop-color="#1A2334"/>
<stop offset="1" stop-color="#24314D"/>
</linearGradient>
<linearGradient id="paint3_linear_309_7208" x1="239.139" y1="92.0513" x2="255.83" y2="112.451" gradientUnits="userSpaceOnUse">
<stop stop-color="#1A2334"/>
<stop offset="1" stop-color="#24314D"/>
</linearGradient>
<clipPath id="clip0_309_7208">
<rect width="64.1757" height="24.7959" fill="white" transform="translate(413.834 125.593)"/>
</clipPath>
<clipPath id="clip1_309_7208">
<rect width="105.139" height="21.8699" fill="white" transform="translate(400.179 35.9167)"/>
</clipPath>
</defs>
</svg>
