<svg role="img" aria-Labeledby="cssClassCard" width="271" height="150" viewBox="0 0 271 150" fill="none" xmlns="http://www.w3.org/2000/svg">
<title id="cssClassCard">A paper with two curly braces.</title>
<g filter="url(#filter0_d_491_29149)">
<path d="M108.88 46.5559H155.102L162.213 54.2596V104.63H108.88V46.5559Z" fill="white"/>
<path d="M111.25 107.008C107.941 107.008 105.25 104.318 105.25 101.008V49.0083C105.25 45.699 107.941 43.0083 111.25 43.0083H151.37C152.946 43.0083 154.434 43.6163 155.562 44.715L163.442 52.4003C164.594 53.5256 165.253 55.091 165.25 56.6963V101.006C165.25 104.315 162.559 107.006 159.25 107.006L111.25 107.008ZM111.25 47.0083C110.146 47.0083 109.25 47.9043 109.25 49.0083V101.008C109.25 102.112 110.146 103.008 111.25 103.008H159.25C160.354 103.008 161.25 102.112 161.25 101.008V56.6963C161.25 56.1603 161.031 55.6376 160.647 55.2616L152.77 47.579C152.394 47.211 151.895 47.0083 151.37 47.0083H111.25Z" fill="var(--vp-c-svg2)"/>
</g>
<path d="M128.991 91.1578C126.01 91.1578 123.493 88.8298 123.255 85.8592C123.253 85.8112 123.25 85.7578 123.25 85.7018V82.3738C123.237 81.9392 122.954 81.4965 122.533 81.2725L118.253 78.8138C117.634 78.4592 117.25 77.7925 117.25 77.0805C117.25 76.3658 117.634 75.7018 118.253 75.3472L122.471 72.9205C122.957 72.6618 123.237 72.2245 123.25 71.7312V68.4618C123.25 68.4058 123.253 68.3498 123.258 68.2965C123.493 65.3285 126.015 63.0005 128.999 63.0005C129.114 63.0005 129.226 63.0032 129.341 63.0112L131.25 63.0085C132.354 63.0085 133.25 63.9045 133.25 65.0085C133.25 66.1125 132.354 67.0085 131.25 67.0085H129.25C129.205 67.0085 129.034 67.0005 128.994 67.0005C128.111 67.0005 127.351 67.6778 127.25 68.5552V71.7845C127.197 73.7525 126.106 75.5205 124.405 76.4218L123.263 77.0805L124.466 77.7712C126.119 78.6458 127.197 80.3952 127.25 82.3178V85.6085C127.351 86.4805 128.117 87.1578 129.007 87.1578C129.045 87.1578 129.199 87.1498 129.25 87.1498H131.25C132.354 87.1498 133.25 88.0458 133.25 89.1498C133.25 90.2538 132.354 91.1498 131.25 91.1498H129.282C129.226 91.1552 129.109 91.1578 128.991 91.1578Z" fill="var(--vp-c-svg2)"/>
<path d="M141.509 91.1575C141.391 91.1575 141.277 91.1549 141.159 91.1469L139.25 91.1495C138.146 91.1495 137.25 90.2535 137.25 89.1495C137.25 88.0455 138.146 87.1495 139.25 87.1495H141.25C141.301 87.1495 141.351 87.1522 141.405 87.1549C141.423 87.1549 141.463 87.1575 141.501 87.1575C142.402 87.1575 143.146 86.4935 143.25 85.6055V82.3709C143.303 80.4029 144.394 78.6375 146.093 77.7335L147.237 77.0749L146.034 76.3815C144.381 75.5069 143.303 73.7575 143.253 71.8322V68.5469C143.151 67.6722 142.397 66.9922 141.517 66.9922C141.477 66.9922 141.298 67.0029 141.253 67.0029H139.25C138.146 67.0029 137.25 66.1069 137.25 65.0029C137.25 63.8989 138.146 63.0029 139.25 63.0029H141.218C141.277 62.9975 141.397 62.9922 141.517 62.9922C144.495 62.9922 147.01 65.3229 147.245 68.2962C147.25 68.3522 147.25 68.4029 147.25 68.4535V71.7789C147.263 72.2135 147.543 72.6562 147.967 72.8802L152.247 75.3415C152.866 75.6989 153.25 76.3629 153.25 77.0749C153.25 77.7895 152.866 78.4535 152.247 78.8082L148.029 81.2322C147.543 81.4909 147.263 81.9282 147.25 82.4242V85.6962C147.25 85.7469 147.247 85.7975 147.245 85.8482C147.007 88.8295 144.487 91.1575 141.509 91.1575Z" fill="var(--vp-c-svg2)"/>
<defs>
<filter id="filter0_d_491_29149" x="101.791" y="40.4137" width="66.9189" height="70.9189" filterUnits="userSpaceOnUse" color-interpolation-filters="sRGB">
<feFlood flood-opacity="0" result="BackgroundImageFix"/>
<feColorMatrix in="SourceAlpha" type="matrix" values="0 0 0 0 0 0 0 0 0 0 0 0 0 0 0 0 0 0 127 0" result="hardAlpha"/>
<feOffset dy="0.864865"/>
<feGaussianBlur stdDeviation="1.72973"/>
<feComposite in2="hardAlpha" operator="out"/>
<feColorMatrix type="matrix" values="0 0 0 0 0 0 0 0 0 0 0 0 0 0 0 0 0 0 0.26 0"/>
<feBlend mode="normal" in2="BackgroundImageFix" result="effect1_dropShadow_491_29149"/>
<feBlend mode="normal" in="SourceGraphic" in2="effect1_dropShadow_491_29149" result="shape"/>
</filter>
</defs>
</svg>
