<svg role="img" aria-labeledby="iconsCard" width="271" height="150" viewBox="0 0 271 150" fill="none" xmlns="http://www.w3.org/2000/svg">
<title id="iconsCard">Three talk bubbles that are smiling and have closed eyes</title>
<g clip-path="url(#clip0_491_29167)">
<path d="M87.25 83C87.1727 83 87.0953 82.982 87.026 82.9473C86.856 82.862 86.75 82.6907 86.75 82.5V80H85.25C84.4227 80 83.75 79.3273 83.75 78.5V68.5C83.75 67.6727 84.4227 67 85.25 67H98.25C99.0773 67 99.75 67.6727 99.75 68.5V78.5C99.75 79.3273 99.0773 80 98.25 80H91.4167L87.55 82.9C87.464 82.9647 87.3573 83 87.25 83ZM85.25 68C84.974 68 84.75 68.224 84.75 68.5V78.5C84.75 78.776 84.974 79 85.25 79H87.25C87.526 79 87.75 79.224 87.75 79.5V81.5L90.95 79.1C91.036 79.0353 91.1427 79 91.25 79H98.25C98.526 79 98.75 78.776 98.75 78.5V68.5C98.75 68.224 98.526 68 98.25 68H85.25Z" fill="var(--vp-c-svg2,#131B2D)"/>
<path d="M90.172 72.3335C89.98 72.3335 89.808 72.2262 89.7234 72.0542C89.6067 71.8168 89.4047 71.6388 89.154 71.5535C89.05 71.5182 88.942 71.5002 88.8334 71.5002C88.682 71.5002 88.536 71.5348 88.398 71.6022C88.2027 71.6982 88.042 71.8582 87.946 72.0542C87.8614 72.2262 87.6894 72.3335 87.4974 72.3335C87.4214 72.3335 87.3454 72.3162 87.2767 72.2822C87.0294 72.1608 86.9274 71.8608 87.0487 71.6128C87.242 71.2195 87.5647 70.8968 87.9574 70.7042C88.234 70.5682 88.5287 70.4995 88.8334 70.4995C89.052 70.4995 89.2687 70.5355 89.4774 70.6068C89.9807 70.7782 90.3867 71.1355 90.6207 71.6128C90.742 71.8602 90.64 72.1602 90.3927 72.2822C90.3247 72.3162 90.248 72.3335 90.172 72.3335Z" fill="var(--vp-c-svg2,#131B2D)"/>
<path d="M93.4933 72.3335C93.4173 72.3335 93.3406 72.3155 93.2726 72.2822C93.1533 72.2235 93.0633 72.1215 93.02 71.9948C92.9766 71.8682 92.9853 71.7328 93.0446 71.6128C93.238 71.2195 93.5606 70.8975 93.9533 70.7042C94.23 70.5682 94.5246 70.4995 94.8293 70.4995C95.048 70.4995 95.2646 70.5355 95.4733 70.6068C95.9766 70.7782 96.3826 71.1355 96.6166 71.6128C96.6753 71.7328 96.684 71.8682 96.6413 71.9948C96.598 72.1215 96.5086 72.2235 96.3886 72.2822C96.32 72.3162 96.244 72.3335 96.168 72.3335C95.976 72.3335 95.804 72.2262 95.7193 72.0535C95.6026 71.8168 95.4006 71.6388 95.15 71.5535C95.046 71.5182 94.938 71.5002 94.8293 71.5002C94.678 71.5002 94.5313 71.5348 94.3933 71.6022C94.198 71.6982 94.0373 71.8588 93.9413 72.0542C93.8573 72.2268 93.6853 72.3335 93.4933 72.3335Z" fill="var(--vp-c-svg2,#131B2D)"/>
<path d="M91.8327 77.0067C90.7554 77.0067 89.7187 76.6027 88.9147 75.8693C88.7114 75.6833 88.6967 75.3667 88.882 75.1633C88.9767 75.0593 89.1114 75 89.2514 75C89.3767 75 89.496 75.0467 89.588 75.1307C90.2067 75.6953 91.004 76.006 91.8327 76.006C92.6614 76.006 93.458 75.6947 94.0774 75.1307C94.1694 75.0467 94.2887 75 94.414 75C94.554 75 94.6887 75.0593 94.7834 75.1633C94.8734 75.262 94.92 75.39 94.9134 75.5233C94.9074 75.6567 94.8494 75.78 94.7507 75.87C93.9467 76.6027 92.91 77.0067 91.8327 77.0067Z" fill="var(--vp-c-svg2,#131B2D)"/>
</g>
<g clip-path="url(#clip1_491_29167)">
<path d="M121 87C120.884 87 120.768 86.973 120.664 86.921C120.409 86.793 120.25 86.536 120.25 86.25V82.5H118C116.759 82.5 115.75 81.491 115.75 80.25V65.25C115.75 64.009 116.759 63 118 63H137.5C138.741 63 139.75 64.009 139.75 65.25V80.25C139.75 81.491 138.741 82.5 137.5 82.5H127.25L121.45 86.85C121.321 86.947 121.161 87 121 87ZM118 64.5C117.586 64.5 117.25 64.836 117.25 65.25V80.25C117.25 80.664 117.586 81 118 81H121C121.414 81 121.75 81.336 121.75 81.75V84.75L126.55 81.15C126.679 81.053 126.839 81 127 81H137.5C137.914 81 138.25 80.664 138.25 80.25V65.25C138.25 64.836 137.914 64.5 137.5 64.5H118Z" fill="var(--vp-c-svg2,#131B2D)"/>
<path d="M125.383 71C125.095 71 124.837 70.839 124.71 70.581C124.535 70.225 124.232 69.958 123.856 69.83C123.7 69.777 123.538 69.75 123.375 69.75C123.148 69.75 122.929 69.802 122.722 69.903C122.429 70.047 122.188 70.287 122.044 70.581C121.917 70.839 121.659 71 121.371 71C121.257 71 121.143 70.974 121.04 70.923C120.669 70.741 120.516 70.291 120.698 69.919C120.988 69.329 121.472 68.845 122.061 68.556C122.476 68.352 122.918 68.249 123.375 68.249C123.703 68.249 124.028 68.303 124.341 68.41C125.096 68.667 125.705 69.203 126.056 69.919C126.238 70.29 126.085 70.74 125.714 70.923C125.612 70.974 125.497 71 125.383 71Z" fill="var(--vp-c-svg2,#131B2D)"/>
<path d="M130.365 71C130.251 71 130.136 70.973 130.034 70.923C129.855 70.835 129.72 70.682 129.655 70.492C129.59 70.302 129.603 70.099 129.692 69.919C129.982 69.329 130.466 68.846 131.055 68.556C131.47 68.352 131.912 68.249 132.369 68.249C132.697 68.249 133.022 68.303 133.335 68.41C134.09 68.667 134.699 69.203 135.05 69.919C135.138 70.099 135.151 70.302 135.087 70.492C135.022 70.682 134.888 70.835 134.708 70.923C134.605 70.974 134.491 71 134.377 71C134.089 71 133.831 70.839 133.704 70.58C133.529 70.225 133.226 69.958 132.85 69.83C132.694 69.777 132.532 69.75 132.369 69.75C132.142 69.75 131.922 69.802 131.715 69.903C131.422 70.047 131.181 70.288 131.037 70.581C130.911 70.84 130.653 71 130.365 71Z" fill="var(--vp-c-svg2,#131B2D)"/>
<path d="M127.874 78.01C126.258 78.01 124.703 77.404 123.497 76.304C123.192 76.025 123.17 75.55 123.448 75.245C123.59 75.089 123.792 75 124.002 75C124.19 75 124.369 75.07 124.507 75.196C125.435 76.043 126.631 76.509 127.874 76.509C129.117 76.509 130.312 76.042 131.241 75.196C131.379 75.07 131.558 75 131.746 75C131.956 75 132.158 75.089 132.3 75.245C132.435 75.393 132.505 75.585 132.495 75.785C132.486 75.985 132.399 76.17 132.251 76.305C131.045 77.404 129.49 78.01 127.874 78.01Z" fill="var(--vp-c-svg2,#131B2D)"/>
</g>
<g clip-path="url(#clip2_491_29167)">
<path d="M162.75 91C162.595 91 162.441 90.964 162.302 90.8947C161.962 90.724 161.75 90.3813 161.75 90V85H158.75C157.095 85 155.75 83.6547 155.75 82V62C155.75 60.3453 157.095 59 158.75 59H184.75C186.405 59 187.75 60.3453 187.75 62V82C187.75 83.6547 186.405 85 184.75 85H171.083L163.35 90.8C163.178 90.9293 162.965 91 162.75 91ZM158.75 61C158.198 61 157.75 61.448 157.75 62V82C157.75 82.552 158.198 83 158.75 83H162.75C163.302 83 163.75 83.448 163.75 84V88L170.15 83.2C170.322 83.0707 170.535 83 170.75 83H184.75C185.302 83 185.75 82.552 185.75 82V62C185.75 61.448 185.302 61 184.75 61H158.75Z" fill="var(--vp-c-svg2,#131B2D)"/>
<path d="M168.594 69.6665C168.21 69.6665 167.866 69.4519 167.697 69.1079C167.463 68.6332 167.059 68.2772 166.558 68.1065C166.35 68.0359 166.134 67.9999 165.917 67.9999C165.614 67.9999 165.322 68.0692 165.046 68.2039C164.655 68.3959 164.334 68.7159 164.142 69.1079C163.973 69.4519 163.629 69.6665 163.245 69.6665C163.093 69.6665 162.941 69.6319 162.803 69.5639C162.309 69.3212 162.105 68.7212 162.347 68.2252C162.734 67.4385 163.379 66.7932 164.165 66.4079C164.718 66.1359 165.307 65.9985 165.917 65.9985C166.354 65.9985 166.787 66.0705 167.205 66.2132C168.211 66.5559 169.023 67.2705 169.491 68.2252C169.734 68.7199 169.53 69.3199 169.035 69.5639C168.899 69.6319 168.746 69.6665 168.594 69.6665Z" fill="var(--vp-c-svg2,#131B2D)"/>
<path d="M175.237 69.6665C175.085 69.6665 174.931 69.6305 174.795 69.5639C174.557 69.4465 174.377 69.2425 174.29 68.9892C174.203 68.7359 174.221 68.4652 174.339 68.2252C174.726 67.4385 175.371 66.7945 176.157 66.4079C176.71 66.1359 177.299 65.9985 177.909 65.9985C178.346 65.9985 178.779 66.0705 179.197 66.2132C180.203 66.5559 181.015 67.2705 181.483 68.2252C181.601 68.4652 181.618 68.7359 181.533 68.9892C181.446 69.2425 181.267 69.4465 181.027 69.5639C180.89 69.6319 180.738 69.6665 180.586 69.6665C180.202 69.6665 179.858 69.4519 179.689 69.1065C179.455 68.6332 179.051 68.2772 178.55 68.1065C178.342 68.0359 178.126 67.9999 177.909 67.9999C177.606 67.9999 177.313 68.0692 177.037 68.2039C176.646 68.3959 176.325 68.7172 176.133 69.1079C175.965 69.4532 175.621 69.6665 175.237 69.6665Z" fill="var(--vp-c-svg2,#131B2D)"/>
<path d="M171.915 79.0133C169.761 79.0133 167.687 78.2053 166.079 76.7387C165.673 76.3667 165.643 75.7333 166.014 75.3267C166.203 75.1187 166.473 75 166.753 75C167.003 75 167.242 75.0933 167.426 75.2613C168.663 76.3907 170.258 77.012 171.915 77.012C173.573 77.012 175.166 76.3893 176.405 75.2613C176.589 75.0933 176.827 75 177.078 75C177.358 75 177.627 75.1187 177.817 75.3267C177.997 75.524 178.09 75.78 178.077 76.0467C178.065 76.3133 177.949 76.56 177.751 76.74C176.143 78.2053 174.07 79.0133 171.915 79.0133Z" fill="var(--vp-c-svg2,#131B2D)"/>
</g>
<defs>
<clipPath id="clip0_491_29167">
<rect width="16" height="16" fill="white" transform="translate(83.75 67)"/>
</clipPath>
<clipPath id="clip1_491_29167">
<rect width="24" height="24" fill="white" transform="translate(115.75 63)"/>
</clipPath>
<clipPath id="clip2_491_29167">
<rect width="32" height="32" fill="white" transform="translate(155.75 59)"/>
</clipPath>
</defs>
</svg>
