<svg width="1440" height="104" viewBox="0 0 1440 104" fill="none" xmlns="http://www.w3.org/2000/svg">
<g opacity="0.4">
<path d="M139.262 0.103964C139.262 0.405511 139.018 0.649962 138.716 0.649962C138.415 0.649962 138.171 0.405511 138.171 0.103964C138.171 -0.197582 138.415 -0.442034 138.716 -0.442034C139.018 -0.442034 139.262 -0.197582 139.262 0.103964Z" fill="#67738D"/>
<path d="M251.954 -12.454C251.954 -12.1525 251.71 -11.908 251.409 -11.908C251.107 -11.908 250.863 -12.1525 250.863 -12.454C250.863 -12.7555 251.107 -13 251.409 -13C251.71 -13 251.954 -12.7555 251.954 -12.454Z" fill="#D4D9E3"/>
<path d="M25.4782 -3.71803C25.4782 -3.41648 25.2338 -3.17203 24.9324 -3.17203C24.631 -3.17203 24.3867 -3.41648 24.3867 -3.71803C24.3867 -4.01957 24.631 -4.26402 24.9324 -4.26402C25.2338 -4.26402 25.4782 -4.01957 25.4782 -3.71803Z" fill="#67738D"/>
<path d="M39.1213 78.1818C39.1213 78.4833 38.877 78.7278 38.5756 78.7278C38.2742 78.7278 38.0299 78.4833 38.0299 78.1818C38.0299 77.8802 38.2742 77.6357 38.5756 77.6357C38.877 77.6357 39.1213 77.8802 39.1213 78.1818Z" fill="#67738D"/>
<path d="M39.1213 171.001C39.1213 171.303 38.877 171.548 38.5756 171.548C38.2742 171.548 38.0299 171.303 38.0299 171.001C38.0299 170.7 38.2742 170.456 38.5756 170.456C38.877 170.456 39.1213 170.7 39.1213 171.001Z" fill="#D4D9E3"/>
<path d="M116.614 394.861C116.614 395.162 116.37 395.407 116.069 395.407C115.767 395.407 115.523 395.162 115.523 394.861C115.523 394.559 115.767 394.315 116.069 394.315C116.37 394.315 116.614 394.559 116.614 394.861Z" fill="#D4D9E3"/>
<path d="M514.449 191.749C514.449 192.051 514.204 192.295 513.903 192.295C513.602 192.295 513.357 192.051 513.357 191.749C513.357 191.448 513.602 191.203 513.903 191.203C514.204 191.203 514.449 191.448 514.449 191.749Z" fill="#D4D9E3"/>
<path d="M579.936 109.031C579.936 109.332 579.691 109.577 579.39 109.577C579.089 109.577 578.844 109.332 578.844 109.031C578.844 108.729 579.089 108.485 579.39 108.485C579.691 108.485 579.936 108.729 579.936 109.031Z" fill="#D4D9E3"/>
<path d="M441.867 47.8788C441.867 48.1804 441.623 48.4248 441.321 48.4248C441.02 48.4248 440.776 48.1804 440.776 47.8788C440.776 47.5773 441.02 47.3328 441.321 47.3328C441.623 47.3328 441.867 47.5773 441.867 47.8788Z" fill="#D4D9E3"/>
<path d="M695.357 101.66C695.357 101.961 695.112 102.206 694.811 102.206C694.51 102.206 694.265 101.961 694.265 101.66C694.265 101.358 694.51 101.114 694.811 101.114C695.112 101.114 695.357 101.358 695.357 101.66Z" fill="#67738D"/>
<path d="M863.168 24.4009C863.168 24.7024 862.923 24.9469 862.622 24.9469C862.32 24.9469 862.076 24.7024 862.076 24.4009C862.076 24.0993 862.32 23.8549 862.622 23.8549C862.923 23.8549 863.168 24.0993 863.168 24.4009Z" fill="#D4D9E3"/>
<path d="M927.563 202.942C927.563 203.244 927.319 203.488 927.018 203.488C926.716 203.488 926.472 203.244 926.472 202.942C926.472 202.641 926.716 202.396 927.018 202.396C927.319 202.396 927.563 202.641 927.563 202.942Z" fill="#67738D"/>
<path d="M1013.79 350.089C1013.79 350.391 1013.54 350.635 1013.24 350.635C1012.94 350.635 1012.7 350.391 1012.7 350.089C1012.7 349.787 1012.94 349.543 1013.24 349.543C1013.54 349.543 1013.79 349.787 1013.79 350.089Z" fill="#D4D9E3"/>
<path d="M987.047 502.15C987.047 502.451 986.803 502.696 986.502 502.696C986.2 502.696 985.956 502.451 985.956 502.15C985.956 501.848 986.2 501.604 986.502 501.604C986.803 501.604 987.047 501.848 987.047 502.15Z" fill="#D4D9E3"/>
<path d="M820.055 469.663C820.055 469.964 819.811 470.209 819.51 470.209C819.208 470.209 818.964 469.964 818.964 469.663C818.964 469.361 819.208 469.117 819.51 469.117C819.811 469.117 820.055 469.361 820.055 469.663Z" fill="#D4D9E3"/>
<path d="M615.408 422.161C615.408 422.462 615.164 422.707 614.862 422.707C614.561 422.707 614.317 422.462 614.317 422.161C614.317 421.859 614.561 421.615 614.862 421.615C615.164 421.615 615.408 421.859 615.408 422.161Z" fill="#D4D9E3"/>
<path d="M473.519 516.619C473.519 516.92 473.275 517.165 472.973 517.165C472.672 517.165 472.428 516.92 472.428 516.619C472.428 516.317 472.672 516.073 472.973 516.073C473.275 516.073 473.519 516.317 473.519 516.619Z" fill="#D4D9E3"/>
<path d="M372.56 572.31C372.56 572.612 372.316 572.856 372.014 572.856C371.713 572.856 371.468 572.612 371.468 572.31C371.468 572.009 371.713 571.764 372.014 571.764C372.316 571.764 372.56 572.009 372.56 572.31Z" fill="#D4D9E3"/>
<path d="M564.383 646.02C564.383 646.322 564.138 646.566 563.837 646.566C563.535 646.566 563.291 646.322 563.291 646.02C563.291 645.719 563.535 645.474 563.837 645.474C564.138 645.474 564.383 645.719 564.383 646.02Z" fill="#D4D9E3"/>
<path d="M660.158 587.052C660.158 587.354 659.913 587.598 659.612 587.598C659.31 587.598 659.066 587.354 659.066 587.052C659.066 586.751 659.31 586.506 659.612 586.506C659.913 586.506 660.158 586.751 660.158 587.052Z" fill="#67738D"/>
<path d="M489.345 377.389C489.345 377.69 489.101 377.935 488.8 377.935C488.498 377.935 488.254 377.69 488.254 377.389C488.254 377.087 488.498 376.843 488.8 376.843C489.101 376.843 489.345 377.087 489.345 377.389Z" fill="#D4D9E3"/>
<path d="M599.582 336.439C599.582 336.741 599.338 336.985 599.036 336.985C598.735 336.985 598.49 336.741 598.49 336.439C598.49 336.138 598.735 335.893 599.036 335.893C599.338 335.893 599.582 336.138 599.582 336.439Z" fill="#D4D9E3"/>
<path d="M569.021 255.631C569.021 255.933 568.777 256.177 568.476 256.177C568.174 256.177 567.93 255.933 567.93 255.631C567.93 255.33 568.174 255.085 568.476 255.085C568.777 255.085 569.021 255.33 569.021 255.631Z" fill="#D4D9E3"/>
<path d="M962.217 606.708C962.217 607.01 961.973 607.254 961.671 607.254C961.37 607.254 961.125 607.01 961.125 606.708C961.125 606.407 961.37 606.162 961.671 606.162C961.973 606.162 962.217 606.407 962.217 606.708Z" fill="#D4D9E3"/>
<path d="M779.399 736.656C779.399 736.958 779.154 737.202 778.853 737.202C778.552 737.202 778.307 736.958 778.307 736.656C778.307 736.354 778.552 736.11 778.853 736.11C779.154 736.11 779.399 736.354 779.399 736.656Z" fill="#D4D9E3"/>
<path d="M808.868 691.338C808.868 691.64 808.624 691.884 808.322 691.884C808.021 691.884 807.776 691.64 807.776 691.338C807.776 691.037 808.021 690.792 808.322 690.792C808.624 690.792 808.868 691.037 808.868 691.338Z" fill="#D4D9E3"/>
<path d="M900.004 836.028C900.004 836.329 899.76 836.574 899.458 836.574C899.157 836.574 898.913 836.329 898.913 836.028C898.913 835.726 899.157 835.482 899.458 835.482C899.76 835.482 900.004 835.726 900.004 836.028Z" fill="#67738D"/>
<path d="M753.75 892.812C753.75 893.113 753.505 893.358 753.204 893.358C752.902 893.358 752.658 893.113 752.658 892.812C752.658 892.51 752.902 892.266 753.204 892.266C753.505 892.266 753.75 892.51 753.75 892.812Z" fill="#D4D9E3"/>
<path d="M642.967 1011.84C642.967 1012.14 642.723 1012.39 642.421 1012.39C642.12 1012.39 641.876 1012.14 641.876 1011.84C641.876 1011.54 642.12 1011.29 642.421 1011.29C642.723 1011.29 642.967 1011.54 642.967 1011.84Z" fill="#67738D"/>
<path d="M585.12 898.544C585.12 898.846 584.876 899.091 584.574 899.091C584.273 899.091 584.029 898.846 584.029 898.544C584.029 898.243 584.273 897.999 584.574 897.999C584.876 897.999 585.12 898.243 585.12 898.544Z" fill="#D4D9E3"/>
<path d="M646.514 897.453C646.514 897.754 646.27 897.999 645.969 897.999C645.667 897.999 645.423 897.754 645.423 897.453C645.423 897.151 645.667 896.906 645.969 896.906C646.27 896.906 646.514 897.151 646.514 897.453Z" fill="#67738D"/>
<path d="M1091.28 773.238C1091.28 773.539 1091.04 773.784 1090.74 773.784C1090.43 773.784 1090.19 773.539 1090.19 773.238C1090.19 772.936 1090.43 772.692 1090.74 772.692C1091.04 772.692 1091.28 772.936 1091.28 773.238Z" fill="#D4D9E3"/>
<path d="M1166.05 670.044C1166.05 670.346 1165.8 670.59 1165.5 670.59C1165.2 670.59 1164.95 670.346 1164.95 670.044C1164.95 669.743 1165.2 669.498 1165.5 669.498C1165.8 669.498 1166.05 669.743 1166.05 670.044Z" fill="#67738D"/>
<path d="M1375.06 599.337C1375.06 599.639 1374.81 599.883 1374.51 599.883C1374.21 599.883 1373.97 599.639 1373.97 599.337C1373.97 599.036 1374.21 598.791 1374.51 598.791C1374.81 598.791 1375.06 599.036 1375.06 599.337Z" fill="#D4D9E3"/>
<path d="M1247.9 543.646C1247.9 543.947 1247.66 544.191 1247.36 544.191C1247.06 544.191 1246.81 543.947 1246.81 543.646C1246.81 543.344 1247.06 543.099 1247.36 543.099C1247.66 543.099 1247.9 543.344 1247.9 543.646Z" fill="#D4D9E3"/>
<path d="M1167.14 448.096C1167.14 448.397 1166.89 448.642 1166.59 448.642C1166.29 448.642 1166.05 448.397 1166.05 448.096C1166.05 447.794 1166.29 447.55 1166.59 447.55C1166.89 447.55 1167.14 447.794 1167.14 448.096Z" fill="#D4D9E3"/>
<path d="M1214.62 398.956C1214.62 399.257 1214.37 399.502 1214.07 399.502C1213.77 399.502 1213.52 399.257 1213.52 398.956C1213.52 398.654 1213.77 398.41 1214.07 398.41C1214.37 398.41 1214.62 398.654 1214.62 398.956Z" fill="#67738D"/>
<path d="M1166.59 306.136C1166.59 306.438 1166.35 306.682 1166.05 306.682C1165.74 306.682 1165.5 306.438 1165.5 306.136C1165.5 305.835 1165.74 305.59 1166.05 305.59C1166.35 305.59 1166.59 305.835 1166.59 306.136Z" fill="#D4D9E3"/>
<path d="M1337.4 346.267C1337.4 346.569 1337.16 346.813 1336.86 346.813C1336.56 346.813 1336.31 346.569 1336.31 346.267C1336.31 345.965 1336.56 345.721 1336.86 345.721C1337.16 345.721 1337.4 345.965 1337.4 346.267Z" fill="#D4D9E3"/>
<path d="M1263.18 170.456C1263.18 170.757 1262.94 171.001 1262.64 171.001C1262.34 171.001 1262.09 170.757 1262.09 170.456C1262.09 170.154 1262.34 169.91 1262.64 169.91C1262.94 169.91 1263.18 170.154 1263.18 170.456Z" fill="#D4D9E3"/>
<path d="M1202.06 106.028C1202.06 106.329 1201.82 106.574 1201.52 106.574C1201.22 106.574 1200.97 106.329 1200.97 106.028C1200.97 105.726 1201.22 105.482 1201.52 105.482C1201.82 105.482 1202.06 105.726 1202.06 106.028Z" fill="#67738D"/>
<path d="M1332.49 70.5378C1332.49 70.8393 1332.25 71.0838 1331.95 71.0838C1331.64 71.0838 1331.4 70.8393 1331.4 70.5378C1331.4 70.2362 1331.64 69.9918 1331.95 69.9918C1332.25 69.9918 1332.49 70.2362 1332.49 70.5378Z" fill="#D4D9E3"/>
<path d="M1074.91 38.0509C1074.91 38.3524 1074.66 38.5969 1074.36 38.5969C1074.06 38.5969 1073.82 38.3524 1073.82 38.0509C1073.82 37.7493 1074.06 37.5049 1074.36 37.5049C1074.66 37.5049 1074.91 37.7493 1074.91 38.0509Z" fill="#D4D9E3"/>
<path d="M1321.03 762.591C1321.03 762.892 1320.79 763.137 1320.49 763.137C1320.18 763.137 1319.94 762.892 1319.94 762.591C1319.94 762.289 1320.18 762.045 1320.49 762.045C1320.79 762.045 1321.03 762.289 1321.03 762.591Z" fill="#D4D9E3"/>
<path d="M492.62 172.367C492.62 172.668 492.375 172.912 492.074 172.912C491.773 172.912 491.528 172.668 491.528 172.367C491.528 172.065 491.773 171.82 492.074 171.82C492.375 171.82 492.62 172.065 492.62 172.367Z" fill="#D4D9E3"/>
<path d="M327.265 305.317C327.265 305.619 327.02 305.863 326.719 305.863C326.418 305.863 326.173 305.619 326.173 305.317C326.173 305.016 326.418 304.771 326.719 304.771C327.02 304.771 327.265 305.016 327.265 305.317Z" fill="#D4D9E3"/>
<path d="M347.457 458.197C347.457 458.498 347.212 458.743 346.911 458.743C346.609 458.743 346.365 458.498 346.365 458.197C346.365 457.895 346.609 457.651 346.911 457.651C347.212 457.651 347.457 457.895 347.457 458.197Z" fill="#D4D9E3"/>
<path d="M193.562 486.043C193.562 486.344 193.317 486.589 193.016 486.589C192.715 486.589 192.47 486.344 192.47 486.043C192.47 485.741 192.715 485.497 193.016 485.497C193.317 485.497 193.562 485.741 193.562 486.043Z" fill="#D4D9E3"/>
<path d="M18.3837 582.138C18.3837 582.44 18.1394 582.684 17.838 582.684C17.5366 582.684 17.2923 582.44 17.2923 582.138C17.2923 581.837 17.5366 581.592 17.838 581.592C18.1394 581.592 18.3837 581.837 18.3837 582.138Z" fill="#D4D9E3"/>
<path d="M282.515 680.691C282.515 680.993 282.271 681.237 281.969 681.237C281.668 681.237 281.424 680.993 281.424 680.691C281.424 680.39 281.668 680.145 281.969 680.145C282.271 680.145 282.515 680.39 282.515 680.691Z" fill="#D4D9E3"/>
<path d="M358.098 773.238C358.098 773.539 357.854 773.784 357.552 773.784C357.251 773.784 357.007 773.539 357.007 773.238C357.007 772.936 357.251 772.692 357.552 772.692C357.854 772.692 358.098 772.936 358.098 773.238Z" fill="#67738D"/>
<path d="M151.541 767.232C151.541 767.533 151.297 767.778 150.995 767.778C150.694 767.778 150.449 767.533 150.449 767.232C150.449 766.93 150.694 766.686 150.995 766.686C151.297 766.686 151.541 766.93 151.541 767.232Z" fill="#D4D9E3"/>
<path d="M209.388 887.352C209.388 887.653 209.143 887.898 208.842 887.898C208.541 887.898 208.296 887.653 208.296 887.352C208.296 887.05 208.541 886.806 208.842 886.806C209.143 886.806 209.388 887.05 209.388 887.352Z" fill="#D4D9E3"/>
<path d="M209.388 887.352C209.388 887.653 209.143 887.898 208.842 887.898C208.541 887.898 208.296 887.653 208.296 887.352C208.296 887.05 208.541 886.806 208.842 886.806C209.143 886.806 209.388 887.05 209.388 887.352Z" fill="#D4D9E3"/>
<path d="M-20.9085 233.791C-20.9085 234.093 -21.1529 234.337 -21.4543 234.337C-21.7557 234.337 -22 234.093 -22 233.791C-22 233.49 -21.7557 233.245 -21.4543 233.245C-21.1529 233.245 -20.9085 233.49 -20.9085 233.791Z" fill="#D4D9E3"/>
<path d="M96.4225 154.622C96.4225 154.923 96.1782 155.168 95.8768 155.168C95.5754 155.168 95.3311 154.923 95.3311 154.622C95.3311 154.32 95.5754 154.076 95.8768 154.076C96.1782 154.076 96.4225 154.32 96.4225 154.622Z" fill="#67738D"/>
<path d="M96.4225 39.9619C96.4225 40.2634 96.1782 40.5079 95.8768 40.5079C95.5754 40.5079 95.3311 40.2634 95.3311 39.9619C95.3311 39.6603 95.5754 39.4159 95.8768 39.4159C96.1782 39.4159 96.4225 39.6603 96.4225 39.9619Z" fill="#67738D"/>
<path d="M162.728 102.752C162.728 103.053 162.484 103.298 162.183 103.298C161.881 103.298 161.637 103.053 161.637 102.752C161.637 102.45 161.881 102.206 162.183 102.206C162.484 102.206 162.728 102.45 162.728 102.752Z" fill="#D4D9E3"/>
<path d="M230.944 31.7719C230.944 32.0734 230.7 32.3179 230.398 32.3179C230.097 32.3179 229.853 32.0734 229.853 31.7719C229.853 31.4703 230.097 31.2259 230.398 31.2259C230.7 31.2259 230.944 31.4703 230.944 31.7719Z" fill="#67738D"/>
<path d="M66.4076 19.7599C66.4076 20.0615 66.1633 20.3059 65.8619 20.3059C65.5605 20.3059 65.3162 20.0615 65.3162 19.7599C65.3162 19.4584 65.5605 19.2139 65.8619 19.2139C66.1633 19.2139 66.4076 19.4584 66.4076 19.7599Z" fill="#D4D9E3"/>
<path d="M218.119 243.073C218.119 243.375 217.875 243.619 217.574 243.619C217.272 243.619 217.028 243.375 217.028 243.073C217.028 242.772 217.272 242.527 217.574 242.527C217.875 242.527 218.119 242.772 218.119 243.073Z" fill="#67738D"/>
<path d="M218.119 172.093C218.119 172.395 217.875 172.639 217.574 172.639C217.272 172.639 217.028 172.395 217.028 172.093C217.028 171.792 217.272 171.548 217.574 171.548C217.875 171.548 218.119 171.792 218.119 172.093Z" fill="#67738D"/>
<path d="M248.134 278.563C248.134 278.865 247.89 279.109 247.589 279.109C247.287 279.109 247.043 278.865 247.043 278.563C247.043 278.262 247.287 278.017 247.589 278.017C247.89 278.017 248.134 278.262 248.134 278.563Z" fill="#67738D"/>
<path d="M92.6025 273.103C92.6025 273.405 92.3581 273.649 92.0567 273.649C91.7553 273.649 91.511 273.405 91.511 273.103C91.511 272.802 91.7553 272.557 92.0567 272.557C92.3581 272.557 92.6025 272.802 92.6025 273.103Z" fill="#67738D"/>
<path d="M158.09 232.153C158.09 232.455 157.845 232.699 157.544 232.699C157.242 232.699 156.998 232.455 156.998 232.153C156.998 231.852 157.242 231.607 157.544 231.607C157.845 231.607 158.09 231.852 158.09 232.153Z" fill="#67738D"/>
<path d="M151.541 83.9118C149.935 84.0578 149.013 84.192 148.446 84.6357C147.781 85.1552 147.623 86.1067 147.448 88.0097C147.267 86.0367 147.103 85.091 146.374 84.5831C145.807 84.1862 144.891 84.0578 143.355 83.9176C144.955 83.7717 145.883 83.6375 146.444 83.1996C147.115 82.6743 147.273 81.7286 147.448 79.8197C147.611 81.5768 147.757 82.5167 148.3 83.0595C148.843 83.6024 149.789 83.7542 151.541 83.9118Z" fill="#D4D9E3"/>
<path d="M47.8529 2.01204C46.2473 2.15798 45.3248 2.29224 44.7584 2.73589C44.0928 3.25542 43.9351 4.20693 43.76 6.10995C43.579 4.13688 43.4155 3.19121 42.6857 2.68335C42.1193 2.2864 41.2026 2.15798 39.667 2.01788C41.2668 1.87194 42.1952 1.73768 42.7557 1.29987C43.4272 0.774495 43.5848 -0.171175 43.76 -2.08003C43.9235 -0.322949 44.0694 0.616884 44.6124 1.15977C45.1554 1.70265 46.1013 1.85443 47.8529 2.01204Z" fill="#D4D9E3"/>
<path d="M-13.2684 137.966C-14.874 138.112 -15.7966 138.246 -16.3629 138.69C-17.0285 139.209 -17.1862 140.161 -17.3613 142.064C-17.5423 140.091 -17.7058 139.145 -18.4357 138.637C-19.002 138.24 -19.9187 138.112 -21.4543 137.972C-19.8545 137.826 -18.9261 137.691 -18.3656 137.253C-17.6941 136.728 -17.5365 135.782 -17.3613 133.874C-17.1978 135.631 -17.0519 136.571 -16.5089 137.113C-15.9659 137.656 -15.02 137.808 -13.2684 137.966Z" fill="#67738D"/>
<path d="M84.9623 208.945C83.3566 209.091 82.4341 209.226 81.8678 209.669C81.2022 210.189 81.0445 211.14 80.8694 213.043C80.6884 211.07 80.5249 210.125 79.795 209.617C79.2287 209.22 78.312 209.091 76.7764 208.951C78.3762 208.805 79.3046 208.671 79.8651 208.233C80.5365 207.708 80.6942 206.762 80.8694 204.853C81.0328 206.61 81.1788 207.55 81.7218 208.093C82.2648 208.636 83.2107 208.788 84.9623 208.945Z" fill="#67738D"/>
<path d="M35.847 269.005C34.2413 269.151 33.3188 269.285 32.7524 269.729C32.0868 270.249 31.9292 271.2 31.754 273.103C31.573 271.13 31.4095 270.185 30.6797 269.677C30.1133 269.28 29.1967 269.151 27.6611 269.011C29.2609 268.865 30.1892 268.731 30.7498 268.293C31.4212 267.768 31.5788 266.822 31.754 264.913C31.9175 266.67 32.0635 267.61 32.6065 268.153C33.1495 268.696 34.0953 268.848 35.847 269.005Z" fill="#67738D"/>
<path d="M215.118 134.553C213.245 134.723 212.168 134.88 211.508 135.397C210.731 136.003 210.547 137.113 210.343 139.334C210.132 137.032 209.941 135.928 209.089 135.336C208.429 134.873 207.359 134.723 205.568 134.559C207.434 134.389 208.517 134.233 209.171 133.722C209.955 133.109 210.138 132.006 210.343 129.779C210.534 131.829 210.704 132.925 211.337 133.558C211.971 134.192 213.074 134.369 215.118 134.553Z" fill="#67738D"/>
<path d="M357.007 178.233C355.133 178.403 354.057 178.559 353.396 179.077C352.62 179.683 352.436 180.793 352.232 183.013C352.02 180.712 351.83 179.608 350.978 179.016C350.318 178.553 349.248 178.403 347.457 178.239C349.323 178.069 350.406 177.912 351.06 177.402C351.843 176.789 352.027 175.685 352.232 173.458C352.422 175.508 352.593 176.605 353.226 177.238C353.86 177.872 354.963 178.049 357.007 178.233Z" fill="#67738D"/>
<path d="M636.964 207.171C635.091 207.341 634.015 207.497 633.354 208.015C632.577 208.621 632.393 209.731 632.189 211.951C631.978 209.649 631.787 208.546 630.936 207.954C630.275 207.491 629.205 207.341 627.414 207.177C629.28 207.007 630.363 206.85 631.017 206.34C631.801 205.727 631.985 204.623 632.189 202.396C632.38 204.446 632.55 205.543 633.184 206.176C633.817 206.81 634.921 206.987 636.964 207.171Z" fill="#67738D"/>
<path d="M754.295 372.062C752.422 372.232 751.346 372.389 750.685 372.907C749.908 373.513 749.724 374.623 749.52 376.843C749.309 374.541 749.118 373.438 748.267 372.845C747.606 372.382 746.537 372.232 744.745 372.069C746.611 371.899 747.695 371.742 748.348 371.231C749.132 370.618 749.316 369.515 749.52 367.288C749.711 369.338 749.881 370.434 750.515 371.068C751.148 371.701 752.252 371.878 754.295 372.062Z" fill="#D4D9E3"/>
<path d="M669.708 487.814C667.834 487.984 666.758 488.141 666.097 488.658C665.321 489.264 665.137 490.374 664.933 492.595C664.721 490.293 664.531 489.189 663.679 488.597C663.018 488.134 661.949 487.984 660.158 487.821C662.024 487.65 663.107 487.494 663.761 486.983C664.544 486.37 664.728 485.267 664.933 483.04C665.123 485.09 665.294 486.186 665.927 486.819C666.561 487.453 667.664 487.63 669.708 487.814Z" fill="#67738D"/>
<path d="M159.727 301.765C158.121 301.911 157.199 302.045 156.632 302.489C155.967 303.009 155.809 303.96 155.634 305.863C155.453 303.89 155.289 302.944 154.559 302.437C153.993 302.04 153.076 301.911 151.541 301.771C153.141 301.625 154.069 301.491 154.63 301.053C155.301 300.528 155.459 299.582 155.634 297.673C155.797 299.43 155.943 300.37 156.486 300.913C157.029 301.456 157.975 301.608 159.727 301.765Z" fill="#D4D9E3"/>
<path d="M59.3132 482.491C57.7075 482.637 56.785 482.771 56.2187 483.215C55.553 483.734 55.3954 484.686 55.2202 486.589C55.0392 484.616 54.8757 483.67 54.1459 483.162C53.5796 482.765 52.6629 482.637 51.1273 482.497C52.7271 482.351 53.6555 482.216 54.216 481.779C54.8874 481.253 55.0451 480.308 55.2202 478.399C55.3837 480.156 55.5297 481.096 56.0727 481.638C56.6157 482.181 57.5616 482.333 59.3132 482.491Z" fill="#D4D9E3"/>
<path d="M241.313 528.355C239.707 528.501 238.785 528.635 238.218 529.078C237.553 529.598 237.395 530.549 237.22 532.453C237.039 530.479 236.875 529.534 236.146 529.026C235.579 528.629 234.662 528.501 233.127 528.36C234.727 528.215 235.655 528.08 236.216 527.642C236.887 527.117 237.045 526.171 237.22 524.263C237.383 526.02 237.529 526.959 238.072 527.502C238.615 528.045 239.561 528.197 241.313 528.355Z" fill="#D4D9E3"/>
<path d="M447.051 442.087C445.446 442.233 444.523 442.367 443.957 442.811C443.291 443.33 443.134 444.282 442.959 446.185C442.778 444.212 442.614 443.266 441.884 442.758C441.318 442.361 440.401 442.233 438.866 442.093C440.465 441.947 441.394 441.812 441.954 441.375C442.626 440.849 442.783 439.904 442.959 437.995C443.122 439.752 443.268 440.692 443.811 441.235C444.354 441.777 445.3 441.929 447.051 442.087Z" fill="#67738D"/>
<path d="M466.698 282.109C465.092 282.255 464.169 282.389 463.603 282.833C462.938 283.353 462.78 284.304 462.605 286.207C462.424 284.234 462.26 283.288 461.53 282.781C460.964 282.384 460.047 282.255 458.512 282.115C460.112 281.969 461.04 281.835 461.6 281.397C462.272 280.872 462.43 279.926 462.605 278.017C462.768 279.774 462.914 280.714 463.457 281.257C464 281.8 464.946 281.952 466.698 282.109Z" fill="#D4D9E3"/>
<path d="M248.134 426.799C246.529 426.945 245.606 427.079 245.04 427.523C244.374 428.042 244.217 428.994 244.041 430.897C243.86 428.924 243.697 427.978 242.967 427.47C242.401 427.073 241.484 426.945 239.948 426.805C241.548 426.659 242.477 426.525 243.037 426.087C243.709 425.561 243.866 424.616 244.041 422.707C244.205 424.464 244.351 425.404 244.894 425.947C245.437 426.49 246.383 426.641 248.134 426.799Z" fill="#D4D9E3"/>
<path d="M27.1153 360.187C25.5097 360.333 24.5872 360.467 24.0208 360.911C23.3552 361.43 23.1976 362.382 23.0224 364.285C22.8414 362.312 22.6779 361.366 21.9481 360.858C21.3817 360.461 20.465 360.333 18.9295 360.193C20.5293 360.047 21.4576 359.913 22.0181 359.475C22.6896 358.95 22.8472 358.004 23.0224 356.095C23.1859 357.852 23.3318 358.792 23.8749 359.335C24.4179 359.878 25.3637 360.029 27.1153 360.187Z" fill="#67738D"/>
<path d="M245.406 259.177C243.8 259.323 242.878 259.458 242.311 259.901C241.646 260.421 241.488 261.372 241.313 263.275C241.132 261.302 240.968 260.357 240.238 259.849C239.672 259.452 238.755 259.323 237.22 259.183C238.82 259.037 239.748 258.903 240.309 258.465C240.98 257.94 241.138 256.994 241.313 255.085C241.476 256.842 241.622 257.782 242.165 258.325C242.708 258.868 243.654 259.02 245.406 259.177Z" fill="#D4D9E3"/>
<path d="M297.25 87.1878C295.644 87.3337 294.722 87.468 294.155 87.9117C293.49 88.4312 293.332 89.3827 293.157 91.2857C292.976 89.3127 292.812 88.367 292.082 87.8591C291.516 87.4622 290.599 87.3337 289.064 87.1936C290.664 87.0477 291.592 86.9134 292.153 86.4756C292.824 85.9503 292.982 85.0046 293.157 83.0957C293.32 84.8528 293.466 85.7927 294.009 86.3355C294.552 86.8784 295.498 87.0302 297.25 87.1878Z" fill="#D4D9E3"/>
<path d="M543.372 23.852C541.766 23.9979 540.844 24.1322 540.278 24.5758C539.612 25.0954 539.454 26.0469 539.279 27.9499C539.098 25.9768 538.935 25.0312 538.205 24.5233C537.638 24.1263 536.722 23.9979 535.186 23.8578C536.786 23.7119 537.714 23.5776 538.275 23.1398C538.946 22.6144 539.104 21.6688 539.279 19.7599C539.443 21.517 539.589 22.4568 540.132 22.9997C540.675 23.5426 541.621 23.6944 543.372 23.852Z" fill="#67738D"/>
<path d="M201.748 341.077C200.142 341.223 199.219 341.357 198.653 341.801C197.988 342.32 197.83 343.272 197.655 345.175C197.474 343.202 197.31 342.256 196.58 341.748C196.014 341.352 195.097 341.223 193.562 341.083C195.162 340.937 196.09 340.803 196.65 340.365C197.322 339.84 197.48 338.894 197.655 336.985C197.818 338.742 197.964 339.682 198.507 340.225C199.05 340.768 199.996 340.919 201.748 341.077Z" fill="#67738D"/>
<path d="M-11.0855 285.111C-13.2263 285.306 -14.4564 285.485 -15.2115 286.076C-16.099 286.769 -16.3092 288.038 -16.5427 290.575C-16.7841 287.944 -17.0021 286.684 -17.9752 286.006C-18.7303 285.477 -19.9526 285.306 -22 285.119C-19.8669 284.924 -18.6291 284.745 -17.8818 284.162C-16.9865 283.461 -16.7763 282.2 -16.5427 279.655C-16.3248 281.998 -16.1301 283.251 -15.4061 283.975C-14.6821 284.699 -13.421 284.901 -11.0855 285.111Z" fill="#67738D"/>
<path d="M922.379 445.226C920.506 445.396 919.429 445.553 918.769 446.07C917.992 446.676 917.808 447.787 917.604 450.007C917.393 447.705 917.202 446.602 916.35 446.009C915.69 445.546 914.62 445.396 912.829 445.233C914.695 445.062 915.778 444.906 916.432 444.395C917.215 443.782 917.399 442.679 917.604 440.452C917.794 442.502 917.965 443.598 918.598 444.232C919.232 444.865 920.335 445.042 922.379 445.226Z" fill="#67738D"/>
<path d="M856.892 274.874C855.018 275.045 853.942 275.201 853.281 275.719C852.505 276.325 852.321 277.435 852.117 279.655C851.905 277.353 851.715 276.25 850.863 275.658C850.202 275.194 849.133 275.045 847.341 274.881C849.208 274.711 850.291 274.554 850.945 274.043C851.728 273.431 851.912 272.327 852.117 270.1C852.307 272.15 852.478 273.247 853.111 273.88C853.745 274.513 854.848 274.69 856.892 274.874Z" fill="#67738D"/>
<path d="M968.766 205.533C966.892 205.703 965.816 205.859 965.155 206.377C964.379 206.983 964.195 208.093 963.99 210.313C963.779 208.011 963.589 206.908 962.737 206.316C962.076 205.853 961.007 205.703 959.215 205.539C961.082 205.369 962.165 205.212 962.819 204.702C963.602 204.089 963.786 202.985 963.99 200.758C964.181 202.808 964.352 203.905 964.985 204.538C965.618 205.172 966.722 205.349 968.766 205.533Z" fill="#D4D9E3"/>
<path d="M1085.28 368.24C1083.4 368.41 1082.33 368.567 1081.67 369.085C1080.89 369.691 1080.71 370.801 1080.5 373.021C1080.29 370.719 1080.1 369.616 1079.25 369.023C1078.59 368.56 1077.52 368.41 1075.73 368.247C1077.59 368.077 1078.68 367.92 1079.33 367.409C1080.11 366.796 1080.3 365.693 1080.5 363.466C1080.69 365.516 1080.86 366.612 1081.5 367.246C1082.13 367.879 1083.23 368.056 1085.28 368.24Z" fill="#67738D"/>
<path d="M1157.31 177.141C1155.44 177.311 1154.36 177.467 1153.7 177.985C1152.93 178.591 1152.74 179.701 1152.54 181.921C1152.33 179.62 1152.14 178.516 1151.29 177.924C1150.62 177.461 1149.56 177.311 1147.76 177.147C1149.63 176.977 1150.71 176.82 1151.37 176.31C1152.15 175.697 1152.33 174.593 1152.54 172.367C1152.73 174.416 1152.9 175.513 1153.53 176.146C1154.17 176.78 1155.27 176.957 1157.31 177.141Z" fill="#67738D"/>
<path d="M1174.78 60.0239C1172.9 60.1942 1171.83 60.3508 1171.17 60.8684C1170.39 61.4745 1170.21 62.5846 1170 64.8048C1169.79 62.5029 1169.6 61.3996 1168.75 60.8071C1168.09 60.344 1167.02 60.1942 1165.23 60.0307C1167.09 59.8605 1168.18 59.7038 1168.83 59.193C1169.61 58.5801 1169.8 57.4768 1170 55.2498C1170.19 57.2997 1170.36 58.3962 1171 59.0296C1171.63 59.6629 1172.73 59.84 1174.78 60.0239Z" fill="#D4D9E3"/>
<path d="M1347.23 274.874C1345.35 275.045 1344.28 275.201 1343.62 275.719C1342.84 276.325 1342.66 277.435 1342.45 279.655C1342.24 277.353 1342.05 276.25 1341.2 275.658C1340.54 275.194 1339.47 275.045 1337.68 274.881C1339.54 274.711 1340.63 274.554 1341.28 274.043C1342.06 273.431 1342.25 272.327 1342.45 270.1C1342.64 272.15 1342.81 273.247 1343.45 273.88C1344.08 274.513 1345.18 274.69 1347.23 274.874Z" fill="#67738D"/>
<path d="M1440 156.393C1438.13 156.563 1437.05 156.72 1436.39 157.237C1435.61 157.843 1435.43 158.953 1435.22 161.174C1435.01 158.872 1434.82 157.768 1433.97 157.176C1433.31 156.713 1432.24 156.563 1430.45 156.399C1432.32 156.229 1433.4 156.073 1434.05 155.562C1434.84 154.949 1435.02 153.846 1435.22 151.619C1435.42 153.668 1435.59 154.765 1436.22 155.398C1436.85 156.032 1437.96 156.209 1440 156.393Z" fill="#67738D"/>
<path d="M1207.79 203.076C1205.92 203.246 1204.84 203.402 1204.18 203.92C1203.41 204.526 1203.22 205.636 1203.02 207.856C1202.81 205.554 1202.62 204.451 1201.77 203.859C1201.1 203.396 1200.03 203.246 1198.24 203.082C1200.11 202.912 1201.19 202.755 1201.85 202.245C1202.63 201.632 1202.81 200.528 1203.02 198.301C1203.21 200.351 1203.38 201.448 1204.01 202.081C1204.65 202.715 1205.75 202.892 1207.79 203.076Z" fill="#D4D9E3"/>
<path d="M1356.78 524.669C1354.9 524.839 1353.83 524.996 1353.17 525.513C1352.39 526.119 1352.21 527.229 1352 529.45C1351.79 527.148 1351.6 526.044 1350.75 525.452C1350.09 524.989 1349.02 524.839 1347.23 524.675C1349.09 524.505 1350.18 524.349 1350.83 523.838C1351.61 523.225 1351.8 522.122 1352 519.895C1352.19 521.944 1352.36 523.041 1353 523.674C1353.63 524.308 1354.73 524.485 1356.78 524.669Z" fill="#67738D"/>
<path d="M1226.89 638.236C1225.02 638.407 1223.94 638.563 1223.28 639.081C1222.51 639.687 1222.32 640.797 1222.12 643.017C1221.91 640.715 1221.72 639.612 1220.87 639.02C1220.2 638.556 1219.14 638.407 1217.34 638.243C1219.21 638.073 1220.29 637.916 1220.95 637.405C1221.73 636.793 1221.91 635.689 1222.12 633.462C1222.31 635.512 1222.48 636.609 1223.11 637.242C1223.75 637.875 1224.85 638.052 1226.89 638.236Z" fill="#D4D9E3"/>
<path d="M1005.33 55.1099C1003.46 55.2802 1002.38 55.4368 1001.72 55.9544C1000.94 56.5605 1000.76 57.6706 1000.55 59.8908C1000.34 57.5889 1000.15 56.4856 999.301 55.8931C998.64 55.43 997.57 55.2802 995.779 55.1167C997.645 54.9465 998.729 54.7898 999.382 54.279C1000.17 53.6661 1000.35 52.5628 1000.55 50.3358C1000.74 52.3858 1000.92 53.4822 1001.55 54.1156C1002.18 54.749 1003.29 54.926 1005.33 55.1099Z" fill="#67738D"/>
<path d="M811.051 140.559C809.177 140.729 808.101 140.886 807.44 141.403C806.664 142.009 806.48 143.119 806.276 145.34C806.064 143.038 805.874 141.934 805.022 141.342C804.362 140.879 803.292 140.729 801.501 140.565C803.367 140.395 804.45 140.239 805.104 139.728C805.887 139.115 806.071 138.012 806.276 135.785C806.466 137.835 806.637 138.931 807.27 139.564C807.904 140.198 809.007 140.375 811.051 140.559Z" fill="#67738D"/>
<path d="M861.803 571.625C859.93 571.795 858.854 571.951 858.193 572.469C857.416 573.075 857.232 574.185 857.028 576.405C856.817 574.103 856.626 573 855.775 572.408C855.114 571.945 854.045 571.795 852.253 571.631C854.12 571.461 855.203 571.304 855.857 570.794C856.64 570.181 856.824 569.077 857.028 566.85C857.219 568.9 857.389 569.997 858.023 570.63C858.656 571.264 859.76 571.441 861.803 571.625Z" fill="#67738D"/>
<path d="M754.295 373.154C752.422 373.324 751.346 373.481 750.685 373.999C749.908 374.605 749.724 375.715 749.52 377.935C749.309 375.633 749.118 374.53 748.267 373.937C747.606 373.474 746.537 373.324 744.745 373.161C746.611 372.991 747.695 372.834 748.348 372.323C749.132 371.71 749.316 370.607 749.52 368.38C749.711 370.43 749.881 371.526 750.515 372.16C751.148 372.793 752.252 372.97 754.295 373.154Z" fill="#67738D"/>
<path d="M525.09 759.721C523.217 759.891 522.141 760.048 521.48 760.565C520.703 761.172 520.52 762.282 520.315 764.502C520.104 762.2 519.913 761.097 519.062 760.504C518.401 760.041 517.332 759.891 515.54 759.728C517.407 759.558 518.49 759.401 519.144 758.89C519.927 758.277 520.111 757.174 520.315 754.947C520.506 756.997 520.676 758.093 521.31 758.727C521.943 759.36 523.047 759.537 525.09 759.721Z" fill="#67738D"/>
<path d="M560.835 795.211C558.962 795.381 557.886 795.538 557.225 796.055C556.448 796.661 556.265 797.772 556.06 799.992C555.849 797.69 555.658 796.587 554.807 795.994C554.146 795.531 553.077 795.381 551.285 795.218C553.152 795.047 554.235 794.891 554.889 794.38C555.672 793.767 555.856 792.664 556.06 790.437C556.251 792.487 556.421 793.583 557.055 794.217C557.688 794.85 558.792 795.027 560.835 795.211Z" fill="#67738D"/>
<path d="M443.231 673.453C441.358 673.623 440.282 673.78 439.621 674.298C438.845 674.904 438.661 676.014 438.456 678.234C438.245 675.932 438.054 674.829 437.203 674.236C436.542 673.773 435.473 673.623 433.681 673.46C435.548 673.29 436.631 673.133 437.285 672.622C438.068 672.009 438.252 670.906 438.456 668.679C438.647 670.729 438.817 671.826 439.451 672.459C440.084 673.092 441.188 673.269 443.231 673.453Z" fill="#67738D"/>
<path d="M534.641 628.681C532.767 628.852 531.691 629.008 531.03 629.526C530.254 630.132 530.07 631.242 529.865 633.462C529.654 631.16 529.464 630.057 528.612 629.465C527.951 629.001 526.882 628.852 525.09 628.688C526.957 628.518 528.04 628.361 528.694 627.85C529.477 627.238 529.661 626.134 529.865 623.907C530.056 625.957 530.226 627.054 530.86 627.687C531.493 628.32 532.597 628.497 534.641 628.681Z" fill="#67738D"/>
<path d="M596.308 538.592C594.434 538.762 593.358 538.919 592.697 539.436C591.921 540.042 591.737 541.152 591.532 543.372C591.321 541.071 591.131 539.967 590.279 539.375C589.618 538.912 588.549 538.762 586.757 538.598C588.624 538.428 589.707 538.272 590.361 537.761C591.144 537.148 591.328 536.044 591.532 533.818C591.723 535.867 591.893 536.964 592.527 537.597C593.16 538.231 594.264 538.408 596.308 538.592Z" fill="#67738D"/>
<path d="M673.801 719.317C671.927 719.487 670.851 719.644 670.19 720.162C669.414 720.768 669.23 721.878 669.026 724.098C668.814 721.796 668.624 720.693 667.772 720.1C667.111 719.637 666.042 719.487 664.25 719.324C666.117 719.154 667.2 718.997 667.854 718.486C668.637 717.873 668.821 716.77 669.026 714.543C669.216 716.593 669.387 717.689 670.02 718.323C670.654 718.956 671.757 719.133 673.801 719.317Z" fill="#67738D"/>
<path d="M732.193 849.265C730.32 849.435 729.244 849.592 728.583 850.109C727.806 850.715 727.623 851.825 727.418 854.046C727.207 851.744 727.016 850.64 726.165 850.048C725.504 849.585 724.435 849.435 722.643 849.272C724.51 849.101 725.593 848.945 726.247 848.434C727.03 847.821 727.214 846.718 727.418 844.491C727.609 846.541 727.779 847.637 728.413 848.27C729.046 848.904 730.15 849.081 732.193 849.265Z" fill="#D4D9E3"/>
<path d="M325.082 903.865C323.208 904.035 322.132 904.191 321.471 904.709C320.695 905.315 320.511 906.425 320.307 908.646C320.095 906.344 319.905 905.24 319.053 904.648C318.393 904.185 317.323 904.035 315.532 903.871C317.398 903.701 318.481 903.544 319.135 903.034C319.918 902.421 320.102 901.318 320.307 899.091C320.497 901.14 320.668 902.237 321.301 902.87C321.935 903.504 323.038 903.681 325.082 903.865Z" fill="#D4D9E3"/>
<path d="M296.704 872.197C294.831 872.367 293.754 872.524 293.094 873.041C292.317 873.647 292.133 874.757 291.929 876.978C291.718 874.676 291.527 873.572 290.676 872.98C290.015 872.517 288.945 872.367 287.154 872.203C289.02 872.033 290.103 871.877 290.757 871.366C291.541 870.753 291.725 869.65 291.929 867.423C292.12 869.473 292.29 870.569 292.923 871.202C293.557 871.836 294.66 872.013 296.704 872.197Z" fill="#67738D"/>
<path d="M124.527 719.317C122.654 719.487 121.578 719.644 120.917 720.162C120.141 720.768 119.957 721.878 119.752 724.098C119.541 721.796 119.35 720.693 118.499 720.1C117.838 719.637 116.769 719.487 114.977 719.324C116.844 719.154 117.927 718.997 118.581 718.486C119.364 717.873 119.548 716.77 119.752 714.543C119.943 716.593 120.113 717.689 120.747 718.323C121.38 718.956 122.484 719.133 124.527 719.317Z" fill="#67738D"/>
<path d="M551.285 1005.42C549.412 1005.59 548.336 1005.75 547.675 1006.26C546.898 1006.87 546.714 1007.98 546.51 1010.2C546.299 1007.9 546.108 1006.8 545.257 1006.2C544.596 1005.74 543.526 1005.59 541.735 1005.43C543.601 1005.26 544.684 1005.1 545.338 1004.59C546.122 1003.98 546.306 1002.87 546.51 1000.65C546.701 1002.7 546.871 1003.79 547.505 1004.43C548.138 1005.06 549.242 1005.24 551.285 1005.42Z" fill="#67738D"/>
<path d="M160.545 1010.33C158.672 1010.5 157.596 1010.66 156.935 1011.18C156.159 1011.78 155.975 1012.9 155.77 1015.12C155.559 1012.81 155.368 1011.71 154.517 1011.12C153.856 1010.65 152.787 1010.5 150.995 1010.34C152.862 1010.17 153.945 1010.01 154.599 1009.5C155.382 1008.89 155.566 1007.79 155.77 1005.56C155.961 1007.61 156.131 1008.71 156.765 1009.34C157.398 1009.97 158.502 1010.15 160.545 1010.33Z" fill="#67738D"/>
<path d="M50.3087 881.752C48.4354 881.922 47.3592 882.079 46.6984 882.596C45.9219 883.202 45.7379 884.312 45.5336 886.533C45.3224 884.231 45.1317 883.127 44.2802 882.535C43.6195 882.072 42.55 881.922 40.7585 881.758C42.6249 881.588 43.708 881.432 44.362 880.921C45.1453 880.308 45.3292 879.205 45.5336 876.978C45.7243 879.028 45.8946 880.124 46.5281 880.757C47.1616 881.391 48.2651 881.568 50.3087 881.752Z" fill="#D4D9E3"/>
<path d="M820.874 1014.98C819.001 1015.15 817.924 1015.3 817.263 1015.82C816.487 1016.43 816.303 1017.54 816.099 1019.76C815.888 1017.45 815.697 1016.35 814.845 1015.76C814.185 1015.3 813.115 1015.15 811.324 1014.98C813.19 1014.81 814.273 1014.66 814.927 1014.14C815.71 1013.53 815.894 1012.43 816.099 1010.2C816.289 1012.25 816.46 1013.35 817.093 1013.98C817.727 1014.61 818.83 1014.79 820.874 1014.98Z" fill="#67738D"/>
<path d="M963.854 832.612C961.981 832.782 960.904 832.939 960.244 833.456C959.467 834.062 959.283 835.172 959.079 837.393C958.868 835.091 958.677 833.987 957.826 833.395C957.165 832.932 956.095 832.782 954.304 832.619C956.17 832.448 957.253 832.292 957.907 831.781C958.691 831.168 958.875 830.065 959.079 827.838C959.27 829.888 959.44 830.984 960.073 831.617C960.707 832.251 961.81 832.428 963.854 832.612Z" fill="#67738D"/>
<path d="M959.215 950.547C957.342 950.718 956.266 950.874 955.605 951.392C954.828 951.998 954.645 953.108 954.44 955.328C954.229 953.026 954.038 951.923 953.187 951.331C952.526 950.868 951.457 950.718 949.665 950.554C951.532 950.384 952.615 950.227 953.269 949.717C954.052 949.104 954.236 948 954.44 945.773C954.631 947.823 954.801 948.92 955.435 949.553C956.068 950.186 957.172 950.364 959.215 950.547Z" fill="#67738D"/>
<path d="M1080.64 1077.22C1078.77 1077.39 1077.69 1077.55 1077.03 1078.06C1076.25 1078.67 1076.07 1079.78 1075.86 1082C1075.65 1079.7 1075.46 1078.59 1074.61 1078C1073.95 1077.54 1072.88 1077.39 1071.09 1077.23C1072.96 1077.06 1074.04 1076.9 1074.69 1076.39C1075.48 1075.78 1075.66 1074.67 1075.86 1072.45C1076.06 1074.49 1076.23 1075.59 1076.86 1076.22C1077.49 1076.86 1078.6 1077.04 1080.64 1077.22Z" fill="#67738D"/>
<path d="M1246.54 1014.98C1244.67 1015.15 1243.59 1015.3 1242.93 1015.82C1242.15 1016.43 1241.97 1017.54 1241.77 1019.76C1241.55 1017.45 1241.36 1016.35 1240.51 1015.76C1239.85 1015.3 1238.78 1015.15 1236.99 1014.98C1238.86 1014.81 1239.94 1014.66 1240.59 1014.14C1241.38 1013.53 1241.56 1012.43 1241.77 1010.2C1241.96 1012.25 1242.13 1013.35 1242.76 1013.98C1243.39 1014.61 1244.5 1014.79 1246.54 1014.98Z" fill="#67738D"/>
<path d="M1217.34 785.656C1215.47 785.826 1214.39 785.983 1213.73 786.5C1212.96 787.107 1212.77 788.217 1212.57 790.437C1212.36 788.135 1212.17 787.032 1211.32 786.439C1210.65 785.976 1209.59 785.826 1207.79 785.663C1209.66 785.492 1210.74 785.336 1211.4 784.825C1212.18 784.212 1212.36 783.109 1212.57 780.882C1212.76 782.932 1212.93 784.028 1213.56 784.662C1214.2 785.295 1215.3 785.472 1217.34 785.656Z" fill="#67738D"/>
<path d="M1383.24 728.872C1381.37 729.042 1380.29 729.199 1379.63 729.717C1378.86 730.323 1378.67 731.433 1378.47 733.653C1378.26 731.351 1378.07 730.248 1377.22 729.655C1376.56 729.192 1375.49 729.042 1373.69 728.879C1375.56 728.709 1376.64 728.552 1377.3 728.041C1378.08 727.428 1378.27 726.325 1378.47 724.098C1378.66 726.148 1378.83 727.244 1379.46 727.878C1380.1 728.511 1381.2 728.688 1383.24 728.872Z" fill="#D4D9E3"/>
<path d="M1090.19 925.432C1088.32 925.602 1087.24 925.758 1086.58 926.276C1085.8 926.882 1085.62 927.992 1085.41 930.212C1085.2 927.911 1085.01 926.807 1084.16 926.215C1083.5 925.752 1082.43 925.602 1080.64 925.438C1082.51 925.268 1083.59 925.111 1084.24 924.601C1085.03 923.988 1085.21 922.884 1085.41 920.657C1085.61 922.707 1085.78 923.804 1086.41 924.437C1087.04 925.071 1088.15 925.248 1090.19 925.432Z" fill="#D4D9E3"/>
<path d="M1117.48 906.868C1115.6 907.038 1114.53 907.194 1113.87 907.712C1113.09 908.318 1112.91 909.428 1112.7 911.648C1112.49 909.347 1112.3 908.243 1111.45 907.651C1110.79 907.188 1109.72 907.038 1107.93 906.874C1109.79 906.704 1110.88 906.547 1111.53 906.037C1112.31 905.424 1112.5 904.32 1112.7 902.094C1112.89 904.143 1113.06 905.24 1113.7 905.873C1114.33 906.507 1115.43 906.684 1117.48 906.868Z" fill="#D4D9E3"/>
<path d="M1039.98 755.08C1038.11 755.25 1037.03 755.407 1036.37 755.924C1035.6 756.531 1035.41 757.641 1035.21 759.861C1035 757.559 1034.81 756.456 1033.95 755.863C1033.29 755.4 1032.22 755.25 1030.43 755.087C1032.3 754.917 1033.38 754.76 1034.04 754.249C1034.82 753.636 1035 752.533 1035.21 750.306C1035.4 752.356 1035.57 753.452 1036.2 754.086C1036.84 754.719 1037.94 754.896 1039.98 755.08Z" fill="#67738D"/>
<path d="M889.362 702.664C887.489 702.834 886.413 702.991 885.752 703.509C884.976 704.115 884.792 705.225 884.587 707.445C884.376 705.143 884.185 704.04 883.334 703.447C882.673 702.984 881.604 702.834 879.812 702.671C881.679 702.501 882.762 702.344 883.416 701.833C884.199 701.22 884.383 700.117 884.587 697.89C884.778 699.94 884.948 701.036 885.582 701.67C886.215 702.303 887.319 702.48 889.362 702.664Z" fill="#D4D9E3"/>
<path d="M1117.48 515.114C1115.6 515.284 1114.53 515.441 1113.87 515.958C1113.09 516.564 1112.91 517.674 1112.7 519.895C1112.49 517.593 1112.3 516.489 1111.45 515.897C1110.79 515.434 1109.72 515.284 1107.93 515.12C1109.79 514.95 1110.88 514.794 1111.53 514.283C1112.31 513.67 1112.5 512.567 1112.7 510.34C1112.89 512.39 1113.06 513.486 1113.7 514.119C1114.33 514.753 1115.43 514.93 1117.48 515.114Z" fill="#D4D9E3"/>
</g>
</svg>
