<svg xmlns="http://www.w3.org/2000/svg" fill="none" viewBox="0 0 578 238">
  <ellipse cx="122.329" cy="36.591" stroke="var(--vp-c-svg10)" stroke-width="2" rx="122.329" ry="36.591" transform="matrix(.9975 -.07066 .06433 .99793 156.225 83.055)"/>
  <ellipse cx="151.498" cy="48.62" stroke="var(--vp-c-svg10)" stroke-width="2" rx="151.498" ry="48.62" transform="matrix(.9975 -.07066 .06433 .99793 126.358 73.53)"/>
  <ellipse cx="181.772" cy="61.354" stroke="var(--vp-c-svg10)" stroke-width="2" rx="181.772" ry="61.354" transform="matrix(.9975 -.07066 .06433 .99793 98.023 65.766)"/>
  <ellipse cx="230.258" cy="77.72" stroke="var(--vp-c-svg10)" stroke-width="2" rx="230.258" ry="77.72" transform="matrix(.9975 -.07066 .06433 .99793 54.372 57.365)"/>
  <ellipse cx="283.376" cy="98.439" stroke="var(--vp-c-svg10)" stroke-width="2" rx="283.376" ry="98.439" transform="matrix(.9975 -.07066 .06433 .99793 0 40.788)"/>
  <g filter="url(#a)">
    <path fill="url(#b)" d="M285.152 173.456c37.542 0 67.975-30.433 67.975-67.975 0-37.541-30.433-67.974-67.975-67.974-37.541 0-67.975 30.433-67.975 67.974 0 37.542 30.434 67.975 67.975 67.975Z"/>
  </g>
  <path fill="url(#c)" d="M253.501 72.018a5.243 5.243 0 1 0 0-10.486 5.243 5.243 0 0 0 0 10.486Z"/>
  <path fill="url(#d)" d="M294.495 66.68a8.104 8.104 0 1 0 0-16.207 8.104 8.104 0 0 0 0 16.207Z"/>
  <path fill="url(#e)" d="M246.16 113.776c6.95 0 12.584-5.634 12.584-12.584 0-6.95-5.634-12.585-12.584-12.585-6.95 0-12.585 5.634-12.585 12.585 0 6.95 5.635 12.584 12.585 12.584Z"/>
  <path stroke="var(--vp-c-svg10)" stroke-width="2" d="M335.171 153.363c-19.238 3.421-52.584 10.733-91.488 7.696M347.997 137.545c-19.238 3.42-80.373 12.87-119.277 9.833"/>
  <path fill="#BE3830" d="M257.484 81.609a.587.587 0 0 1 .871.559c-1.336 15.576-3.07 30.345-4.279 45.384a.588.588 0 0 1-.316.474c-3.42 1.77-4.257 2.643-11.023 2.679a.586.586 0 0 1-.562-.421c-3.053-10.555-3.121-16.683-5.986-22.895a.367.367 0 0 0-.694.099c-1.074 7.065-2.009 14.148-2.958 21.231a.581.581 0 0 1-.762.473c-4.435-1.5-8.847-3.068-13.268-4.608a.58.58 0 0 1-.388-.497c-1.403-15.544-2.948-31.074-4.359-46.617a.576.576 0 0 1 .844-.563c3.475 1.85 6.453 3.687 10.082 5.158a.586.586 0 0 1 .365.494c.629 7.426 1.165 14.378 1.712 21.815.01.137.164.259.299.281.251.043.435-.141.467-.394.807-6.443 1.637-12.883 2.715-19.286a.58.58 0 0 1 .818-.427c2.859 1.342 3.987 1.914 9.491 2.87a.588.588 0 0 1 .476.457c1.088 5.327 2.418 11.873 3.975 18.283a.385.385 0 0 0 .374.295l.02.001a.385.385 0 0 0 .386-.367c.298-6.438-.459-12.642-.044-19.072a.58.58 0 0 1 .395-.51c4.711-1.591 7.435-2.723 11.349-4.896ZM290.67 128.18a.58.58 0 0 1-.747.642c-3.44-1.076-6.869-2.19-10.308-3.269a.581.581 0 0 1-.397-.444c-.38-1.944-.771-3.885-1.167-5.825a.578.578 0 0 0-.482-.457c-2.418-.356-4.839-.583-7.284-.592a.577.577 0 0 0-.563.448 240.765 240.765 0 0 1-1.124 4.581.588.588 0 0 1-.421.422c-3.295.851-6.507 2.011-9.717 3.137a.58.58 0 0 1-.764-.643c2.588-15.646 5.516-30.288 7.633-46.03a.588.588 0 0 1 .491-.498c8.646-1.332 11.04-.353 16.847 2.461a.586.586 0 0 1 .323.433c2.446 15.23 5.34 30.386 7.68 45.634Zm-14.734-17.182a.586.586 0 0 0 .613-.673c-.811-5.276-1.576-11.391-2.282-16.619-.011-.078-.079-.14-.157-.133-.088.008-.161.068-.173.155-.713 5.178-1.654 11.214-2.488 16.431a.584.584 0 0 0 .562.675c1.31.035 2.617.089 3.925.164ZM318.386 108.204a.6.6 0 0 0-.162.609c1.56 5.03 3.159 10.069 5.322 14.876a.59.59 0 0 1-.4.816c-3.881.933-7.693 2.16-11.511 3.32a.579.579 0 0 1-.725-.397c-1.396-4.977-2.487-10.052-3.792-15.053a.582.582 0 0 0-.592-.434l-.571.028a.58.58 0 0 0-.553.569c-.039 2.322-.189 11.531-.197 16.761a.575.575 0 0 1-.425.555c-3.889 1.049-6.855 1.116-10.753.05a.575.575 0 0 1-.422-.556c-.013-13.906-2.198-28.32-2.218-42.23-.001-.358 1.876-.436 2.232-.395 10.919 1.249 16.884-10.69 26.082-4.876 5.986 5.871 4.839 20.451-1.315 26.357Zm-11-3.183c4.603-.26 4.79-11.392.07-10.616-.493.076-1.64.13-2.404.193a.543.543 0 0 0-.498.557c.059 2.832.573 6.493.642 9.345a.598.598 0 0 0 .617.584c.536-.02 1.151-.041 1.573-.063ZM339.4 113.907a.59.59 0 0 0-.587.585c.026 3.88.299 8.858.333 12.774a.546.546 0 0 1-.732.53c-3.342-1.251-5.796-3.941-11.202-3.551 0-7.452-.409-12.696-.49-20.349-.046-4.282-.001-9.773 0-14.002 0-3.715-.643-9.797 0-9.797 17.633-5.286 29.825 4.457 29.825 17.064 0 9.467-3.097 16.554-17.147 16.746Zm.098-21.606c-.356-.047-.646.266-.61.624.419 4.164-.035 8.932-.075 12.805a.562.562 0 0 0 .516.564c9.256.703 8.212-12.926.169-13.993Z"/>
  <g fill="var(--vp-c-svg11)" fill-rule="evenodd" clip-path="url(#f)" clip-rule="evenodd">
    <path d="M428.498 125.593h3.772c.258-.002.47.192.474.435v23.11a.418.418 0 0 1-.143.304.473.473 0 0 1-.331.118h-3.218a.716.716 0 0 1-.633-.397l-.396-.981c-1.524 1.251-3.477 1.944-5.499 1.949-4.761 0-8.639-3.825-8.639-8.531s3.878-8.531 8.639-8.531c2.024.008 3.977.705 5.499 1.962v-9.016a.422.422 0 0 1 .144-.304.476.476 0 0 1 .331-.118Zm-9.878 16.019c0 2.36 2.11 4.272 4.708 4.272 2.598 0 4.708-1.912 4.708-4.272 0-2.359-2.11-4.271-4.708-4.271-2.598 0-4.708 1.912-4.708 4.271ZM442.369 135.026c1.52-1.26 3.474-1.957 5.5-1.961 4.76 0 8.638 3.835 8.638 8.539s-3.878 8.527-8.638 8.527c-2.025-.008-3.978-.704-5.5-1.961l-.395.981a.743.743 0 0 1-.634.397h-3.217a.472.472 0 0 1-.331-.118.419.419 0 0 1-.144-.304v-23.111a.419.419 0 0 1 .144-.304.476.476 0 0 1 .331-.118h3.771a.476.476 0 0 1 .331.118c.09.079.141.189.144.304v9.011Zm0 6.566c0 2.358 2.11 4.27 4.708 4.27 2.598 0 4.708-1.912 4.708-4.27 0-2.358-2.11-4.27-4.708-4.27-2.598 0-4.708 1.912-4.708 4.27ZM474.162 133.679h3.495a.478.478 0 0 1 .331.118c.089.08.141.189.144.305v15.095a.422.422 0 0 1-.144.304.473.473 0 0 1-.331.118h-3.218a.717.717 0 0 1-.633-.398l-.396-.981c-1.524 1.252-3.477 1.945-5.499 1.95-4.761 0-8.638-3.826-8.638-8.535 0-4.708 3.877-8.535 8.638-8.535 2.023.002 3.977.695 5.499 1.951l.198-.982a.577.577 0 0 1 .554-.41Zm-5.447 12.238c2.585 0 4.695-1.901 4.708-4.249v-.05c-.013-2.348-2.11-4.249-4.708-4.249-2.598 0-4.708 1.913-4.708 4.274 0 2.36 2.123 4.274 4.708 4.274Z"/>
  </g>
  <g clip-path="url(#g)">
    <path fill="var(--vp-c-svg11)" d="M416.887 57.455h3.831V43.207h-3.831v14.248Z"/>
    <mask id="h" width="6" height="7" x="416" y="35" maskUnits="userSpaceOnUse" style="mask-type:luminance">
      <path fill="#FFF" fill-rule="evenodd" d="M416.185 35.92h5.308v5.393h-5.308V35.92Z" clip-rule="evenodd"/>
    </mask>
    <g mask="url(#h)">
      <path fill="#000" d="M418.824 35.92c-.723 0-1.35.264-1.865.786-.514.523-.774 1.17-.774 1.925 0 .735.26 1.372.774 1.894a2.535 2.535 0 0 0 1.865.788c.743 0 1.38-.265 1.894-.788.514-.522.775-1.16.775-1.894 0-.754-.261-1.4-.775-1.925a2.567 2.567 0 0 0-1.894-.787Z"/>
    </g>
    <mask id="i" width="106" height="23" x="400" y="35" maskUnits="userSpaceOnUse" style="mask-type:luminance">
      <path fill="#FFF" fill-rule="evenodd" d="M400.179 57.787h105.116V35.92H400.179v21.867Z" clip-rule="evenodd"/>
    </mask>
    <g mask="url(#i)">
      <path fill="var(--vp-c-svg11)" d="M423.8 57.439h3.823V36.413H423.8v21.026Z"/>
    </g>
    <mask id="j" width="106" height="23" x="400" y="35" maskUnits="userSpaceOnUse" style="mask-type:luminance">
      <path fill="#FFF" fill-rule="evenodd" d="M400.179 57.787h105.116V35.92H400.179v21.867Z" clip-rule="evenodd"/>
    </mask>
    <g mask="url(#j)">
      <path fill="var(--vp-c-svg11)" d="M473.808 50.447a5.128 5.128 0 0 0-1.256-.779 29.138 29.138 0 0 0-1.359-.559 84.73 84.73 0 0 0-1.605-.596 12.56 12.56 0 0 1-1.109-.45c-.256-.122-.446-.256-.563-.4-.098-.116-.145-.273-.145-.476 0-.363.127-.617.399-.801.309-.21.698-.316 1.157-.316.652 0 1.115.15 1.376.445.274.31.408.73.408 1.28v.363h3.739v-.363c0-.709-.146-1.376-.435-1.984a4.918 4.918 0 0 0-1.171-1.565 5.448 5.448 0 0 0-1.723-1.024c-1.286-.483-2.844-.464-4.127-.111a5.11 5.11 0 0 0-1.703.81 4.184 4.184 0 0 0-1.184 1.348c-.296.535-.446 1.16-.446 1.86 0 .623.085 1.164.251 1.608.172.455.423.843.747 1.15.308.293.675.55 1.094.769.401.209.84.404 1.306.582a47.52 47.52 0 0 0 1.841.672c.495.167.914.333 1.245.492.298.142.519.293.658.45.111.126.166.293.166.512 0 .587-.254.795-.443.9-.363.202-.825.305-1.37.305-.663 0-1.211-.158-1.632-.468-.391-.289-.581-.805-.581-1.578v-.363h-3.739v.363c0 .846.162 1.607.479 2.262a4.883 4.883 0 0 0 1.295 1.659 5.596 5.596 0 0 0 1.841 1.006 6.904 6.904 0 0 0 2.166.337c.744 0 1.466-.087 2.141-.257a5.532 5.532 0 0 0 1.813-.808c.53-.369.952-.846 1.255-1.417.302-.573.456-1.246.456-1.999 0-.672-.113-1.245-.337-1.7a3.593 3.593 0 0 0-.905-1.159Z"/>
    </g>
    <mask id="k" width="106" height="23" x="400" y="35" maskUnits="userSpaceOnUse" style="mask-type:luminance">
      <path fill="#FFF" fill-rule="evenodd" d="M400.179 57.787h105.116V35.92H400.179v21.867Z" clip-rule="evenodd"/>
    </mask>
    <g mask="url(#k)">
      <path fill="var(--vp-c-svg11)" d="M502.684 43.381a4.37 4.37 0 0 1 1.692 1.454c.352.545.595 1.154.727 1.816.128.64.192 1.444.192 2.391v8.396h-3.824v-7.351c0-.552-.046-1.076-.137-1.557a3.46 3.46 0 0 0-.423-1.167 2.073 2.073 0 0 0-.757-.731c-.315-.181-.722-.273-1.21-.273-.967 0-1.66.333-2.117 1.017-.479.718-.723 1.63-.723 2.71v7.352h-3.824v-14.24h3.824v1.419s.973-1.766 3.983-1.766c1.674 0 2.597.53 2.597.53Z"/>
    </g>
    <mask id="l" width="106" height="23" x="400" y="35" maskUnits="userSpaceOnUse" style="mask-type:luminance">
      <path fill="#FFF" fill-rule="evenodd" d="M400.179 57.787h105.116V35.92H400.179v21.867Z" clip-rule="evenodd"/>
    </mask>
    <g mask="url(#l)">
      <path fill="var(--vp-c-svg11)" fill-rule="evenodd" d="M412.813 47.65c.408.403.757.915 1.042 1.52.287.617.433 1.346.433 2.168 0 .55-.09 1.18-.268 1.872a5.32 5.32 0 0 1-1.038 2.019c-.508.63-1.222 1.16-2.122 1.577-.898.415-2.07.626-3.484.626h-7.197V36.425h7.169c1.411 0 2.573.2 3.451.596.881.396 1.58.895 2.078 1.484.499.59.837 1.24 1.001 1.93.158.663.239 1.276.239 1.823 0 .681-.115 1.308-.341 1.86a5.05 5.05 0 0 1-.875 1.434 4.884 4.884 0 0 1-1.466 1.137l.04.018.04.018c.455.21.891.52 1.298.924Zm-2.775-4.329a1.882 1.882 0 0 1-.387.758c-.194.24-.476.447-.836.617-.362.17-.855.258-1.467.258h-3.196v-4.84h3.196c.611 0 1.105.087 1.467.257.359.17.639.381.833.626.195.249.326.51.39.778.07.291.105.552.105.773 0 .222-.035.482-.105.773Zm-.219 9.567c-.193.245-.471.45-.827.61-.362.163-.859.245-1.473.245h-3.367v-5.1h3.395c.569 0 1.034.093 1.382.278.356.19.641.419.848.679.206.259.347.537.42.824.078.31.117.577.117.798 0 .261-.036.552-.105.864a2.01 2.01 0 0 1-.39.802Z" clip-rule="evenodd"/>
    </g>
    <mask id="m" width="106" height="23" x="400" y="35" maskUnits="userSpaceOnUse" style="mask-type:luminance">
      <path fill="#FFF" fill-rule="evenodd" d="M400.179 57.787h105.116V35.92H400.179v21.867Z" clip-rule="evenodd"/>
    </mask>
    <g mask="url(#m)">
      <path fill="var(--vp-c-svg11)" fill-rule="evenodd" d="M457.638 44.617V43.2h3.825v14.24h-3.825V56.02c-.375.588-1.067 1.1-1.901 1.418a5.22 5.22 0 0 1-1.852.348 7.268 7.268 0 0 1-2.268-.348 6.872 6.872 0 0 1-2.918-1.886 7.608 7.608 0 0 1-1.469-2.39 7.833 7.833 0 0 1-.524-2.843c0-.99.176-1.947.524-2.845a7.622 7.622 0 0 1 1.469-2.39 6.879 6.879 0 0 1 2.918-1.885 7.268 7.268 0 0 1 2.268-.348c.647 0 1.282.13 1.852.348.834.319 1.526.83 1.901 1.418Zm-.992 8.476c.311-.35.556-.77.729-1.247.176-.48.263-.993.263-1.527a4.42 4.42 0 0 0-.263-1.528 3.833 3.833 0 0 0-.729-1.246 3.528 3.528 0 0 0-1.129-.843 3.347 3.347 0 0 0-1.46-.314c-.535 0-1.021.105-1.445.314-.431.209-.807.493-1.117.843-.309.349-.549.767-.714 1.24-.166.48-.25.996-.25 1.534 0 .537.084 1.053.25 1.532.165.474.405.892.714 1.242.31.35.686.634 1.117.843.424.207.91.313 1.445.313.534 0 1.025-.106 1.46-.314.44-.21.819-.493 1.129-.843Z" clip-rule="evenodd"/>
    </g>
    <mask id="n" width="106" height="23" x="400" y="35" maskUnits="userSpaceOnUse" style="mask-type:luminance">
      <path fill="#FFF" fill-rule="evenodd" d="M400.179 57.787h105.116V35.92H400.179v21.867Z" clip-rule="evenodd"/>
    </mask>
    <g mask="url(#n)">
      <path fill="var(--vp-c-svg11)" fill-rule="evenodd" d="M434.474 57.439h-3.824V36.412h3.824v8.205c.375-.588 1.068-1.099 1.901-1.418a5.226 5.226 0 0 1 1.853-.348c.802 0 1.562.117 2.268.348a6.856 6.856 0 0 1 2.917 1.886 7.598 7.598 0 0 1 1.469 2.39c.348.897.525 1.854.525 2.843a7.84 7.84 0 0 1-.525 2.845 7.595 7.595 0 0 1-1.469 2.39 6.874 6.874 0 0 1-2.917 1.886 7.277 7.277 0 0 1-2.268.347c-.647 0-1.283-.13-1.853-.347-.833-.32-1.526-.83-1.901-1.419v1.419Zm.993-9.894c-.311.35-.557.77-.73 1.246a4.44 4.44 0 0 0-.263 1.527c0 .535.088 1.048.263 1.528.173.477.419.896.73 1.246.31.35.689.633 1.129.843.434.209.926.314 1.46.314.535 0 1.02-.106 1.445-.313.431-.21.807-.493 1.117-.844.309-.349.549-.766.713-1.24a4.67 4.67 0 0 0 .251-1.534c0-.537-.085-1.052-.251-1.532a3.668 3.668 0 0 0-.713-1.241 3.563 3.563 0 0 0-1.117-.843 3.255 3.255 0 0 0-1.445-.313c-.534 0-1.026.105-1.46.313a3.53 3.53 0 0 0-1.129.843Z" clip-rule="evenodd"/>
    </g>
    <mask id="o" width="106" height="23" x="400" y="35" maskUnits="userSpaceOnUse" style="mask-type:luminance">
      <path fill="#FFF" fill-rule="evenodd" d="M400.179 57.787h105.116V35.92H400.179v21.867Z" clip-rule="evenodd"/>
    </mask>
    <g mask="url(#o)">
      <path fill="var(--vp-c-svg11)" fill-rule="evenodd" d="M488.127 44.708c.592.582 1.035 1.281 1.392 2.044.655 1.397.614 3.376.356 4.745h-9.462c.044.452.11.751.198 1.033.118.375.299.707.542.987.238.275.554.496.938.658.393.165.895.249 1.492.249.803 0 1.378-.147 1.709-.435.326-.284.566-.629.734-1.013h3.891l-.016.1a5.189 5.189 0 0 1-.66 1.794 5.462 5.462 0 0 1-1.329 1.506 6.581 6.581 0 0 1-1.9 1.028c-.72.254-1.537.383-2.429.383-1.167 0-2.199-.195-3.069-.581a6.184 6.184 0 0 1-2.194-1.601 6.709 6.709 0 0 1-1.313-2.39 9.53 9.53 0 0 1-.432-2.896c0-1.042.157-2.029.463-2.932a7.098 7.098 0 0 1 1.338-2.382 6.067 6.067 0 0 1 2.183-1.587c.859-.377 1.847-.567 2.939-.567a6.66 6.66 0 0 1 2.545.49 6.477 6.477 0 0 1 2.084 1.367Zm-4.716 1.246c-.89 0-1.609.247-2.194.754-.498.431-.772 1.041-.832 1.983h5.882c-.059-.899-.315-1.5-.778-1.955-.534-.526-1.215-.782-2.078-.782Z" clip-rule="evenodd"/>
    </g>
  </g>
  <path fill="var(--vp-c-svg11)" fill-rule="evenodd" d="M244.605 6.74h-64.173v19.666h64.174l9.7-9.832v-.001l-9.7-9.832h-.001Z" clip-rule="evenodd"/>
  <path fill="var(--vp-c-svg12)" fill-rule="evenodd" d="M198.384 20.953h1.88v-8.76h-1.88v8.76ZM207.097 20.969l-3.033-3.074-.021.021-.02-.02v3.06h-1.879v-8.759h1.879v3.045l3.023-3.064h2.658l-4.311 4.37 4.363 4.42h-2.659ZM225.755 14.099h-2.492v6.854h-1.88v-6.854h-2.53v-1.906h6.902V14.1ZM227.635 20.953h1.879v-8.76h-1.879v8.76ZM237.335 14.099h-4.041v1.455h4.041v1.905h-4.041v1.59h4.041v1.904h-5.941v-8.76h5.941V14.1ZM192.242 14.16c-1.315 0-2.38 1.08-2.38 2.413 0 1.333 1.065 2.413 2.38 2.413s2.381-1.08 2.381-2.413c0-1.332-1.066-2.413-2.381-2.413Zm0 6.814c-2.398 0-4.342-1.97-4.342-4.4 0-2.432 1.944-4.402 4.342-4.402 2.399 0 4.343 1.97 4.343 4.401 0 2.43-1.944 4.401-4.343 4.401Z" clip-rule="evenodd"/>
  <path fill="var(--vp-c-svg12)" fill-rule="evenodd" d="M213.861 14.16c-1.315 0-2.381 1.08-2.381 2.413 0 1.333 1.066 2.413 2.381 2.413 1.315 0 2.381-1.08 2.381-2.413 0-1.332-1.066-2.413-2.381-2.413Zm0 6.814c-2.398 0-4.343-1.97-4.343-4.4 0-2.432 1.945-4.402 4.343-4.402 2.398 0 4.342 1.97 4.342 4.401 0 2.43-1.944 4.401-4.342 4.401Z" clip-rule="evenodd"/>
  <path fill="var(--vp-c-svg11)" fill-rule="evenodd" d="M61.41 107.165h5.944V85.159h-5.945v22.006ZM77.544 95.511c-1.76 0-2.487 1.395-2.487 3.192 0 1.798.728 3.255 2.487 3.255 1.759 0 2.487-1.457 2.487-3.255 0-1.797-.728-3.192-2.487-3.192Zm0 11.964c-5.641 0-8.614-3.007-8.614-8.772 0-5.764 2.973-8.709 8.614-8.709 5.64 0 8.613 2.945 8.613 8.71 0 5.764-2.972 8.771-8.613 8.771ZM100.411 101.09v5.517c-1.274.558-2.911.868-4.185.868-5.52 0-8.734-3.131-8.734-8.771 0-5.642 3.214-8.71 8.734-8.71 1.274 0 2.911.31 4.185.868v5.517c-1.061-.496-2.396-.868-3.457-.868-2.123 0-3.336 1.178-3.336 3.193 0 2.014 1.213 3.254 3.336 3.254 1.061 0 2.396-.372 3.457-.868ZM113.574 97.68l5.853 9.485h-7.066l-4.307-7.532v7.532h-5.944V85.159h5.944V95.82l4.125-5.517h7.248l-5.853 7.376Z" clip-rule="evenodd"/>
  <path fill="var(--vp-c-svg11)" fill-rule="evenodd" d="M128.253 96.658c0-1.302-.637-2.263-2.032-2.263s-2.032.96-2.032 2.263h4.064Zm5.701 3.409h-9.765c.182 1.736 1.819 2.449 4.034 2.449 1.728 0 4.003-.465 5.731-1.209v4.866c-2.062.93-4.458 1.302-6.763 1.302-6.187 0-9.068-3.007-9.068-8.772 0-5.703 3.063-8.709 8.28-8.709 4.913 0 7.551 3.316 7.551 8.338v1.735ZM141.355 95.697v2.82c0 2.48 1.577 3.317 3.942 3.317h.303v5.393a10.48 10.48 0 0 1-1.698.155c-5.58 0-8.492-3.038-8.492-8.74V85.965h5.945v4.339h4.245v5.393h-4.245ZM50.582 95.387c-.334 0-.758.062-1.031.124v6.385h1.092c2.001 0 3.063-1.271 3.063-3.317 0-2.045-1.122-3.192-3.124-3.192Zm.334 11.778h-7.31V85.159h5.945v5.052a9.819 9.819 0 0 1 1.94-.217c5.217 0 8.341 2.944 8.341 8.585 0 5.703-3.336 8.586-8.916 8.586ZM170.046 176.014h-48.385c-1.441 0-2.613 1.194-2.613 2.66v7.658c-2.922-6.103-9.077-10.318-16.182-10.318h-7.112c-1.441 0-2.613 1.194-2.613 2.66v22.897c0 1.466 1.172 2.659 2.613 2.659h74.292c1.441 0 2.613-1.193 2.613-2.659v-22.897c0-1.466-1.172-2.66-2.613-2.66Zm-75.097 25.557v-22.897c0-.451.361-.819.805-.819h7.112c8.923 0 16.182 7.391 16.182 16.474v8.06H95.754a.812.812 0 0 1-.805-.818Zm75.097.818a.812.812 0 0 0 .804-.818v-22.897a.813.813 0 0 0-.804-.819h-48.385a.813.813 0 0 0-.805.819v23.715h49.19Z" clip-rule="evenodd"/>
  <path fill="var(--vp-c-svg11)" fill-rule="evenodd" d="M129.017 185.339h6.515c.283 0 .513.234.513.522v1.636c0 .289-.23.522-.513.522h-4.178v2.16h3.327c.283 0 .512.233.512.522v1.393a.517.517 0 0 1-.512.522h-3.327v1.768c0 .288-.23.522-.513.522h-1.824a.517.517 0 0 1-.513-.522v-8.523c0-.288.229-.522.513-.522Zm9.866 0h1.825c.283 0 .512.234.512.522v8.523a.517.517 0 0 1-.512.522h-1.825a.518.518 0 0 1-.513-.522v-8.523c0-.288.23-.522.513-.522Zm23.807 0h-1.825a.517.517 0 0 0-.512.522v4.179l-2.854-4.389a.68.68 0 0 0-.57-.312h-1.402a.518.518 0 0 0-.513.522v8.523c0 .288.23.522.513.522h1.825a.518.518 0 0 0 .513-.522v-4.131l2.791 4.338a.678.678 0 0 0 .571.315h1.463a.518.518 0 0 0 .513-.522v-8.523a.518.518 0 0 0-.513-.522Zm-12.816 0h1.825c.283 0 .512.234.512.522v8.523a.517.517 0 0 1-.512.522h-1.463a.678.678 0 0 1-.571-.315l-2.792-4.338v4.131a.517.517 0 0 1-.512.522h-1.825a.518.518 0 0 1-.513-.522v-8.523c0-.288.23-.522.513-.522h1.402a.68.68 0 0 1 .57.312l2.853 4.389v-4.179c0-.288.23-.522.513-.522ZM346 201.674a3.365 3.365 0 1 1-3.373-3.401 3.354 3.354 0 0 1 3.373 3.401Zm-31.827 5.703c-5.627 0-9.777 4.085-9.777 9.556 0 5.471 4.15 9.556 9.777 9.556 5.646 0 9.816-4.085 9.816-9.556 0-5.471-4.17-9.556-9.816-9.556Zm0 4.553c2.748 0 4.824 2.061 4.824 5.003 0 2.941-2.076 5.002-4.824 5.002-2.748 0-4.804-2.061-4.804-5.002 0-2.942 2.056-5.003 4.804-5.003Zm21.403-4.553c-2.225 0-3.963.768-5.104 2.473v-1.986h-4.73v18.156h4.88v-9.893c0-2.698 2.103-3.916 4.614-3.916 2.098 0 2.883.412 2.883.412v-4.759a6.467 6.467 0 0 0-2.543-.487Zm9.519.487h-4.88v18.156h4.88v-18.156Zm-42.006 0h-6.562v-4.891h-4.88v4.891h-3.496v4.346h3.496v7.027c0 4.703 2.3 7.251 6.787 7.251a10.226 10.226 0 0 0 6.112-1.987l-2.047-3.662c-.991.6-2.102 1.096-3.261 1.096-1.515 0-2.711-.825-2.711-3.092v-6.633h6.562v-4.346Z" clip-rule="evenodd"/>
  <defs>
    <linearGradient id="b" x1="311.942" x2="252.071" y1="168.499" y2="47.612" gradientUnits="userSpaceOnUse">
      <stop stop-color="#0F1625"/>
      <stop offset=".355" stop-color="#131B2D"/>
      <stop offset="1" stop-color="#24314D"/>
    </linearGradient>
    <linearGradient id="c" x1="250.575" x2="257.53" y1="62.966" y2="71.466" gradientUnits="userSpaceOnUse">
      <stop stop-color="#1A2334"/>
      <stop offset="1" stop-color="#24314D"/>
    </linearGradient>
    <linearGradient id="d" x1="289.974" x2="300.722" y1="52.691" y2="65.827" gradientUnits="userSpaceOnUse">
      <stop stop-color="#1A2334"/>
      <stop offset="1" stop-color="#24314D"/>
    </linearGradient>
    <linearGradient id="e" x1="239.139" x2="255.83" y1="92.051" y2="112.451" gradientUnits="userSpaceOnUse">
      <stop stop-color="#1A2334"/>
      <stop offset="1" stop-color="#24314D"/>
    </linearGradient>
    <clipPath id="f">
      <path fill="#fff" d="M413.834 125.593h64.176v24.796h-64.176z"/>
    </clipPath>
    <clipPath id="g">
      <path fill="#fff" d="M400.179 35.917h105.139v21.87H400.179z"/>
    </clipPath>
    <filter id="a" width="151.95" height="152.95" x="217.177" y="37.507" color-interpolation-filters="sRGB" filterUnits="userSpaceOnUse">
      <feFlood flood-opacity="0" result="BackgroundImageFix"/>
      <feBlend in="SourceGraphic" in2="BackgroundImageFix" result="shape"/>
      <feColorMatrix in="SourceAlpha" result="hardAlpha" values="0 0 0 0 0 0 0 0 0 0 0 0 0 0 0 0 0 0 127 0"/>
      <feOffset dx="16" dy="17"/>
      <feGaussianBlur stdDeviation="22"/>
      <feComposite in2="hardAlpha" k2="-1" k3="1" operator="arithmetic"/>
      <feColorMatrix values="0 0 0 0 1 0 0 0 0 1 0 0 0 0 1 0 0 0 0.07 0"/>
      <feBlend in2="shape" result="effect1_innerShadow_309_7208"/>
    </filter>
  </defs>
</svg>