<svg xmlns="http://www.w3.org/2000/svg" width="74" height="58" fill="none" viewBox="0 0 74 58"><rect width="74" height="58" fill="#131B2D" rx="4"/><path stroke="#FFFBD5" stroke-linecap="round" stroke-linejoin="round" d="M48.35 39.562a1.625 1.625 0 0 1-1.625 1.625h-19.45a1.625 1.625 0 0 1-1.626-1.625V18.437a1.625 1.625 0 0 1 1.625-1.625h16.25c.424 0 .831.166 1.135.462l3.2 3.123a1.626 1.626 0 0 1 .49 1.164v18.001Z"/><path stroke="#FFFBD5" stroke-linecap="round" stroke-linejoin="round" d="M32.962 26.562a2.437 2.437 0 1 0 0-4.875 2.437 2.437 0 0 0 0 4.875ZM44.583 36.583l-4.455-7.245a1.095 1.095 0 0 0-1.81-.02l-2.915 4.165-1.807-1.45a1.096 1.096 0 0 0-1.597.248l-2.583 4.302"/></svg>