<svg xmlns="http://www.w3.org/2000/svg" width="129" height="21" fill="none" viewBox="0 0 129 21"><path fill="#131B2D" d="m10.5.5 2.479 7.64H21l-6.49 4.72 2.48 7.64-6.49-4.721L4.01 20.5l2.48-7.64L0 8.14h8.021L10.5.5ZM37.5.5l2.479 7.64H48l-6.49 4.72 2.48 7.64-6.49-4.721-6.49 4.721 2.48-7.64L27 8.14h8.021L37.5.5ZM64.5.5l2.479 7.64H75l-6.49 4.72 2.48 7.64-6.49-4.721-6.49 4.721 2.48-7.64L54 8.14h8.021L64.5.5Z"/><path fill="#9EACC9" d="m91.5.5 2.479 7.64H102l-6.49 4.72 2.48 7.64-6.49-4.721-6.49 4.721 2.48-7.64L81 8.14h8.021L91.5.5ZM118.5.5l2.479 7.64H129l-6.489 4.72 2.478 7.64-6.489-4.721-6.489 4.721 2.478-7.64L108 8.14h8.021L118.5.5Z"/></svg>